M48
; DRILL file {KiCad (5.99.0-11014-g82f3df4086)} date Wed Jul  7 15:05:35 2021
; FORMAT={-:-/ absolute / inch / decimal}
; #@! TF.CreationDate,2021-07-07T15:05:35-04:00
; #@! TF.GenerationSoftware,Kicad,Pcbnew,(5.99.0-11014-g82f3df4086)
; #@! TF.FileFunction,Plated,1,2,PTH
FMAT,2
INCH
; #@! TA.AperFunction,Plated,PTH,ViaDrill
T1C0.0157
; #@! TA.AperFunction,Plated,PTH,ComponentDrill
T2C0.0350
; #@! TA.AperFunction,Plated,PTH,ComponentDrill
T3C0.0469
; #@! TA.AperFunction,Plated,PTH,ComponentDrill
T4C0.0791
%
G90
G05
T1
X1.84Y-2.19
X1.84Y-2.47
X1.87Y-2.3
X1.87Y-2.42
X2.07Y-2.54
X2.26Y-2.16
X2.27Y-2.41
X2.3Y-2.26
X2.4775Y-2.1325
X2.51Y-2.26
T2
X1.6176Y-2.0097
X1.7176Y-2.0097
X2.3066Y-2.0097
X2.4066Y-2.0097
T3
X1.49Y-2.47
X1.59Y-2.47
X1.69Y-2.47
X2.47Y-2.4908
X2.57Y-2.4908
T4
X1.5176Y-1.8097
X1.9176Y-1.8097
X2.2066Y-1.8097
X2.6066Y-1.8097
T0
M30
