%TF.GenerationSoftware,KiCad,Pcbnew,(5.99.0-11014-g82f3df4086)*%
%TF.CreationDate,2021-07-07T15:05:38-04:00*%
%TF.ProjectId,DigitimerPulseExtender,44696769-7469-46d6-9572-50756c736545,rev?*%
%TF.SameCoordinates,Original*%
%TF.FileFunction,Legend,Bot*%
%TF.FilePolarity,Positive*%
%FSLAX46Y46*%
G04 Gerber Fmt 4.6, Leading zero omitted, Abs format (unit mm)*
G04 Created by KiCad (PCBNEW (5.99.0-11014-g82f3df4086)) date 2021-07-07 15:05:38*
%MOMM*%
%LPD*%
G01*
G04 APERTURE LIST*
%ADD10C,0.010000*%
G04 APERTURE END LIST*
D10*
%TO.C,G\u002A\u002A\u002A*%
X53464401Y-56330293D02*
X53268379Y-56381308D01*
X53268379Y-56381308D02*
X53190844Y-56432904D01*
X53190844Y-56432904D02*
X53058633Y-56541342D01*
X53058633Y-56541342D02*
X52884290Y-56695458D01*
X52884290Y-56695458D02*
X52680361Y-56884087D01*
X52680361Y-56884087D02*
X52459389Y-57096067D01*
X52459389Y-57096067D02*
X52402087Y-57152255D01*
X52402087Y-57152255D02*
X51682315Y-57861257D01*
X51682315Y-57861257D02*
X51655578Y-57123098D01*
X51655578Y-57123098D02*
X51628842Y-56384940D01*
X51628842Y-56384940D02*
X51237580Y-56372036D01*
X51237580Y-56372036D02*
X50846319Y-56359132D01*
X50846319Y-56359132D02*
X50863264Y-57387562D01*
X50863264Y-57387562D02*
X50880210Y-58415993D01*
X50880210Y-58415993D02*
X51019104Y-58529463D01*
X51019104Y-58529463D02*
X51204954Y-58625512D01*
X51204954Y-58625512D02*
X51434549Y-58665781D01*
X51434549Y-58665781D02*
X51663664Y-58644222D01*
X51663664Y-58644222D02*
X51723078Y-58625774D01*
X51723078Y-58625774D02*
X51786816Y-58592955D01*
X51786816Y-58592955D02*
X51875624Y-58530329D01*
X51875624Y-58530329D02*
X51996007Y-58432082D01*
X51996007Y-58432082D02*
X52154469Y-58292399D01*
X52154469Y-58292399D02*
X52357516Y-58105465D01*
X52357516Y-58105465D02*
X52611653Y-57865466D01*
X52611653Y-57865466D02*
X52923383Y-57566587D01*
X52923383Y-57566587D02*
X53114636Y-57381875D01*
X53114636Y-57381875D02*
X53259393Y-57248157D01*
X53259393Y-57248157D02*
X53380915Y-57147636D01*
X53380915Y-57147636D02*
X53462045Y-57093919D01*
X53462045Y-57093919D02*
X53483455Y-57089360D01*
X53483455Y-57089360D02*
X53497668Y-57138182D01*
X53497668Y-57138182D02*
X53509948Y-57259874D01*
X53509948Y-57259874D02*
X53519486Y-57439877D01*
X53519486Y-57439877D02*
X53525471Y-57663631D01*
X53525471Y-57663631D02*
X53527157Y-57873922D01*
X53527157Y-57873922D02*
X53527157Y-58636403D01*
X53527157Y-58636403D02*
X54275789Y-58636403D01*
X54275789Y-58636403D02*
X54275789Y-57677459D01*
X54275789Y-57677459D02*
X54273466Y-57389994D01*
X54273466Y-57389994D02*
X54266970Y-57126502D01*
X54266970Y-57126502D02*
X54257007Y-56901500D01*
X54257007Y-56901500D02*
X54244283Y-56729508D01*
X54244283Y-56729508D02*
X54229506Y-56625046D01*
X54229506Y-56625046D02*
X54223648Y-56606394D01*
X54223648Y-56606394D02*
X54109391Y-56474158D01*
X54109391Y-56474158D02*
X53924798Y-56379358D01*
X53924798Y-56379358D02*
X53699818Y-56329051D01*
X53699818Y-56329051D02*
X53464401Y-56330293D01*
G36*
X53924798Y-56379358D02*
G01*
X54109391Y-56474158D01*
X54223648Y-56606394D01*
X54229506Y-56625046D01*
X54244283Y-56729508D01*
X54257007Y-56901500D01*
X54266970Y-57126502D01*
X54273466Y-57389994D01*
X54275789Y-57677459D01*
X54275789Y-58636403D01*
X53527157Y-58636403D01*
X53527157Y-57873922D01*
X53525471Y-57663631D01*
X53519486Y-57439877D01*
X53509948Y-57259874D01*
X53497668Y-57138182D01*
X53483455Y-57089360D01*
X53462045Y-57093919D01*
X53380915Y-57147636D01*
X53259393Y-57248157D01*
X53114636Y-57381875D01*
X52923383Y-57566587D01*
X52611653Y-57865466D01*
X52357516Y-58105465D01*
X52154469Y-58292399D01*
X51996007Y-58432082D01*
X51875624Y-58530329D01*
X51786816Y-58592955D01*
X51723078Y-58625774D01*
X51663664Y-58644222D01*
X51434549Y-58665781D01*
X51204954Y-58625512D01*
X51019104Y-58529463D01*
X50880210Y-58415993D01*
X50863264Y-57387562D01*
X50846319Y-56359132D01*
X51237580Y-56372036D01*
X51628842Y-56384940D01*
X51655578Y-57123098D01*
X51682315Y-57861257D01*
X52402087Y-57152255D01*
X52459389Y-57096067D01*
X52680361Y-56884087D01*
X52884290Y-56695458D01*
X53058633Y-56541342D01*
X53190844Y-56432904D01*
X53268379Y-56381308D01*
X53464401Y-56330293D01*
X53699818Y-56329051D01*
X53924798Y-56379358D01*
G37*
X53924798Y-56379358D02*
X54109391Y-56474158D01*
X54223648Y-56606394D01*
X54229506Y-56625046D01*
X54244283Y-56729508D01*
X54257007Y-56901500D01*
X54266970Y-57126502D01*
X54273466Y-57389994D01*
X54275789Y-57677459D01*
X54275789Y-58636403D01*
X53527157Y-58636403D01*
X53527157Y-57873922D01*
X53525471Y-57663631D01*
X53519486Y-57439877D01*
X53509948Y-57259874D01*
X53497668Y-57138182D01*
X53483455Y-57089360D01*
X53462045Y-57093919D01*
X53380915Y-57147636D01*
X53259393Y-57248157D01*
X53114636Y-57381875D01*
X52923383Y-57566587D01*
X52611653Y-57865466D01*
X52357516Y-58105465D01*
X52154469Y-58292399D01*
X51996007Y-58432082D01*
X51875624Y-58530329D01*
X51786816Y-58592955D01*
X51723078Y-58625774D01*
X51663664Y-58644222D01*
X51434549Y-58665781D01*
X51204954Y-58625512D01*
X51019104Y-58529463D01*
X50880210Y-58415993D01*
X50863264Y-57387562D01*
X50846319Y-56359132D01*
X51237580Y-56372036D01*
X51628842Y-56384940D01*
X51655578Y-57123098D01*
X51682315Y-57861257D01*
X52402087Y-57152255D01*
X52459389Y-57096067D01*
X52680361Y-56884087D01*
X52884290Y-56695458D01*
X53058633Y-56541342D01*
X53190844Y-56432904D01*
X53268379Y-56381308D01*
X53464401Y-56330293D01*
X53699818Y-56329051D01*
X53924798Y-56379358D01*
X39784421Y-60953442D02*
X61815578Y-60953442D01*
X61815578Y-60953442D02*
X61815578Y-59123150D01*
X61815578Y-59123150D02*
X61612255Y-59123150D01*
X61612255Y-59123150D02*
X61504078Y-59077359D01*
X61504078Y-59077359D02*
X60371789Y-59077359D01*
X60371789Y-59077359D02*
X60329551Y-59123921D01*
X60329551Y-59123921D02*
X60219261Y-59200446D01*
X60219261Y-59200446D02*
X60065553Y-59293274D01*
X60065553Y-59293274D02*
X59893063Y-59388745D01*
X59893063Y-59388745D02*
X59726424Y-59473200D01*
X59726424Y-59473200D02*
X59590271Y-59532980D01*
X59590271Y-59532980D02*
X59511308Y-59554475D01*
X59511308Y-59554475D02*
X59427863Y-59574963D01*
X59427863Y-59574963D02*
X59426278Y-59615103D01*
X59426278Y-59615103D02*
X59425724Y-59662337D01*
X59425724Y-59662337D02*
X59368231Y-59659916D01*
X59368231Y-59659916D02*
X59275868Y-59617115D01*
X59275868Y-59617115D02*
X59170705Y-59543204D01*
X59170705Y-59543204D02*
X59102279Y-59478980D01*
X59102279Y-59478980D02*
X58994878Y-59323290D01*
X58994878Y-59323290D02*
X58958289Y-59143808D01*
X58958289Y-59143808D02*
X58957769Y-59123951D01*
X58957769Y-59123951D02*
X58954736Y-58920568D01*
X58954736Y-58920568D02*
X59251261Y-58898709D01*
X59251261Y-58898709D02*
X59459329Y-58868697D01*
X59459329Y-58868697D02*
X59644113Y-58816439D01*
X59644113Y-58816439D02*
X59778791Y-58751990D01*
X59778791Y-58751990D02*
X59836541Y-58685404D01*
X59836541Y-58685404D02*
X59837052Y-58679112D01*
X59837052Y-58679112D02*
X59877782Y-58637636D01*
X59877782Y-58637636D02*
X59890526Y-58636403D01*
X59890526Y-58636403D02*
X59934516Y-58672353D01*
X59934516Y-58672353D02*
X59941240Y-58712909D01*
X59941240Y-58712909D02*
X59897390Y-58786299D01*
X59897390Y-58786299D02*
X59790748Y-58880167D01*
X59790748Y-58880167D02*
X59652596Y-58973407D01*
X59652596Y-58973407D02*
X59514220Y-59044913D01*
X59514220Y-59044913D02*
X59406904Y-59073580D01*
X59406904Y-59073580D02*
X59406636Y-59073580D01*
X59406636Y-59073580D02*
X59306689Y-59094783D01*
X59306689Y-59094783D02*
X59275578Y-59117298D01*
X59275578Y-59117298D02*
X59200969Y-59153093D01*
X59200969Y-59153093D02*
X59125370Y-59162406D01*
X59125370Y-59162406D02*
X59044010Y-59167225D01*
X59044010Y-59167225D02*
X59055351Y-59191576D01*
X59055351Y-59191576D02*
X59112009Y-59227982D01*
X59112009Y-59227982D02*
X59233284Y-59279158D01*
X59233284Y-59279158D02*
X59312536Y-59292169D01*
X59312536Y-59292169D02*
X59396712Y-59313905D01*
X59396712Y-59313905D02*
X59392875Y-59365536D01*
X59392875Y-59365536D02*
X59315684Y-59419820D01*
X59315684Y-59419820D02*
X59263384Y-59451672D01*
X59263384Y-59451672D02*
X59301587Y-59463911D01*
X59301587Y-59463911D02*
X59366500Y-59465710D01*
X59366500Y-59465710D02*
X59492701Y-59441861D01*
X59492701Y-59441861D02*
X59560407Y-59394709D01*
X59560407Y-59394709D02*
X59643568Y-59344514D01*
X59643568Y-59344514D02*
X59703165Y-59351632D01*
X59703165Y-59351632D02*
X59815700Y-59342469D01*
X59815700Y-59342469D02*
X59897392Y-59285697D01*
X59897392Y-59285697D02*
X59963632Y-59206793D01*
X59963632Y-59206793D02*
X59960993Y-59186230D01*
X59960993Y-59186230D02*
X59836772Y-59186230D01*
X59836772Y-59186230D02*
X59790311Y-59215712D01*
X59790311Y-59215712D02*
X59676333Y-59222702D01*
X59676333Y-59222702D02*
X59552956Y-59212808D01*
X59552956Y-59212808D02*
X59486681Y-59195164D01*
X59486681Y-59195164D02*
X59503557Y-59169530D01*
X59503557Y-59169530D02*
X59584983Y-59145936D01*
X59584983Y-59145936D02*
X59688791Y-59132097D01*
X59688791Y-59132097D02*
X59772809Y-59135728D01*
X59772809Y-59135728D02*
X59786038Y-59140399D01*
X59786038Y-59140399D02*
X59836772Y-59186230D01*
X59836772Y-59186230D02*
X59960993Y-59186230D01*
X59960993Y-59186230D02*
X59955093Y-59140271D01*
X59955093Y-59140271D02*
X59926018Y-59099255D01*
X59926018Y-59099255D02*
X59878863Y-59001948D01*
X59878863Y-59001948D02*
X59890707Y-58925539D01*
X59890707Y-58925539D02*
X59948456Y-58898709D01*
X59948456Y-58898709D02*
X59988764Y-58935222D01*
X59988764Y-58935222D02*
X59997473Y-58983093D01*
X59997473Y-58983093D02*
X60012225Y-59038973D01*
X60012225Y-59038973D02*
X60076729Y-59046304D01*
X60076729Y-59046304D02*
X60153869Y-59030806D01*
X60153869Y-59030806D02*
X60299247Y-59012456D01*
X60299247Y-59012456D02*
X60365567Y-59046528D01*
X60365567Y-59046528D02*
X60371789Y-59077359D01*
X60371789Y-59077359D02*
X61504078Y-59077359D01*
X61504078Y-59077359D02*
X61352969Y-59013396D01*
X61352969Y-59013396D02*
X61168797Y-58927518D01*
X61168797Y-58927518D02*
X60996726Y-58834594D01*
X60996726Y-58834594D02*
X60933263Y-58794930D01*
X60933263Y-58794930D02*
X60832497Y-58717864D01*
X60832497Y-58717864D02*
X60806478Y-58660627D01*
X60806478Y-58660627D02*
X60839684Y-58596327D01*
X60839684Y-58596327D02*
X60894875Y-58481142D01*
X60894875Y-58481142D02*
X60902793Y-58437107D01*
X60902793Y-58437107D02*
X60735414Y-58437107D01*
X60735414Y-58437107D02*
X60709079Y-58512375D01*
X60709079Y-58512375D02*
X60645642Y-58548947D01*
X60645642Y-58548947D02*
X60643992Y-58548967D01*
X60643992Y-58548967D02*
X60570254Y-58517025D01*
X60570254Y-58517025D02*
X60557499Y-58503334D01*
X60557499Y-58503334D02*
X60553698Y-58439378D01*
X60553698Y-58439378D02*
X60604044Y-58380130D01*
X60604044Y-58380130D02*
X60674003Y-58356312D01*
X60674003Y-58356312D02*
X60708160Y-58369305D01*
X60708160Y-58369305D02*
X60735414Y-58437107D01*
X60735414Y-58437107D02*
X60902793Y-58437107D01*
X60902793Y-58437107D02*
X60908122Y-58407478D01*
X60908122Y-58407478D02*
X60917043Y-58360429D01*
X60917043Y-58360429D02*
X60951586Y-58362400D01*
X60951586Y-58362400D02*
X61026773Y-58420340D01*
X61026773Y-58420340D02*
X61119452Y-58505249D01*
X61119452Y-58505249D02*
X61267992Y-58659190D01*
X61267992Y-58659190D02*
X61411268Y-58830775D01*
X61411268Y-58830775D02*
X61470721Y-58912565D01*
X61470721Y-58912565D02*
X61612255Y-59123150D01*
X61612255Y-59123150D02*
X61815578Y-59123150D01*
X61815578Y-59123150D02*
X61815578Y-53477711D01*
X61815578Y-53477711D02*
X61601684Y-53477711D01*
X61601684Y-53477711D02*
X61601684Y-58657311D01*
X61601684Y-58657311D02*
X61310110Y-58417339D01*
X61310110Y-58417339D02*
X61161870Y-58291578D01*
X61161870Y-58291578D02*
X61135190Y-58263654D01*
X61135190Y-58263654D02*
X60828959Y-58263654D01*
X60828959Y-58263654D02*
X60827816Y-58263237D01*
X60827816Y-58263237D02*
X60555580Y-58263237D01*
X60555580Y-58263237D02*
X60501078Y-58305229D01*
X60501078Y-58305229D02*
X60396473Y-58328835D01*
X60396473Y-58328835D02*
X60373699Y-58329709D01*
X60373699Y-58329709D02*
X60326560Y-58320288D01*
X60326560Y-58320288D02*
X60335826Y-58308520D01*
X60335826Y-58308520D02*
X60211368Y-58308520D01*
X60211368Y-58308520D02*
X60184631Y-58330378D01*
X60184631Y-58330378D02*
X60163754Y-58313310D01*
X60163754Y-58313310D02*
X59992703Y-58313310D01*
X59992703Y-58313310D02*
X59944000Y-58330378D01*
X59944000Y-58330378D02*
X59896832Y-58365882D01*
X59896832Y-58365882D02*
X59890526Y-58397327D01*
X59890526Y-58397327D02*
X59847264Y-58470273D01*
X59847264Y-58470273D02*
X59810315Y-58489440D01*
X59810315Y-58489440D02*
X59741985Y-58549194D01*
X59741985Y-58549194D02*
X59730105Y-58594782D01*
X59730105Y-58594782D02*
X59720057Y-58652899D01*
X59720057Y-58652899D02*
X59679155Y-58696308D01*
X59679155Y-58696308D02*
X59591264Y-58729624D01*
X59591264Y-58729624D02*
X59440245Y-58757464D01*
X59440245Y-58757464D02*
X59209963Y-58784445D01*
X59209963Y-58784445D02*
X58994842Y-58805118D01*
X58994842Y-58805118D02*
X58940346Y-58774269D01*
X58940346Y-58774269D02*
X58928000Y-58726418D01*
X58928000Y-58726418D02*
X58952564Y-58643354D01*
X58952564Y-58643354D02*
X59007431Y-58608200D01*
X59007431Y-58608200D02*
X59061145Y-58635689D01*
X59061145Y-58635689D02*
X59145507Y-58676550D01*
X59145507Y-58676550D02*
X59262533Y-58666312D01*
X59262533Y-58666312D02*
X59355789Y-58614544D01*
X59355789Y-58614544D02*
X59462994Y-58558848D01*
X59462994Y-58558848D02*
X59529305Y-58548967D01*
X59529305Y-58548967D02*
X59601121Y-58537276D01*
X59601121Y-58537276D02*
X59579627Y-58493209D01*
X59579627Y-58493209D02*
X59577209Y-58490804D01*
X59577209Y-58490804D02*
X59569756Y-58425319D01*
X59569756Y-58425319D02*
X59629437Y-58343738D01*
X59629437Y-58343738D02*
X59727698Y-58269018D01*
X59727698Y-58269018D02*
X59835986Y-58224114D01*
X59835986Y-58224114D02*
X59908556Y-58224402D01*
X59908556Y-58224402D02*
X59982142Y-58267776D01*
X59982142Y-58267776D02*
X59992703Y-58313310D01*
X59992703Y-58313310D02*
X60163754Y-58313310D01*
X60163754Y-58313310D02*
X60157894Y-58308520D01*
X60157894Y-58308520D02*
X60184631Y-58286661D01*
X60184631Y-58286661D02*
X60211368Y-58308520D01*
X60211368Y-58308520D02*
X60335826Y-58308520D01*
X60335826Y-58308520D02*
X60359501Y-58278454D01*
X60359501Y-58278454D02*
X60381936Y-58259629D01*
X60381936Y-58259629D02*
X60474293Y-58216509D01*
X60474293Y-58216509D02*
X60532788Y-58221376D01*
X60532788Y-58221376D02*
X60555580Y-58263237D01*
X60555580Y-58263237D02*
X60827816Y-58263237D01*
X60827816Y-58263237D02*
X60778327Y-58245197D01*
X60778327Y-58245197D02*
X60706000Y-58205470D01*
X60706000Y-58205470D02*
X60596090Y-58137826D01*
X60596090Y-58137826D02*
X60536017Y-58091846D01*
X60536017Y-58091846D02*
X60532210Y-58085416D01*
X60532210Y-58085416D02*
X60566750Y-58081614D01*
X60566750Y-58081614D02*
X60647807Y-58117756D01*
X60647807Y-58117756D02*
X60741532Y-58176093D01*
X60741532Y-58176093D02*
X60803976Y-58227919D01*
X60803976Y-58227919D02*
X60828959Y-58263654D01*
X60828959Y-58263654D02*
X61135190Y-58263654D01*
X61135190Y-58263654D02*
X61074984Y-58200641D01*
X61074984Y-58200641D02*
X61033367Y-58119047D01*
X61033367Y-58119047D02*
X61021504Y-58025794D01*
X61021504Y-58025794D02*
X60868511Y-58025794D01*
X60868511Y-58025794D02*
X60819307Y-58069484D01*
X60819307Y-58069484D02*
X60733206Y-58037412D01*
X60733206Y-58037412D02*
X60701365Y-58010067D01*
X60701365Y-58010067D02*
X60391201Y-58010067D01*
X60391201Y-58010067D02*
X60347897Y-58080157D01*
X60347897Y-58080157D02*
X60336822Y-58094065D01*
X60336822Y-58094065D02*
X60253851Y-58172809D01*
X60253851Y-58172809D02*
X60184316Y-58174319D01*
X60184316Y-58174319D02*
X60155893Y-58140320D01*
X60155893Y-58140320D02*
X60040338Y-58140320D01*
X60040338Y-58140320D02*
X59977509Y-58111476D01*
X59977509Y-58111476D02*
X59917263Y-58068072D01*
X59917263Y-58068072D02*
X59829940Y-58013405D01*
X59829940Y-58013405D02*
X59785143Y-58009604D01*
X59785143Y-58009604D02*
X59783578Y-58016145D01*
X59783578Y-58016145D02*
X59744869Y-58077259D01*
X59744869Y-58077259D02*
X59648776Y-58166078D01*
X59648776Y-58166078D02*
X59525356Y-58259962D01*
X59525356Y-58259962D02*
X59404666Y-58336270D01*
X59404666Y-58336270D02*
X59316760Y-58372362D01*
X59316760Y-58372362D02*
X59309963Y-58372913D01*
X59309963Y-58372913D02*
X59261146Y-58404893D01*
X59261146Y-58404893D02*
X59265679Y-58434346D01*
X59265679Y-58434346D02*
X59264875Y-58512572D01*
X59264875Y-58512572D02*
X59197130Y-58555837D01*
X59197130Y-58555837D02*
X59096403Y-58558163D01*
X59096403Y-58558163D02*
X58996653Y-58513573D01*
X58996653Y-58513573D02*
X58968924Y-58486579D01*
X58968924Y-58486579D02*
X58929295Y-58405012D01*
X58929295Y-58405012D02*
X58948303Y-58349992D01*
X58948303Y-58349992D02*
X59008210Y-58346188D01*
X59008210Y-58346188D02*
X59072401Y-58339708D01*
X59072401Y-58339708D02*
X59089151Y-58274359D01*
X59089151Y-58274359D02*
X59104267Y-58149382D01*
X59104267Y-58149382D02*
X59122332Y-58078352D01*
X59122332Y-58078352D02*
X59132727Y-58008128D01*
X59132727Y-58008128D02*
X59085834Y-58001465D01*
X59085834Y-58001465D02*
X59068128Y-58006523D01*
X59068128Y-58006523D02*
X58993093Y-58061889D01*
X58993093Y-58061889D02*
X58981473Y-58097188D01*
X58981473Y-58097188D02*
X58953954Y-58138682D01*
X58953954Y-58138682D02*
X58927855Y-58133576D01*
X58927855Y-58133576D02*
X58920898Y-58116244D01*
X58920898Y-58116244D02*
X58179368Y-58116244D01*
X58179368Y-58116244D02*
X58140415Y-58195117D01*
X58140415Y-58195117D02*
X58039430Y-58214417D01*
X58039430Y-58214417D02*
X57945866Y-58189050D01*
X57945866Y-58189050D02*
X57834569Y-58174953D01*
X57834569Y-58174953D02*
X57765009Y-58213227D01*
X57765009Y-58213227D02*
X57650978Y-58256415D01*
X57650978Y-58256415D02*
X57521162Y-58213953D01*
X57521162Y-58213953D02*
X57409046Y-58120427D01*
X57409046Y-58120427D02*
X57311768Y-58047298D01*
X57311768Y-58047298D02*
X57191973Y-58032377D01*
X57191973Y-58032377D02*
X57128309Y-58038849D01*
X57128309Y-58038849D02*
X56994810Y-58043559D01*
X56994810Y-58043559D02*
X56955628Y-58016609D01*
X56955628Y-58016609D02*
X57011200Y-57968227D01*
X57011200Y-57968227D02*
X57123263Y-57921274D01*
X57123263Y-57921274D02*
X57284108Y-57886524D01*
X57284108Y-57886524D02*
X57364347Y-57904950D01*
X57364347Y-57904950D02*
X57459025Y-57927412D01*
X57459025Y-57927412D02*
X57602073Y-57925346D01*
X57602073Y-57925346D02*
X57622253Y-57922950D01*
X57622253Y-57922950D02*
X57794924Y-57923111D01*
X57794924Y-57923111D02*
X57966181Y-57959290D01*
X57966181Y-57959290D02*
X58103783Y-58020299D01*
X58103783Y-58020299D02*
X58175488Y-58094953D01*
X58175488Y-58094953D02*
X58179368Y-58116244D01*
X58179368Y-58116244D02*
X58920898Y-58116244D01*
X58920898Y-58116244D02*
X58904384Y-58075103D01*
X58904384Y-58075103D02*
X58930969Y-58019818D01*
X58930969Y-58019818D02*
X58975445Y-57971675D01*
X58975445Y-57971675D02*
X59046107Y-57950512D01*
X59046107Y-57950512D02*
X59172932Y-57951604D01*
X59172932Y-57951604D02*
X59298490Y-57961900D01*
X59298490Y-57961900D02*
X59513847Y-57972248D01*
X59513847Y-57972248D02*
X59629668Y-57954374D01*
X59629668Y-57954374D02*
X59646111Y-57941924D01*
X59646111Y-57941924D02*
X59732746Y-57895438D01*
X59732746Y-57895438D02*
X59847147Y-57913230D01*
X59847147Y-57913230D02*
X59954279Y-57988808D01*
X59954279Y-57988808D02*
X59964586Y-58000957D01*
X59964586Y-58000957D02*
X60036573Y-58102712D01*
X60036573Y-58102712D02*
X60040338Y-58140320D01*
X60040338Y-58140320D02*
X60155893Y-58140320D01*
X60155893Y-58140320D02*
X60117995Y-58094988D01*
X60117995Y-58094988D02*
X60072874Y-58000965D01*
X60072874Y-58000965D02*
X60027137Y-57891583D01*
X60027137Y-57891583D02*
X60000759Y-57824751D01*
X60000759Y-57824751D02*
X59998278Y-57816695D01*
X59998278Y-57816695D02*
X60034766Y-57802609D01*
X60034766Y-57802609D02*
X60129321Y-57828556D01*
X60129321Y-57828556D02*
X60251392Y-57885621D01*
X60251392Y-57885621D02*
X60269169Y-57895720D01*
X60269169Y-57895720D02*
X60368852Y-57960003D01*
X60368852Y-57960003D02*
X60391201Y-58010067D01*
X60391201Y-58010067D02*
X60701365Y-58010067D01*
X60701365Y-58010067D02*
X60693196Y-58003052D01*
X60693196Y-58003052D02*
X60651917Y-57917240D01*
X60651917Y-57917240D02*
X60658234Y-57871899D01*
X60658234Y-57871899D02*
X60723025Y-57811366D01*
X60723025Y-57811366D02*
X60802013Y-57821510D01*
X60802013Y-57821510D02*
X60860424Y-57895277D01*
X60860424Y-57895277D02*
X60865900Y-57914033D01*
X60865900Y-57914033D02*
X60868511Y-58025794D01*
X60868511Y-58025794D02*
X61021504Y-58025794D01*
X61021504Y-58025794D02*
X61020934Y-58021318D01*
X61020934Y-58021318D02*
X61020631Y-57958778D01*
X61020631Y-57958778D02*
X61021693Y-57691340D01*
X61021693Y-57691340D02*
X61018602Y-57564391D01*
X61018602Y-57564391D02*
X60902456Y-57564391D01*
X60902456Y-57564391D02*
X60896574Y-57643953D01*
X60896574Y-57643953D02*
X60858284Y-57686422D01*
X60858284Y-57686422D02*
X60778443Y-57716589D01*
X60778443Y-57716589D02*
X60776557Y-57717175D01*
X60776557Y-57717175D02*
X60652589Y-57753093D01*
X60652589Y-57753093D02*
X60598763Y-57754674D01*
X60598763Y-57754674D02*
X60585913Y-57720032D01*
X60585913Y-57720032D02*
X60585684Y-57704827D01*
X60585684Y-57704827D02*
X60554407Y-57628377D01*
X60554407Y-57628377D02*
X60502350Y-57562745D01*
X60502350Y-57562745D02*
X60453590Y-57518920D01*
X60453590Y-57518920D02*
X60434594Y-57529148D01*
X60434594Y-57529148D02*
X60439999Y-57606098D01*
X60439999Y-57606098D02*
X60451611Y-57682588D01*
X60451611Y-57682588D02*
X60484206Y-57887294D01*
X60484206Y-57887294D02*
X60321050Y-57836945D01*
X60321050Y-57836945D02*
X60209329Y-57793859D01*
X60209329Y-57793859D02*
X60158225Y-57757160D01*
X60158225Y-57757160D02*
X60157894Y-57755044D01*
X60157894Y-57755044D02*
X60196172Y-57705455D01*
X60196172Y-57705455D02*
X60211368Y-57696471D01*
X60211368Y-57696471D02*
X60247788Y-57638233D01*
X60247788Y-57638233D02*
X60264694Y-57532680D01*
X60264694Y-57532680D02*
X60264842Y-57521601D01*
X60264842Y-57521601D02*
X60282510Y-57397833D01*
X60282510Y-57397833D02*
X60339372Y-57350198D01*
X60339372Y-57350198D02*
X60441214Y-57378039D01*
X60441214Y-57378039D02*
X60593820Y-57480699D01*
X60593820Y-57480699D02*
X60597791Y-57483793D01*
X60597791Y-57483793D02*
X60717871Y-57574906D01*
X60717871Y-57574906D02*
X60776476Y-57608630D01*
X60776476Y-57608630D02*
X60787415Y-57589681D01*
X60787415Y-57589681D02*
X60772539Y-57543459D01*
X60772539Y-57543459D02*
X60745787Y-57423876D01*
X60745787Y-57423876D02*
X60736976Y-57280893D01*
X60736976Y-57280893D02*
X60737297Y-57270224D01*
X60737297Y-57270224D02*
X60726279Y-57156104D01*
X60726279Y-57156104D02*
X60690507Y-57108576D01*
X60690507Y-57108576D02*
X60642751Y-57135465D01*
X60642751Y-57135465D02*
X60612421Y-57193718D01*
X60612421Y-57193718D02*
X60560621Y-57264457D01*
X60560621Y-57264457D02*
X60519694Y-57281153D01*
X60519694Y-57281153D02*
X60487730Y-57262517D01*
X60487730Y-57262517D02*
X60496678Y-57251912D01*
X60496678Y-57251912D02*
X60493362Y-57201772D01*
X60493362Y-57201772D02*
X60489152Y-57196664D01*
X60489152Y-57196664D02*
X60318315Y-57196664D01*
X60318315Y-57196664D02*
X60281387Y-57233606D01*
X60281387Y-57233606D02*
X60206236Y-57229746D01*
X60206236Y-57229746D02*
X60146312Y-57189313D01*
X60146312Y-57189313D02*
X60142934Y-57182788D01*
X60142934Y-57182788D02*
X60108940Y-57132327D01*
X60108940Y-57132327D02*
X60088651Y-57149117D01*
X60088651Y-57149117D02*
X60085761Y-57213361D01*
X60085761Y-57213361D02*
X60103966Y-57305258D01*
X60103966Y-57305258D02*
X60114355Y-57335961D01*
X60114355Y-57335961D02*
X60141068Y-57478780D01*
X60141068Y-57478780D02*
X60092970Y-57592520D01*
X60092970Y-57592520D02*
X59959504Y-57689382D01*
X59959504Y-57689382D02*
X59730116Y-57781573D01*
X59730116Y-57781573D02*
X59728437Y-57782134D01*
X59728437Y-57782134D02*
X59525488Y-57839890D01*
X59525488Y-57839890D02*
X59382421Y-57853800D01*
X59382421Y-57853800D02*
X59304403Y-57840334D01*
X59304403Y-57840334D02*
X59153684Y-57818977D01*
X59153684Y-57818977D02*
X59050403Y-57826033D01*
X59050403Y-57826033D02*
X58956335Y-57829925D01*
X58956335Y-57829925D02*
X58928211Y-57777403D01*
X58928211Y-57777403D02*
X58928000Y-57767980D01*
X58928000Y-57767980D02*
X58973394Y-57689980D01*
X58973394Y-57689980D02*
X59034947Y-57661945D01*
X59034947Y-57661945D02*
X59121736Y-57623433D01*
X59121736Y-57623433D02*
X59141894Y-57591270D01*
X59141894Y-57591270D02*
X59097156Y-57552440D01*
X59097156Y-57552440D02*
X59034947Y-57543459D01*
X59034947Y-57543459D02*
X58951083Y-57517844D01*
X58951083Y-57517844D02*
X58942370Y-57486256D01*
X58942370Y-57486256D02*
X58714105Y-57486256D01*
X58714105Y-57486256D02*
X58711548Y-57697141D01*
X58711548Y-57697141D02*
X58702815Y-57830981D01*
X58702815Y-57830981D02*
X58686315Y-57898086D01*
X58686315Y-57898086D02*
X58660456Y-57908767D01*
X58660456Y-57908767D02*
X58649936Y-57901945D01*
X58649936Y-57901945D02*
X58549944Y-57861548D01*
X58549944Y-57861548D02*
X58446736Y-57849483D01*
X58446736Y-57849483D02*
X58320612Y-57865534D01*
X58320612Y-57865534D02*
X58253004Y-57894205D01*
X58253004Y-57894205D02*
X58169445Y-57909211D01*
X58169445Y-57909211D02*
X58042387Y-57885133D01*
X58042387Y-57885133D02*
X57913162Y-57836132D01*
X57913162Y-57836132D02*
X57823101Y-57776369D01*
X57823101Y-57776369D02*
X57805052Y-57740725D01*
X57805052Y-57740725D02*
X57852713Y-57673862D01*
X57852713Y-57673862D02*
X57974556Y-57607491D01*
X57974556Y-57607491D02*
X58069480Y-57576796D01*
X58069480Y-57576796D02*
X57283949Y-57576796D01*
X57283949Y-57576796D02*
X57274113Y-57667364D01*
X57274113Y-57667364D02*
X57205164Y-57764605D01*
X57205164Y-57764605D02*
X57109576Y-57829757D01*
X57109576Y-57829757D02*
X56978636Y-57881151D01*
X56978636Y-57881151D02*
X56906033Y-57881339D01*
X56906033Y-57881339D02*
X56862901Y-57829732D01*
X56862901Y-57829732D02*
X56860479Y-57824675D01*
X56860479Y-57824675D02*
X56856140Y-57732878D01*
X56856140Y-57732878D02*
X56882236Y-57660734D01*
X56882236Y-57660734D02*
X56944055Y-57545753D01*
X56944055Y-57545753D02*
X56995142Y-57445095D01*
X56995142Y-57445095D02*
X57060470Y-57359032D01*
X57060470Y-57359032D02*
X57130254Y-57324871D01*
X57130254Y-57324871D02*
X57202867Y-57363328D01*
X57202867Y-57363328D02*
X57258495Y-57457769D01*
X57258495Y-57457769D02*
X57283949Y-57576796D01*
X57283949Y-57576796D02*
X58069480Y-57576796D01*
X58069480Y-57576796D02*
X58138870Y-57554358D01*
X58138870Y-57554358D02*
X58313947Y-57527210D01*
X58313947Y-57527210D02*
X58338795Y-57526176D01*
X58338795Y-57526176D02*
X58466156Y-57514541D01*
X58466156Y-57514541D02*
X58518333Y-57475618D01*
X58518333Y-57475618D02*
X58526947Y-57412905D01*
X58526947Y-57412905D02*
X58511161Y-57369432D01*
X58511161Y-57369432D02*
X58179368Y-57369432D01*
X58179368Y-57369432D02*
X58133585Y-57430630D01*
X58133585Y-57430630D02*
X58023414Y-57491204D01*
X58023414Y-57491204D02*
X57889627Y-57536046D01*
X57889627Y-57536046D02*
X57772993Y-57550049D01*
X57772993Y-57550049D02*
X57727515Y-57536869D01*
X57727515Y-57536869D02*
X57639539Y-57508874D01*
X57639539Y-57508874D02*
X57532710Y-57499742D01*
X57532710Y-57499742D02*
X57411398Y-57476055D01*
X57411398Y-57476055D02*
X57356299Y-57430701D01*
X57356299Y-57430701D02*
X57351393Y-57386237D01*
X57351393Y-57386237D02*
X57412237Y-57378022D01*
X57412237Y-57378022D02*
X57497631Y-57389043D01*
X57497631Y-57389043D02*
X57609746Y-57404235D01*
X57609746Y-57404235D02*
X57629832Y-57393840D01*
X57629832Y-57393840D02*
X57570417Y-57350647D01*
X57570417Y-57350647D02*
X57567569Y-57348790D01*
X57567569Y-57348790D02*
X57471827Y-57296674D01*
X57471827Y-57296674D02*
X57420516Y-57281153D01*
X57420516Y-57281153D02*
X57384649Y-57244693D01*
X57384649Y-57244693D02*
X57377263Y-57198816D01*
X57377263Y-57198816D02*
X57422023Y-57124877D01*
X57422023Y-57124877D02*
X57529987Y-57086327D01*
X57529987Y-57086327D02*
X57661681Y-57094100D01*
X57661681Y-57094100D02*
X57703235Y-57108527D01*
X57703235Y-57108527D02*
X57830603Y-57144230D01*
X57830603Y-57144230D02*
X57890905Y-57150000D01*
X57890905Y-57150000D02*
X58016731Y-57184209D01*
X58016731Y-57184209D02*
X58126854Y-57265382D01*
X58126854Y-57265382D02*
X58178968Y-57361338D01*
X58178968Y-57361338D02*
X58179368Y-57369432D01*
X58179368Y-57369432D02*
X58511161Y-57369432D01*
X58511161Y-57369432D02*
X58492635Y-57318414D01*
X58492635Y-57318414D02*
X58420000Y-57288317D01*
X58420000Y-57288317D02*
X58302376Y-57247438D01*
X58302376Y-57247438D02*
X58194804Y-57183321D01*
X58194804Y-57183321D02*
X58115465Y-57103170D01*
X58115465Y-57103170D02*
X58119657Y-57030026D01*
X58119657Y-57030026D02*
X58129843Y-57012814D01*
X58129843Y-57012814D02*
X58150901Y-56912813D01*
X58150901Y-56912813D02*
X57591157Y-56912813D01*
X57591157Y-56912813D02*
X57547158Y-56966034D01*
X57547158Y-56966034D02*
X57447224Y-57017785D01*
X57447224Y-57017785D02*
X57339446Y-57046311D01*
X57339446Y-57046311D02*
X57298427Y-57045237D01*
X57298427Y-57045237D02*
X57253874Y-56999156D01*
X57253874Y-56999156D02*
X57213263Y-56900855D01*
X57213263Y-56900855D02*
X57208941Y-56884721D01*
X57208941Y-56884721D02*
X57189719Y-56780234D01*
X57189719Y-56780234D02*
X57191607Y-56720018D01*
X57191607Y-56720018D02*
X57193879Y-56717023D01*
X57193879Y-56717023D02*
X57253918Y-56721290D01*
X57253918Y-56721290D02*
X57360490Y-56761859D01*
X57360490Y-56761859D02*
X57476554Y-56820476D01*
X57476554Y-56820476D02*
X57565067Y-56878885D01*
X57565067Y-56878885D02*
X57591157Y-56912813D01*
X57591157Y-56912813D02*
X58150901Y-56912813D01*
X58150901Y-56912813D02*
X58153515Y-56900403D01*
X58153515Y-56900403D02*
X58096165Y-56797687D01*
X58096165Y-56797687D02*
X57983120Y-56723614D01*
X57983120Y-56723614D02*
X57839704Y-56697136D01*
X57839704Y-56697136D02*
X57734662Y-56717119D01*
X57734662Y-56717119D02*
X57598441Y-56742198D01*
X57598441Y-56742198D02*
X57477606Y-56706391D01*
X57477606Y-56706391D02*
X57417520Y-56674347D01*
X57417520Y-56674347D02*
X57419056Y-56655056D01*
X57419056Y-56655056D02*
X57496733Y-56643615D01*
X57496733Y-56643615D02*
X57665068Y-56635124D01*
X57665068Y-56635124D02*
X57691812Y-56634080D01*
X57691812Y-56634080D02*
X57997980Y-56641880D01*
X57997980Y-56641880D02*
X58211501Y-56690127D01*
X58211501Y-56690127D02*
X58329311Y-56746307D01*
X58329311Y-56746307D02*
X58368890Y-56807338D01*
X58368890Y-56807338D02*
X58360237Y-56880612D01*
X58360237Y-56880612D02*
X58365887Y-57001029D01*
X58365887Y-57001029D02*
X58434534Y-57077707D01*
X58434534Y-57077707D02*
X58543496Y-57093506D01*
X58543496Y-57093506D02*
X58611500Y-57070493D01*
X58611500Y-57070493D02*
X58656746Y-57051703D01*
X58656746Y-57051703D02*
X58686266Y-57059753D01*
X58686266Y-57059753D02*
X58703409Y-57108219D01*
X58703409Y-57108219D02*
X58711526Y-57210674D01*
X58711526Y-57210674D02*
X58713966Y-57380692D01*
X58713966Y-57380692D02*
X58714105Y-57486256D01*
X58714105Y-57486256D02*
X58942370Y-57486256D01*
X58942370Y-57486256D02*
X58928000Y-57434165D01*
X58928000Y-57434165D02*
X58941841Y-57350511D01*
X58941841Y-57350511D02*
X58968105Y-57321319D01*
X58968105Y-57321319D02*
X59046406Y-57315828D01*
X59046406Y-57315828D02*
X59161050Y-57308739D01*
X59161050Y-57308739D02*
X59298495Y-57275637D01*
X59298495Y-57275637D02*
X59384386Y-57220890D01*
X59384386Y-57220890D02*
X59486554Y-57164231D01*
X59486554Y-57164231D02*
X59565757Y-57170840D01*
X59565757Y-57170840D02*
X59654544Y-57219331D01*
X59654544Y-57219331D02*
X59671104Y-57279603D01*
X59671104Y-57279603D02*
X59614014Y-57320711D01*
X59614014Y-57320711D02*
X59572840Y-57324871D01*
X59572840Y-57324871D02*
X59471243Y-57344023D01*
X59471243Y-57344023D02*
X59437443Y-57366679D01*
X59437443Y-57366679D02*
X59368328Y-57389130D01*
X59368328Y-57389130D02*
X59318056Y-57380948D01*
X59318056Y-57380948D02*
X59257994Y-57374333D01*
X59257994Y-57374333D02*
X59267886Y-57425638D01*
X59267886Y-57425638D02*
X59273858Y-57437505D01*
X59273858Y-57437505D02*
X59316731Y-57546327D01*
X59316731Y-57546327D02*
X59342604Y-57641378D01*
X59342604Y-57641378D02*
X59378836Y-57724060D01*
X59378836Y-57724060D02*
X59422933Y-57729353D01*
X59422933Y-57729353D02*
X59456020Y-57664524D01*
X59456020Y-57664524D02*
X59462736Y-57595113D01*
X59462736Y-57595113D02*
X59491504Y-57503971D01*
X59491504Y-57503971D02*
X59559412Y-57429030D01*
X59559412Y-57429030D02*
X59638865Y-57391092D01*
X59638865Y-57391092D02*
X59702269Y-57410958D01*
X59702269Y-57410958D02*
X59704045Y-57413201D01*
X59704045Y-57413201D02*
X59768356Y-57455269D01*
X59768356Y-57455269D02*
X59817375Y-57437276D01*
X59817375Y-57437276D02*
X59814824Y-57384289D01*
X59814824Y-57384289D02*
X59804156Y-57260046D01*
X59804156Y-57260046D02*
X59885182Y-57165088D01*
X59885182Y-57165088D02*
X59977200Y-57130721D01*
X59977200Y-57130721D02*
X60121846Y-57119538D01*
X60121846Y-57119538D02*
X60247076Y-57139218D01*
X60247076Y-57139218D02*
X60314817Y-57182402D01*
X60314817Y-57182402D02*
X60318315Y-57196664D01*
X60318315Y-57196664D02*
X60489152Y-57196664D01*
X60489152Y-57196664D02*
X60446878Y-57145373D01*
X60446878Y-57145373D02*
X60391278Y-57058052D01*
X60391278Y-57058052D02*
X60394814Y-57052921D01*
X60394814Y-57052921D02*
X59751159Y-57052921D01*
X59751159Y-57052921D02*
X59750347Y-57104632D01*
X59750347Y-57104632D02*
X59748620Y-57106282D01*
X59748620Y-57106282D02*
X59695942Y-57090295D01*
X59695942Y-57090295D02*
X59597552Y-57055031D01*
X59597552Y-57055031D02*
X59495634Y-56998292D01*
X59495634Y-56998292D02*
X59496152Y-56936325D01*
X59496152Y-56936325D02*
X59599499Y-56860525D01*
X59599499Y-56860525D02*
X59606584Y-56856645D01*
X59606584Y-56856645D02*
X59681230Y-56823685D01*
X59681230Y-56823685D02*
X59717629Y-56844964D01*
X59717629Y-56844964D02*
X59737768Y-56936082D01*
X59737768Y-56936082D02*
X59739968Y-56951269D01*
X59739968Y-56951269D02*
X59751159Y-57052921D01*
X59751159Y-57052921D02*
X60394814Y-57052921D01*
X60394814Y-57052921D02*
X60433125Y-56997334D01*
X60433125Y-56997334D02*
X60560870Y-56975129D01*
X60560870Y-56975129D02*
X60699119Y-57014235D01*
X60699119Y-57014235D02*
X60801476Y-57132641D01*
X60801476Y-57132641D02*
X60869121Y-57331975D01*
X60869121Y-57331975D02*
X60885072Y-57422949D01*
X60885072Y-57422949D02*
X60902456Y-57564391D01*
X60902456Y-57564391D02*
X61018602Y-57564391D01*
X61018602Y-57564391D02*
X61016784Y-57489760D01*
X61016784Y-57489760D02*
X61002601Y-57332486D01*
X61002601Y-57332486D02*
X60975844Y-57197967D01*
X60975844Y-57197967D02*
X60933210Y-57064653D01*
X60933210Y-57064653D02*
X60871397Y-56910992D01*
X60871397Y-56910992D02*
X60864303Y-56894370D01*
X60864303Y-56894370D02*
X60772842Y-56894370D01*
X60772842Y-56894370D02*
X60635776Y-56866483D01*
X60635776Y-56866483D02*
X60470556Y-56873212D01*
X60470556Y-56873212D02*
X60378348Y-56917792D01*
X60378348Y-56917792D02*
X60244472Y-56972189D01*
X60244472Y-56972189D02*
X60073206Y-57002222D01*
X60073206Y-57002222D02*
X60047518Y-57003550D01*
X60047518Y-57003550D02*
X59907775Y-56999986D01*
X59907775Y-56999986D02*
X59846872Y-56971643D01*
X59846872Y-56971643D02*
X59837052Y-56932397D01*
X59837052Y-56932397D02*
X59875671Y-56839819D01*
X59875671Y-56839819D02*
X59917263Y-56800258D01*
X59917263Y-56800258D02*
X59976592Y-56718638D01*
X59976592Y-56718638D02*
X59990338Y-56653726D01*
X59990338Y-56653726D02*
X59877044Y-56653726D01*
X59877044Y-56653726D02*
X59795221Y-56708506D01*
X59795221Y-56708506D02*
X59633878Y-56718711D01*
X59633878Y-56718711D02*
X59541725Y-56708312D01*
X59541725Y-56708312D02*
X59286889Y-56695977D01*
X59286889Y-56695977D02*
X59154748Y-56723346D01*
X59154748Y-56723346D02*
X59008210Y-56775103D01*
X59008210Y-56775103D02*
X59207230Y-56790246D01*
X59207230Y-56790246D02*
X59333637Y-56804508D01*
X59333637Y-56804508D02*
X59373394Y-56830486D01*
X59373394Y-56830486D02*
X59346719Y-56883247D01*
X59346719Y-56883247D02*
X59341419Y-56890259D01*
X59341419Y-56890259D02*
X59303787Y-56981752D01*
X59303787Y-56981752D02*
X59339779Y-57057851D01*
X59339779Y-57057851D02*
X59378469Y-57133482D01*
X59378469Y-57133482D02*
X59341198Y-57175642D01*
X59341198Y-57175642D02*
X59215754Y-57192356D01*
X59215754Y-57192356D02*
X59132982Y-57193718D01*
X59132982Y-57193718D02*
X58928000Y-57193718D01*
X58928000Y-57193718D02*
X58928000Y-56886321D01*
X58928000Y-56886321D02*
X58938256Y-56697461D01*
X58938256Y-56697461D02*
X58975987Y-56584892D01*
X58975987Y-56584892D02*
X59051638Y-56538588D01*
X59051638Y-56538588D02*
X59175654Y-56548521D01*
X59175654Y-56548521D02*
X59256727Y-56570721D01*
X59256727Y-56570721D02*
X59362264Y-56592406D01*
X59362264Y-56592406D02*
X59409123Y-56580508D01*
X59409123Y-56580508D02*
X59409263Y-56578880D01*
X59409263Y-56578880D02*
X59363646Y-56518627D01*
X59363646Y-56518627D02*
X59255062Y-56460930D01*
X59255062Y-56460930D02*
X59125909Y-56423320D01*
X59125909Y-56423320D02*
X59027559Y-56421045D01*
X59027559Y-56421045D02*
X58965726Y-56429351D01*
X58965726Y-56429351D02*
X58935205Y-56408153D01*
X58935205Y-56408153D02*
X58930032Y-56339254D01*
X58930032Y-56339254D02*
X58932279Y-56317940D01*
X58932279Y-56317940D02*
X58714105Y-56317940D01*
X58714105Y-56317940D02*
X58713275Y-56551763D01*
X58713275Y-56551763D02*
X58709323Y-56710370D01*
X58709323Y-56710370D02*
X58700050Y-56805980D01*
X58700050Y-56805980D02*
X58683261Y-56850809D01*
X58683261Y-56850809D02*
X58656758Y-56857075D01*
X58656758Y-56857075D02*
X58620526Y-56838399D01*
X58620526Y-56838399D02*
X58527170Y-56770489D01*
X58527170Y-56770489D02*
X58488062Y-56734681D01*
X58488062Y-56734681D02*
X58469250Y-56659735D01*
X58469250Y-56659735D02*
X58479112Y-56612360D01*
X58479112Y-56612360D02*
X58471203Y-56516093D01*
X58471203Y-56516093D02*
X58152631Y-56516093D01*
X58152631Y-56516093D02*
X57758521Y-56529044D01*
X57758521Y-56529044D02*
X57527048Y-56530948D01*
X57527048Y-56530948D02*
X57377333Y-56516447D01*
X57377333Y-56516447D02*
X57285511Y-56482856D01*
X57285511Y-56482856D02*
X57273047Y-56474396D01*
X57273047Y-56474396D02*
X57147583Y-56413920D01*
X57147583Y-56413920D02*
X57053636Y-56427576D01*
X57053636Y-56427576D02*
X57003349Y-56503506D01*
X57003349Y-56503506D02*
X57008862Y-56629854D01*
X57008862Y-56629854D02*
X57035518Y-56706365D01*
X57035518Y-56706365D02*
X57086840Y-56848041D01*
X57086840Y-56848041D02*
X57107443Y-56958349D01*
X57107443Y-56958349D02*
X57093997Y-57015392D01*
X57093997Y-57015392D02*
X57083047Y-57018847D01*
X57083047Y-57018847D02*
X57040937Y-56986209D01*
X57040937Y-56986209D02*
X56953505Y-56899714D01*
X56953505Y-56899714D02*
X56837871Y-56776486D01*
X56837871Y-56776486D02*
X56809865Y-56745611D01*
X56809865Y-56745611D02*
X56642859Y-56544639D01*
X56642859Y-56544639D02*
X56479952Y-56321208D01*
X56479952Y-56321208D02*
X56336976Y-56099556D01*
X56336976Y-56099556D02*
X56229764Y-55903921D01*
X56229764Y-55903921D02*
X56180116Y-55781529D01*
X56180116Y-55781529D02*
X56162614Y-55698848D01*
X56162614Y-55698848D02*
X56189992Y-55683057D01*
X56189992Y-55683057D02*
X56239225Y-55701660D01*
X56239225Y-55701660D02*
X56326985Y-55755192D01*
X56326985Y-55755192D02*
X56455705Y-55849697D01*
X56455705Y-55849697D02*
X56563378Y-55936448D01*
X56563378Y-55936448D02*
X56687569Y-56042990D01*
X56687569Y-56042990D02*
X56746167Y-56107691D01*
X56746167Y-56107691D02*
X56748315Y-56151255D01*
X56748315Y-56151255D02*
X56703156Y-56194383D01*
X56703156Y-56194383D02*
X56683694Y-56208893D01*
X56683694Y-56208893D02*
X56603730Y-56276551D01*
X56603730Y-56276551D02*
X56575157Y-56315288D01*
X56575157Y-56315288D02*
X56624210Y-56324017D01*
X56624210Y-56324017D02*
X56753881Y-56329082D01*
X56753881Y-56329082D02*
X56937944Y-56330600D01*
X56937944Y-56330600D02*
X57150170Y-56328691D01*
X57150170Y-56328691D02*
X57364331Y-56323472D01*
X57364331Y-56323472D02*
X57554200Y-56315064D01*
X57554200Y-56315064D02*
X57621141Y-56310552D01*
X57621141Y-56310552D02*
X57732170Y-56327650D01*
X57732170Y-56327650D02*
X57881673Y-56380755D01*
X57881673Y-56380755D02*
X57941983Y-56409048D01*
X57941983Y-56409048D02*
X58152631Y-56516093D01*
X58152631Y-56516093D02*
X58471203Y-56516093D01*
X58471203Y-56516093D02*
X58470669Y-56509595D01*
X58470669Y-56509595D02*
X58385290Y-56431353D01*
X58385290Y-56431353D02*
X58277637Y-56406798D01*
X58277637Y-56406798D02*
X58167176Y-56388087D01*
X58167176Y-56388087D02*
X58024600Y-56341659D01*
X58024600Y-56341659D02*
X57884810Y-56282075D01*
X57884810Y-56282075D02*
X57782705Y-56223896D01*
X57782705Y-56223896D02*
X57751578Y-56187321D01*
X57751578Y-56187321D02*
X57797111Y-56156633D01*
X57797111Y-56156633D02*
X57908901Y-56146394D01*
X57908901Y-56146394D02*
X58049732Y-56154942D01*
X58049732Y-56154942D02*
X58182392Y-56180613D01*
X58182392Y-56180613D02*
X58253597Y-56209765D01*
X58253597Y-56209765D02*
X58376624Y-56245515D01*
X58376624Y-56245515D02*
X58484804Y-56215718D01*
X58484804Y-56215718D02*
X58542988Y-56135269D01*
X58542988Y-56135269D02*
X58543560Y-56086887D01*
X58543560Y-56086887D02*
X58484700Y-56009358D01*
X58484700Y-56009358D02*
X58372428Y-55972373D01*
X58372428Y-55972373D02*
X58254056Y-55987089D01*
X58254056Y-55987089D02*
X58215980Y-56009638D01*
X58215980Y-56009638D02*
X58127712Y-56040794D01*
X58127712Y-56040794D02*
X57989541Y-56055119D01*
X57989541Y-56055119D02*
X57847084Y-56051899D01*
X57847084Y-56051899D02*
X57745956Y-56030420D01*
X57745956Y-56030420D02*
X57727824Y-56017284D01*
X57727824Y-56017284D02*
X57718486Y-55935030D01*
X57718486Y-55935030D02*
X57789843Y-55858301D01*
X57789843Y-55858301D02*
X57889132Y-55819722D01*
X57889132Y-55819722D02*
X57987450Y-55784589D01*
X57987450Y-55784589D02*
X58018947Y-55750200D01*
X58018947Y-55750200D02*
X58051507Y-55708989D01*
X58051507Y-55708989D02*
X58125615Y-55720720D01*
X58125615Y-55720720D02*
X58205913Y-55777576D01*
X58205913Y-55777576D02*
X58220432Y-55794750D01*
X58220432Y-55794750D02*
X58330690Y-55867969D01*
X58330690Y-55867969D02*
X58475091Y-55872669D01*
X58475091Y-55872669D02*
X58616315Y-55809833D01*
X58616315Y-55809833D02*
X58655774Y-55784613D01*
X58655774Y-55784613D02*
X58682886Y-55785625D01*
X58682886Y-55785625D02*
X58699963Y-55824884D01*
X58699963Y-55824884D02*
X58709317Y-55914401D01*
X58709317Y-55914401D02*
X58713259Y-56066190D01*
X58713259Y-56066190D02*
X58714102Y-56292263D01*
X58714102Y-56292263D02*
X58714105Y-56317940D01*
X58714105Y-56317940D02*
X58932279Y-56317940D01*
X58932279Y-56317940D02*
X58944243Y-56204456D01*
X58944243Y-56204456D02*
X58947687Y-56177352D01*
X58947687Y-56177352D02*
X58991230Y-55975861D01*
X58991230Y-55975861D02*
X59065908Y-55839319D01*
X59065908Y-55839319D02*
X59102033Y-55802119D01*
X59102033Y-55802119D02*
X59222105Y-55694984D01*
X59222105Y-55694984D02*
X59075052Y-55723841D01*
X59075052Y-55723841D02*
X58971445Y-55734077D01*
X58971445Y-55734077D02*
X58925285Y-55699226D01*
X58925285Y-55699226D02*
X58921291Y-55601853D01*
X58921291Y-55601853D02*
X58926465Y-55554303D01*
X58926465Y-55554303D02*
X58958973Y-55455137D01*
X58958973Y-55455137D02*
X59037628Y-55411804D01*
X59037628Y-55411804D02*
X59181909Y-55418035D01*
X59181909Y-55418035D02*
X59287015Y-55438274D01*
X59287015Y-55438274D02*
X59480486Y-55486908D01*
X59480486Y-55486908D02*
X59662210Y-55542493D01*
X59662210Y-55542493D02*
X59710411Y-55559965D01*
X59710411Y-55559965D02*
X59820708Y-55608076D01*
X59820708Y-55608076D02*
X59846803Y-55647197D01*
X59846803Y-55647197D02*
X59802977Y-55702431D01*
X59802977Y-55702431D02*
X59795542Y-55709574D01*
X59795542Y-55709574D02*
X59727442Y-55765462D01*
X59727442Y-55765462D02*
X59674038Y-55757867D01*
X59674038Y-55757867D02*
X59610383Y-55706176D01*
X59610383Y-55706176D02*
X59519671Y-55641748D01*
X59519671Y-55641748D02*
X59460653Y-55619879D01*
X59460653Y-55619879D02*
X59415935Y-55584137D01*
X59415935Y-55584137D02*
X59409263Y-55549625D01*
X59409263Y-55549625D02*
X59375996Y-55499775D01*
X59375996Y-55499775D02*
X59335568Y-55502491D01*
X59335568Y-55502491D02*
X59236761Y-55496128D01*
X59236761Y-55496128D02*
X59201884Y-55476566D01*
X59201884Y-55476566D02*
X59154933Y-55458578D01*
X59154933Y-55458578D02*
X59141894Y-55516816D01*
X59141894Y-55516816D02*
X59193211Y-55606768D01*
X59193211Y-55606768D02*
X59329052Y-55688513D01*
X59329052Y-55688513D02*
X59453670Y-55757051D01*
X59453670Y-55757051D02*
X59514409Y-55816494D01*
X59514409Y-55816494D02*
X59506434Y-55852250D01*
X59506434Y-55852250D02*
X59424912Y-55849724D01*
X59424912Y-55849724D02*
X59378290Y-55837151D01*
X59378290Y-55837151D02*
X59221157Y-55817769D01*
X59221157Y-55817769D02*
X59151027Y-55835159D01*
X59151027Y-55835159D02*
X59102569Y-55867900D01*
X59102569Y-55867900D02*
X59138345Y-55897525D01*
X59138345Y-55897525D02*
X59212218Y-55922829D01*
X59212218Y-55922829D02*
X59332562Y-55956358D01*
X59332562Y-55956358D02*
X59403772Y-55969621D01*
X59403772Y-55969621D02*
X59444218Y-56007057D01*
X59444218Y-56007057D02*
X59493021Y-56099860D01*
X59493021Y-56099860D02*
X59504342Y-56128251D01*
X59504342Y-56128251D02*
X59563891Y-56286881D01*
X59563891Y-56286881D02*
X59319726Y-56259520D01*
X59319726Y-56259520D02*
X59175331Y-56246396D01*
X59175331Y-56246396D02*
X59117726Y-56253112D01*
X59117726Y-56253112D02*
X59128538Y-56283605D01*
X59128538Y-56283605D02*
X59142012Y-56297620D01*
X59142012Y-56297620D02*
X59245331Y-56349541D01*
X59245331Y-56349541D02*
X59337317Y-56363081D01*
X59337317Y-56363081D02*
X59494395Y-56382708D01*
X59494395Y-56382708D02*
X59662154Y-56431950D01*
X59662154Y-56431950D02*
X59801123Y-56496351D01*
X59801123Y-56496351D02*
X59870523Y-56558393D01*
X59870523Y-56558393D02*
X59877044Y-56653726D01*
X59877044Y-56653726D02*
X59990338Y-56653726D01*
X59990338Y-56653726D02*
X59997473Y-56620034D01*
X59997473Y-56620034D02*
X60014548Y-56530301D01*
X60014548Y-56530301D02*
X60054223Y-56494234D01*
X60054223Y-56494234D02*
X60085877Y-56534623D01*
X60085877Y-56534623D02*
X60081286Y-56652522D01*
X60081286Y-56652522D02*
X60074889Y-56690964D01*
X60074889Y-56690964D02*
X60066954Y-56815208D01*
X60066954Y-56815208D02*
X60089492Y-56883784D01*
X60089492Y-56883784D02*
X60130069Y-56887198D01*
X60130069Y-56887198D02*
X60176254Y-56815958D01*
X60176254Y-56815958D02*
X60189409Y-56778399D01*
X60189409Y-56778399D02*
X60236735Y-56688978D01*
X60236735Y-56688978D02*
X60290018Y-56676872D01*
X60290018Y-56676872D02*
X60332986Y-56745611D01*
X60332986Y-56745611D02*
X60355331Y-56790174D01*
X60355331Y-56790174D02*
X60386159Y-56759043D01*
X60386159Y-56759043D02*
X60405538Y-56722408D01*
X60405538Y-56722408D02*
X60455577Y-56622698D01*
X60455577Y-56622698D02*
X60614209Y-56758534D01*
X60614209Y-56758534D02*
X60772842Y-56894370D01*
X60772842Y-56894370D02*
X60864303Y-56894370D01*
X60864303Y-56894370D02*
X60853765Y-56869680D01*
X60853765Y-56869680D02*
X60771765Y-56687931D01*
X60771765Y-56687931D02*
X60693086Y-56529553D01*
X60693086Y-56529553D02*
X60635699Y-56428657D01*
X60635699Y-56428657D02*
X60434684Y-56428657D01*
X60434684Y-56428657D02*
X60296354Y-56297504D01*
X60296354Y-56297504D02*
X60207486Y-56201021D01*
X60207486Y-56201021D02*
X60160280Y-56125942D01*
X60160280Y-56125942D02*
X60157960Y-56114284D01*
X60157960Y-56114284D02*
X60118908Y-56044470D01*
X60118908Y-56044470D02*
X60104421Y-56035198D01*
X60104421Y-56035198D02*
X60060304Y-56040576D01*
X60060304Y-56040576D02*
X60048840Y-56101862D01*
X60048840Y-56101862D02*
X60065633Y-56192939D01*
X60065633Y-56192939D02*
X60106289Y-56287693D01*
X60106289Y-56287693D02*
X60157894Y-56353009D01*
X60157894Y-56353009D02*
X60236896Y-56432668D01*
X60236896Y-56432668D02*
X60262903Y-56479409D01*
X60262903Y-56479409D02*
X60231465Y-56478715D01*
X60231465Y-56478715D02*
X60188598Y-56453208D01*
X60188598Y-56453208D02*
X60088105Y-56414500D01*
X60088105Y-56414500D02*
X60041546Y-56413289D01*
X60041546Y-56413289D02*
X59944747Y-56400445D01*
X59944747Y-56400445D02*
X59858981Y-56366087D01*
X59858981Y-56366087D02*
X59747225Y-56307072D01*
X59747225Y-56307072D02*
X59858981Y-56138707D01*
X59858981Y-56138707D02*
X59941254Y-56035791D01*
X59941254Y-56035791D02*
X60016028Y-55976034D01*
X60016028Y-55976034D02*
X60037578Y-55969982D01*
X60037578Y-55969982D02*
X60099602Y-55935944D01*
X60099602Y-55935944D02*
X60104421Y-55915968D01*
X60104421Y-55915968D02*
X60125829Y-55887763D01*
X60125829Y-55887763D02*
X60179517Y-55919419D01*
X60179517Y-55919419D02*
X60249674Y-55992699D01*
X60249674Y-55992699D02*
X60320493Y-56089366D01*
X60320493Y-56089366D02*
X60376166Y-56191182D01*
X60376166Y-56191182D02*
X60397248Y-56253786D01*
X60397248Y-56253786D02*
X60434684Y-56428657D01*
X60434684Y-56428657D02*
X60635699Y-56428657D01*
X60635699Y-56428657D02*
X60630036Y-56418702D01*
X60630036Y-56418702D02*
X60609383Y-56389987D01*
X60609383Y-56389987D02*
X60547657Y-56273333D01*
X60547657Y-56273333D02*
X60532210Y-56188828D01*
X60532210Y-56188828D02*
X60493365Y-56063899D01*
X60493365Y-56063899D02*
X60391095Y-55909646D01*
X60391095Y-55909646D02*
X60278378Y-55784940D01*
X60278378Y-55784940D02*
X60144010Y-55784940D01*
X60144010Y-55784940D02*
X60056583Y-55774330D01*
X60056583Y-55774330D02*
X60050947Y-55772891D01*
X60050947Y-55772891D02*
X59963755Y-55772751D01*
X59963755Y-55772751D02*
X59947030Y-55811140D01*
X59947030Y-55811140D02*
X60010842Y-55853232D01*
X60010842Y-55853232D02*
X60020739Y-55871124D01*
X60020739Y-55871124D02*
X59960829Y-55878734D01*
X59960829Y-55878734D02*
X59858640Y-55914238D01*
X59858640Y-55914238D02*
X59781984Y-56022586D01*
X59781984Y-56022586D02*
X59777327Y-56032870D01*
X59777327Y-56032870D02*
X59717150Y-56129040D01*
X59717150Y-56129040D02*
X59661153Y-56158959D01*
X59661153Y-56158959D02*
X59626867Y-56117437D01*
X59626867Y-56117437D02*
X59623157Y-56078508D01*
X59623157Y-56078508D02*
X59664154Y-56004228D01*
X59664154Y-56004228D02*
X59696123Y-55982723D01*
X59696123Y-55982723D02*
X59768304Y-55922120D01*
X59768304Y-55922120D02*
X59848763Y-55819894D01*
X59848763Y-55819894D02*
X59858382Y-55804946D01*
X59858382Y-55804946D02*
X59926464Y-55713161D01*
X59926464Y-55713161D02*
X59987546Y-55688648D01*
X59987546Y-55688648D02*
X60052784Y-55708119D01*
X60052784Y-55708119D02*
X60142859Y-55758811D01*
X60142859Y-55758811D02*
X60144010Y-55784940D01*
X60144010Y-55784940D02*
X60278378Y-55784940D01*
X60278378Y-55784940D02*
X60246797Y-55750000D01*
X60246797Y-55750000D02*
X60081870Y-55608892D01*
X60081870Y-55608892D02*
X59930792Y-55516241D01*
X59930792Y-55516241D02*
X59762118Y-55448326D01*
X59762118Y-55448326D02*
X59551666Y-55379584D01*
X59551666Y-55379584D02*
X59336037Y-55320287D01*
X59336037Y-55320287D02*
X59151831Y-55280710D01*
X59151831Y-55280710D02*
X59054061Y-55270138D01*
X59054061Y-55270138D02*
X58956529Y-55305539D01*
X58956529Y-55305539D02*
X58854762Y-55389932D01*
X58854762Y-55389932D02*
X58782605Y-55490605D01*
X58782605Y-55490605D02*
X58767579Y-55547071D01*
X58767579Y-55547071D02*
X58759775Y-55596392D01*
X58759775Y-55596392D02*
X58723042Y-55588165D01*
X58723042Y-55588165D02*
X58637393Y-55517802D01*
X58637393Y-55517802D02*
X58636448Y-55516969D01*
X58636448Y-55516969D02*
X58498796Y-55424014D01*
X58498796Y-55424014D02*
X58374885Y-55413138D01*
X58374885Y-55413138D02*
X58242667Y-55484403D01*
X58242667Y-55484403D02*
X58202163Y-55518194D01*
X58202163Y-55518194D02*
X58101584Y-55592169D01*
X58101584Y-55592169D02*
X58033120Y-55599631D01*
X58033120Y-55599631D02*
X58006864Y-55583770D01*
X58006864Y-55583770D02*
X57905411Y-55539583D01*
X57905411Y-55539583D02*
X57796495Y-55539726D01*
X57796495Y-55539726D02*
X57729085Y-55583618D01*
X57729085Y-55583618D02*
X57727630Y-55587091D01*
X57727630Y-55587091D02*
X57701219Y-55668993D01*
X57701219Y-55668993D02*
X57674815Y-55761962D01*
X57674815Y-55761962D02*
X57635628Y-55860226D01*
X57635628Y-55860226D02*
X57599554Y-55879564D01*
X57599554Y-55879564D02*
X57575844Y-55828339D01*
X57575844Y-55828339D02*
X57573749Y-55714915D01*
X57573749Y-55714915D02*
X57578113Y-55674527D01*
X57578113Y-55674527D02*
X57605406Y-55466867D01*
X57605406Y-55466867D02*
X57473636Y-55565911D01*
X57473636Y-55565911D02*
X57341866Y-55664954D01*
X57341866Y-55664954D02*
X57239249Y-55571769D01*
X57239249Y-55571769D02*
X57078277Y-55458578D01*
X57078277Y-55458578D02*
X56867204Y-55353062D01*
X56867204Y-55353062D02*
X56644849Y-55271275D01*
X56644849Y-55271275D02*
X56450033Y-55229275D01*
X56450033Y-55229275D02*
X56405261Y-55226830D01*
X56405261Y-55226830D02*
X56265654Y-55239951D01*
X56265654Y-55239951D02*
X56154169Y-55292776D01*
X56154169Y-55292776D02*
X56042504Y-55390361D01*
X56042504Y-55390361D02*
X55935854Y-55510021D01*
X55935854Y-55510021D02*
X55860294Y-55620947D01*
X55860294Y-55620947D02*
X55844441Y-55656628D01*
X55844441Y-55656628D02*
X55843668Y-55807993D01*
X55843668Y-55807993D02*
X55912745Y-56003717D01*
X55912745Y-56003717D02*
X56042265Y-56229451D01*
X56042265Y-56229451D02*
X56222822Y-56470846D01*
X56222822Y-56470846D02*
X56445011Y-56713553D01*
X56445011Y-56713553D02*
X56674111Y-56922343D01*
X56674111Y-56922343D02*
X56834780Y-57059049D01*
X56834780Y-57059049D02*
X56930282Y-57151573D01*
X56930282Y-57151573D02*
X56972495Y-57216378D01*
X56972495Y-57216378D02*
X56973291Y-57269927D01*
X56973291Y-57269927D02*
X56954620Y-57311235D01*
X56954620Y-57311235D02*
X56895950Y-57380923D01*
X56895950Y-57380923D02*
X56847124Y-57392771D01*
X56847124Y-57392771D02*
X56760117Y-57385241D01*
X56760117Y-57385241D02*
X56713667Y-57394983D01*
X56713667Y-57394983D02*
X56650267Y-57454044D01*
X56650267Y-57454044D02*
X56629498Y-57548602D01*
X56629498Y-57548602D02*
X56656989Y-57632681D01*
X56656989Y-57632681D02*
X56682105Y-57652754D01*
X56682105Y-57652754D02*
X56725212Y-57708627D01*
X56725212Y-57708627D02*
X56732818Y-57786160D01*
X56732818Y-57786160D02*
X56704925Y-57842472D01*
X56704925Y-57842472D02*
X56682105Y-57849483D01*
X56682105Y-57849483D02*
X56644236Y-57887405D01*
X56644236Y-57887405D02*
X56628631Y-57977733D01*
X56628631Y-57977733D02*
X56645907Y-58072390D01*
X56645907Y-58072390D02*
X56718559Y-58112051D01*
X56718559Y-58112051D02*
X56775684Y-58119815D01*
X56775684Y-58119815D02*
X56884026Y-58146945D01*
X56884026Y-58146945D02*
X56907127Y-58207788D01*
X56907127Y-58207788D02*
X56906036Y-58213671D01*
X56906036Y-58213671D02*
X56920911Y-58311017D01*
X56920911Y-58311017D02*
X56964292Y-58388542D01*
X56964292Y-58388542D02*
X57038749Y-58519144D01*
X57038749Y-58519144D02*
X57078744Y-58662151D01*
X57078744Y-58662151D02*
X57077912Y-58784377D01*
X57077912Y-58784377D02*
X57050632Y-58838834D01*
X57050632Y-58838834D02*
X57014494Y-58929123D01*
X57014494Y-58929123D02*
X57072101Y-59015934D01*
X57072101Y-59015934D02*
X57186658Y-59072509D01*
X57186658Y-59072509D02*
X57311673Y-59156526D01*
X57311673Y-59156526D02*
X57364908Y-59257653D01*
X57364908Y-59257653D02*
X57421298Y-59365500D01*
X57421298Y-59365500D02*
X57516539Y-59410647D01*
X57516539Y-59410647D02*
X57547311Y-59414757D01*
X57547311Y-59414757D02*
X57674532Y-59399101D01*
X57674532Y-59399101D02*
X57718933Y-59354569D01*
X57718933Y-59354569D02*
X57716234Y-59258208D01*
X57716234Y-59258208D02*
X57636028Y-59184063D01*
X57636028Y-59184063D02*
X57533018Y-59161015D01*
X57533018Y-59161015D02*
X57428564Y-59123826D01*
X57428564Y-59123826D02*
X57363153Y-59037886D01*
X57363153Y-59037886D02*
X57363239Y-58950826D01*
X57363239Y-58950826D02*
X57350932Y-58876209D01*
X57350932Y-58876209D02*
X57306706Y-58819673D01*
X57306706Y-58819673D02*
X57229750Y-58717430D01*
X57229750Y-58717430D02*
X57194799Y-58636403D01*
X57194799Y-58636403D02*
X57191558Y-58556100D01*
X57191558Y-58556100D02*
X57249230Y-58490121D01*
X57249230Y-58490121D02*
X57354676Y-58428790D01*
X57354676Y-58428790D02*
X57494476Y-58367810D01*
X57494476Y-58367810D02*
X57593730Y-58359176D01*
X57593730Y-58359176D02*
X57652947Y-58377735D01*
X57652947Y-58377735D02*
X57729701Y-58436955D01*
X57729701Y-58436955D02*
X57728226Y-58531413D01*
X57728226Y-58531413D02*
X57725991Y-58538930D01*
X57725991Y-58538930D02*
X57669480Y-58644046D01*
X57669480Y-58644046D02*
X57608534Y-58702169D01*
X57608534Y-58702169D02*
X57547114Y-58782846D01*
X57547114Y-58782846D02*
X57567729Y-58877553D01*
X57567729Y-58877553D02*
X57661425Y-58954369D01*
X57661425Y-58954369D02*
X57681558Y-58962494D01*
X57681558Y-58962494D02*
X57804511Y-59045003D01*
X57804511Y-59045003D02*
X57880547Y-59167006D01*
X57880547Y-59167006D02*
X57886066Y-59289781D01*
X57886066Y-59289781D02*
X57884181Y-59294956D01*
X57884181Y-59294956D02*
X57897761Y-59385795D01*
X57897761Y-59385795D02*
X57979822Y-59477496D01*
X57979822Y-59477496D02*
X58098182Y-59541393D01*
X58098182Y-59541393D02*
X58175548Y-59554475D01*
X58175548Y-59554475D02*
X58316154Y-59515577D01*
X58316154Y-59515577D02*
X58416477Y-59417542D01*
X58416477Y-59417542D02*
X58446736Y-59311913D01*
X58446736Y-59311913D02*
X58399924Y-59205383D01*
X58399924Y-59205383D02*
X58286130Y-59122487D01*
X58286130Y-59122487D02*
X58145322Y-59086870D01*
X58145322Y-59086870D02*
X58078296Y-59093914D01*
X58078296Y-59093914D02*
X57971341Y-59088826D01*
X57971341Y-59088826D02*
X57915256Y-59034837D01*
X57915256Y-59034837D02*
X57870080Y-58955678D01*
X57870080Y-58955678D02*
X57858526Y-58922609D01*
X57858526Y-58922609D02*
X57900418Y-58909808D01*
X57900418Y-58909808D02*
X58000424Y-58925209D01*
X58000424Y-58925209D02*
X58120037Y-58959528D01*
X58120037Y-58959528D02*
X58220751Y-59003480D01*
X58220751Y-59003480D02*
X58237052Y-59013875D01*
X58237052Y-59013875D02*
X58356367Y-59069010D01*
X58356367Y-59069010D02*
X58458553Y-59042236D01*
X58458553Y-59042236D02*
X58503814Y-59004453D01*
X58503814Y-59004453D02*
X58546488Y-58929031D01*
X58546488Y-58929031D02*
X58510361Y-58852034D01*
X58510361Y-58852034D02*
X58473649Y-58761216D01*
X58473649Y-58761216D02*
X58450869Y-58622410D01*
X58450869Y-58622410D02*
X58447154Y-58538631D01*
X58447154Y-58538631D02*
X58450891Y-58459132D01*
X58450891Y-58459132D02*
X58341003Y-58459132D01*
X58341003Y-58459132D02*
X58333058Y-58596352D01*
X58333058Y-58596352D02*
X58312357Y-58720058D01*
X58312357Y-58720058D02*
X58281066Y-58797077D01*
X58281066Y-58797077D02*
X58275621Y-58802530D01*
X58275621Y-58802530D02*
X58148114Y-58851788D01*
X58148114Y-58851788D02*
X57994879Y-58821834D01*
X57994879Y-58821834D02*
X57913833Y-58777561D01*
X57913833Y-58777561D02*
X57830013Y-58693863D01*
X57830013Y-58693863D02*
X57831250Y-58588383D01*
X57831250Y-58588383D02*
X57833496Y-58580831D01*
X57833496Y-58580831D02*
X57882318Y-58494226D01*
X57882318Y-58494226D02*
X57940930Y-58461532D01*
X57940930Y-58461532D02*
X58013453Y-58425331D01*
X58013453Y-58425331D02*
X58043851Y-58378816D01*
X58043851Y-58378816D02*
X58107602Y-58309677D01*
X58107602Y-58309677D02*
X58207865Y-58266959D01*
X58207865Y-58266959D02*
X58296977Y-58268926D01*
X58296977Y-58268926D02*
X58309956Y-58276843D01*
X58309956Y-58276843D02*
X58334024Y-58341571D01*
X58334024Y-58341571D02*
X58341003Y-58459132D01*
X58341003Y-58459132D02*
X58450891Y-58459132D01*
X58450891Y-58459132D02*
X58453698Y-58399443D01*
X58453698Y-58399443D02*
X58481325Y-58320227D01*
X58481325Y-58320227D02*
X58542997Y-58273770D01*
X58542997Y-58273770D02*
X58580838Y-58257986D01*
X58580838Y-58257986D02*
X58714105Y-58207452D01*
X58714105Y-58207452D02*
X58714105Y-58685687D01*
X58714105Y-58685687D02*
X58716861Y-58907755D01*
X58716861Y-58907755D02*
X58728147Y-59066167D01*
X58728147Y-59066167D02*
X58752491Y-59184638D01*
X58752491Y-59184638D02*
X58794419Y-59286886D01*
X58794419Y-59286886D02*
X58846017Y-59376744D01*
X58846017Y-59376744D02*
X59006400Y-59584687D01*
X59006400Y-59584687D02*
X59185322Y-59712930D01*
X59185322Y-59712930D02*
X59394900Y-59769054D01*
X59394900Y-59769054D02*
X59479579Y-59773064D01*
X59479579Y-59773064D02*
X59617258Y-59763421D01*
X59617258Y-59763421D02*
X59728653Y-59723567D01*
X59728653Y-59723567D02*
X59851540Y-59637116D01*
X59851540Y-59637116D02*
X59913526Y-59584822D01*
X59913526Y-59584822D02*
X60073536Y-59455286D01*
X60073536Y-59455286D02*
X60242056Y-59332163D01*
X60242056Y-59332163D02*
X60324244Y-59278249D01*
X60324244Y-59278249D02*
X60517330Y-59159916D01*
X60517330Y-59159916D02*
X60873735Y-59296270D01*
X60873735Y-59296270D02*
X61132368Y-59382182D01*
X61132368Y-59382182D02*
X61329540Y-59416283D01*
X61329540Y-59416283D02*
X61415911Y-59414892D01*
X61415911Y-59414892D02*
X61601684Y-59397161D01*
X61601684Y-59397161D02*
X61601684Y-60822289D01*
X61601684Y-60822289D02*
X39944842Y-60822289D01*
X39944842Y-60822289D02*
X39944842Y-53477711D01*
X39944842Y-53477711D02*
X61601684Y-53477711D01*
X61601684Y-53477711D02*
X61815578Y-53477711D01*
X61815578Y-53477711D02*
X61815578Y-53346558D01*
X61815578Y-53346558D02*
X39784421Y-53346558D01*
X39784421Y-53346558D02*
X39784421Y-60953442D01*
G36*
X39784421Y-60953442D02*
G01*
X39784421Y-53477711D01*
X39944842Y-53477711D01*
X39944842Y-60822289D01*
X61601684Y-60822289D01*
X61601684Y-59397161D01*
X61415911Y-59414892D01*
X61329540Y-59416283D01*
X61132368Y-59382182D01*
X60873735Y-59296270D01*
X60517330Y-59159916D01*
X60324244Y-59278249D01*
X60242056Y-59332163D01*
X60073536Y-59455286D01*
X59913526Y-59584822D01*
X59851540Y-59637116D01*
X59728653Y-59723567D01*
X59617258Y-59763421D01*
X59479579Y-59773064D01*
X59394900Y-59769054D01*
X59185322Y-59712930D01*
X59006400Y-59584687D01*
X58846017Y-59376744D01*
X58794419Y-59286886D01*
X58752491Y-59184638D01*
X58728147Y-59066167D01*
X58717774Y-58920568D01*
X58954736Y-58920568D01*
X58957769Y-59123951D01*
X58958289Y-59143808D01*
X58994878Y-59323290D01*
X59102279Y-59478980D01*
X59170705Y-59543204D01*
X59275868Y-59617115D01*
X59368231Y-59659916D01*
X59425724Y-59662337D01*
X59426278Y-59615103D01*
X59427863Y-59574963D01*
X59511308Y-59554475D01*
X59590271Y-59532980D01*
X59726424Y-59473200D01*
X59893063Y-59388745D01*
X60065553Y-59293274D01*
X60219261Y-59200446D01*
X60329551Y-59123921D01*
X60371789Y-59077359D01*
X60365567Y-59046528D01*
X60299247Y-59012456D01*
X60153869Y-59030806D01*
X60076729Y-59046304D01*
X60012225Y-59038973D01*
X59997473Y-58983093D01*
X59988764Y-58935222D01*
X59948456Y-58898709D01*
X59890707Y-58925539D01*
X59878863Y-59001948D01*
X59926018Y-59099255D01*
X59955093Y-59140271D01*
X59960993Y-59186230D01*
X59963632Y-59206793D01*
X59897392Y-59285697D01*
X59815700Y-59342469D01*
X59703165Y-59351632D01*
X59643568Y-59344514D01*
X59560407Y-59394709D01*
X59492701Y-59441861D01*
X59366500Y-59465710D01*
X59301587Y-59463911D01*
X59263384Y-59451672D01*
X59315684Y-59419820D01*
X59392875Y-59365536D01*
X59396712Y-59313905D01*
X59312536Y-59292169D01*
X59233284Y-59279158D01*
X59112009Y-59227982D01*
X59060935Y-59195164D01*
X59486681Y-59195164D01*
X59552956Y-59212808D01*
X59676333Y-59222702D01*
X59790311Y-59215712D01*
X59836772Y-59186230D01*
X59786038Y-59140399D01*
X59772809Y-59135728D01*
X59688791Y-59132097D01*
X59584983Y-59145936D01*
X59503557Y-59169530D01*
X59486681Y-59195164D01*
X59060935Y-59195164D01*
X59055351Y-59191576D01*
X59044010Y-59167225D01*
X59125370Y-59162406D01*
X59200969Y-59153093D01*
X59275578Y-59117298D01*
X59306689Y-59094783D01*
X59406636Y-59073580D01*
X59406904Y-59073580D01*
X59514220Y-59044913D01*
X59652596Y-58973407D01*
X59790748Y-58880167D01*
X59897390Y-58786299D01*
X59941240Y-58712909D01*
X59934516Y-58672353D01*
X59920168Y-58660627D01*
X60806478Y-58660627D01*
X60832497Y-58717864D01*
X60933263Y-58794930D01*
X60996726Y-58834594D01*
X61168797Y-58927518D01*
X61352969Y-59013396D01*
X61504078Y-59077359D01*
X61612255Y-59123150D01*
X61470721Y-58912565D01*
X61411268Y-58830775D01*
X61267992Y-58659190D01*
X61119452Y-58505249D01*
X61026773Y-58420340D01*
X60951586Y-58362400D01*
X60917043Y-58360429D01*
X60908122Y-58407478D01*
X60902793Y-58437107D01*
X60894875Y-58481142D01*
X60839684Y-58596327D01*
X60806478Y-58660627D01*
X59920168Y-58660627D01*
X59890526Y-58636403D01*
X59877782Y-58637636D01*
X59837052Y-58679112D01*
X59836541Y-58685404D01*
X59778791Y-58751990D01*
X59644113Y-58816439D01*
X59459329Y-58868697D01*
X59251261Y-58898709D01*
X58954736Y-58920568D01*
X58717774Y-58920568D01*
X58716861Y-58907755D01*
X58714610Y-58726418D01*
X58928000Y-58726418D01*
X58940346Y-58774269D01*
X58994842Y-58805118D01*
X59209963Y-58784445D01*
X59440245Y-58757464D01*
X59591264Y-58729624D01*
X59679155Y-58696308D01*
X59720057Y-58652899D01*
X59730105Y-58594782D01*
X59741985Y-58549194D01*
X59810315Y-58489440D01*
X59847264Y-58470273D01*
X59865587Y-58439378D01*
X60553698Y-58439378D01*
X60557499Y-58503334D01*
X60570254Y-58517025D01*
X60643992Y-58548967D01*
X60645642Y-58548947D01*
X60709079Y-58512375D01*
X60735414Y-58437107D01*
X60708160Y-58369305D01*
X60674003Y-58356312D01*
X60604044Y-58380130D01*
X60553698Y-58439378D01*
X59865587Y-58439378D01*
X59890526Y-58397327D01*
X59896832Y-58365882D01*
X59944000Y-58330378D01*
X59992703Y-58313310D01*
X59991592Y-58308520D01*
X60157894Y-58308520D01*
X60163754Y-58313310D01*
X60184631Y-58330378D01*
X60196973Y-58320288D01*
X60326560Y-58320288D01*
X60373699Y-58329709D01*
X60396473Y-58328835D01*
X60501078Y-58305229D01*
X60555580Y-58263237D01*
X60532788Y-58221376D01*
X60474293Y-58216509D01*
X60381936Y-58259629D01*
X60359501Y-58278454D01*
X60335826Y-58308520D01*
X60326560Y-58320288D01*
X60196973Y-58320288D01*
X60211368Y-58308520D01*
X60184631Y-58286661D01*
X60157894Y-58308520D01*
X59991592Y-58308520D01*
X59982142Y-58267776D01*
X59908556Y-58224402D01*
X59835986Y-58224114D01*
X59727698Y-58269018D01*
X59629437Y-58343738D01*
X59569756Y-58425319D01*
X59577209Y-58490804D01*
X59579627Y-58493209D01*
X59601121Y-58537276D01*
X59529305Y-58548967D01*
X59462994Y-58558848D01*
X59355789Y-58614544D01*
X59262533Y-58666312D01*
X59145507Y-58676550D01*
X59061145Y-58635689D01*
X59007431Y-58608200D01*
X58952564Y-58643354D01*
X58928000Y-58726418D01*
X58714610Y-58726418D01*
X58714105Y-58685687D01*
X58714105Y-58207452D01*
X58580838Y-58257986D01*
X58542997Y-58273770D01*
X58481325Y-58320227D01*
X58453698Y-58399443D01*
X58450891Y-58459132D01*
X58447154Y-58538631D01*
X58450869Y-58622410D01*
X58473649Y-58761216D01*
X58510361Y-58852034D01*
X58546488Y-58929031D01*
X58503814Y-59004453D01*
X58458553Y-59042236D01*
X58356367Y-59069010D01*
X58237052Y-59013875D01*
X58220751Y-59003480D01*
X58120037Y-58959528D01*
X58000424Y-58925209D01*
X57900418Y-58909808D01*
X57858526Y-58922609D01*
X57870080Y-58955678D01*
X57915256Y-59034837D01*
X57971341Y-59088826D01*
X58078296Y-59093914D01*
X58145322Y-59086870D01*
X58286130Y-59122487D01*
X58399924Y-59205383D01*
X58446736Y-59311913D01*
X58416477Y-59417542D01*
X58316154Y-59515577D01*
X58175548Y-59554475D01*
X58098182Y-59541393D01*
X57979822Y-59477496D01*
X57897761Y-59385795D01*
X57884181Y-59294956D01*
X57886066Y-59289781D01*
X57880547Y-59167006D01*
X57804511Y-59045003D01*
X57681558Y-58962494D01*
X57661425Y-58954369D01*
X57567729Y-58877553D01*
X57547114Y-58782846D01*
X57608534Y-58702169D01*
X57617243Y-58693863D01*
X57830013Y-58693863D01*
X57913833Y-58777561D01*
X57994879Y-58821834D01*
X58148114Y-58851788D01*
X58275621Y-58802530D01*
X58281066Y-58797077D01*
X58312357Y-58720058D01*
X58333058Y-58596352D01*
X58341003Y-58459132D01*
X58334024Y-58341571D01*
X58309956Y-58276843D01*
X58296977Y-58268926D01*
X58207865Y-58266959D01*
X58107602Y-58309677D01*
X58043851Y-58378816D01*
X58013453Y-58425331D01*
X57940930Y-58461532D01*
X57882318Y-58494226D01*
X57833496Y-58580831D01*
X57831250Y-58588383D01*
X57830013Y-58693863D01*
X57617243Y-58693863D01*
X57669480Y-58644046D01*
X57725991Y-58538930D01*
X57728226Y-58531413D01*
X57729701Y-58436955D01*
X57652947Y-58377735D01*
X57593730Y-58359176D01*
X57494476Y-58367810D01*
X57354676Y-58428790D01*
X57249230Y-58490121D01*
X57191558Y-58556100D01*
X57194799Y-58636403D01*
X57229750Y-58717430D01*
X57306706Y-58819673D01*
X57350932Y-58876209D01*
X57363239Y-58950826D01*
X57363153Y-59037886D01*
X57428564Y-59123826D01*
X57533018Y-59161015D01*
X57636028Y-59184063D01*
X57716234Y-59258208D01*
X57718933Y-59354569D01*
X57674532Y-59399101D01*
X57547311Y-59414757D01*
X57516539Y-59410647D01*
X57421298Y-59365500D01*
X57364908Y-59257653D01*
X57311673Y-59156526D01*
X57186658Y-59072509D01*
X57072101Y-59015934D01*
X57014494Y-58929123D01*
X57050632Y-58838834D01*
X57077912Y-58784377D01*
X57078744Y-58662151D01*
X57038749Y-58519144D01*
X56964292Y-58388542D01*
X56920911Y-58311017D01*
X56906036Y-58213671D01*
X56907127Y-58207788D01*
X56884026Y-58146945D01*
X56775684Y-58119815D01*
X56718559Y-58112051D01*
X56645907Y-58072390D01*
X56635726Y-58016609D01*
X56955628Y-58016609D01*
X56994810Y-58043559D01*
X57128309Y-58038849D01*
X57191973Y-58032377D01*
X57311768Y-58047298D01*
X57409046Y-58120427D01*
X57521162Y-58213953D01*
X57650978Y-58256415D01*
X57765009Y-58213227D01*
X57834569Y-58174953D01*
X57945866Y-58189050D01*
X58039430Y-58214417D01*
X58140415Y-58195117D01*
X58179368Y-58116244D01*
X58175488Y-58094953D01*
X58156422Y-58075103D01*
X58904384Y-58075103D01*
X58920898Y-58116244D01*
X58927855Y-58133576D01*
X58953954Y-58138682D01*
X58981473Y-58097188D01*
X58993093Y-58061889D01*
X59068128Y-58006523D01*
X59085834Y-58001465D01*
X59132727Y-58008128D01*
X59122332Y-58078352D01*
X59104267Y-58149382D01*
X59089151Y-58274359D01*
X59072401Y-58339708D01*
X59008210Y-58346188D01*
X58948303Y-58349992D01*
X58929295Y-58405012D01*
X58968924Y-58486579D01*
X58996653Y-58513573D01*
X59096403Y-58558163D01*
X59197130Y-58555837D01*
X59264875Y-58512572D01*
X59265679Y-58434346D01*
X59261146Y-58404893D01*
X59309963Y-58372913D01*
X59316760Y-58372362D01*
X59404666Y-58336270D01*
X59525356Y-58259962D01*
X59648776Y-58166078D01*
X59744869Y-58077259D01*
X59783578Y-58016145D01*
X59785143Y-58009604D01*
X59829940Y-58013405D01*
X59917263Y-58068072D01*
X59977509Y-58111476D01*
X60040338Y-58140320D01*
X60036573Y-58102712D01*
X59964586Y-58000957D01*
X59954279Y-57988808D01*
X59847147Y-57913230D01*
X59732746Y-57895438D01*
X59646111Y-57941924D01*
X59629668Y-57954374D01*
X59513847Y-57972248D01*
X59298490Y-57961900D01*
X59172932Y-57951604D01*
X59046107Y-57950512D01*
X58975445Y-57971675D01*
X58930969Y-58019818D01*
X58904384Y-58075103D01*
X58156422Y-58075103D01*
X58103783Y-58020299D01*
X57966181Y-57959290D01*
X57794924Y-57923111D01*
X57622253Y-57922950D01*
X57602073Y-57925346D01*
X57459025Y-57927412D01*
X57364347Y-57904950D01*
X57284108Y-57886524D01*
X57123263Y-57921274D01*
X57011200Y-57968227D01*
X56955628Y-58016609D01*
X56635726Y-58016609D01*
X56628631Y-57977733D01*
X56644236Y-57887405D01*
X56682105Y-57849483D01*
X56704925Y-57842472D01*
X56732818Y-57786160D01*
X56727591Y-57732878D01*
X56856140Y-57732878D01*
X56860479Y-57824675D01*
X56862901Y-57829732D01*
X56906033Y-57881339D01*
X56978636Y-57881151D01*
X57109576Y-57829757D01*
X57205164Y-57764605D01*
X57274113Y-57667364D01*
X57283949Y-57576796D01*
X57258495Y-57457769D01*
X57216361Y-57386237D01*
X57351393Y-57386237D01*
X57356299Y-57430701D01*
X57411398Y-57476055D01*
X57532710Y-57499742D01*
X57639539Y-57508874D01*
X57727515Y-57536869D01*
X57772993Y-57550049D01*
X57889627Y-57536046D01*
X58023414Y-57491204D01*
X58133585Y-57430630D01*
X58179368Y-57369432D01*
X58178968Y-57361338D01*
X58126854Y-57265382D01*
X58016731Y-57184209D01*
X57890905Y-57150000D01*
X57830603Y-57144230D01*
X57703235Y-57108527D01*
X57661681Y-57094100D01*
X57529987Y-57086327D01*
X57422023Y-57124877D01*
X57377263Y-57198816D01*
X57384649Y-57244693D01*
X57420516Y-57281153D01*
X57471827Y-57296674D01*
X57567569Y-57348790D01*
X57570417Y-57350647D01*
X57629832Y-57393840D01*
X57609746Y-57404235D01*
X57497631Y-57389043D01*
X57412237Y-57378022D01*
X57351393Y-57386237D01*
X57216361Y-57386237D01*
X57202867Y-57363328D01*
X57130254Y-57324871D01*
X57060470Y-57359032D01*
X56995142Y-57445095D01*
X56944055Y-57545753D01*
X56882236Y-57660734D01*
X56856140Y-57732878D01*
X56727591Y-57732878D01*
X56725212Y-57708627D01*
X56682105Y-57652754D01*
X56656989Y-57632681D01*
X56629498Y-57548602D01*
X56650267Y-57454044D01*
X56713667Y-57394983D01*
X56760117Y-57385241D01*
X56847124Y-57392771D01*
X56895950Y-57380923D01*
X56954620Y-57311235D01*
X56973291Y-57269927D01*
X56972495Y-57216378D01*
X56930282Y-57151573D01*
X56834780Y-57059049D01*
X56674111Y-56922343D01*
X56445011Y-56713553D01*
X56222822Y-56470846D01*
X56042265Y-56229451D01*
X55912745Y-56003717D01*
X55843668Y-55807993D01*
X55844225Y-55698848D01*
X56162614Y-55698848D01*
X56180116Y-55781529D01*
X56229764Y-55903921D01*
X56336976Y-56099556D01*
X56479952Y-56321208D01*
X56642859Y-56544639D01*
X56809865Y-56745611D01*
X56837871Y-56776486D01*
X56953505Y-56899714D01*
X57040937Y-56986209D01*
X57083047Y-57018847D01*
X57093997Y-57015392D01*
X57107443Y-56958349D01*
X57086840Y-56848041D01*
X57062277Y-56780234D01*
X57189719Y-56780234D01*
X57208941Y-56884721D01*
X57213263Y-56900855D01*
X57253874Y-56999156D01*
X57298427Y-57045237D01*
X57339446Y-57046311D01*
X57447224Y-57017785D01*
X57547158Y-56966034D01*
X57591157Y-56912813D01*
X57565067Y-56878885D01*
X57476554Y-56820476D01*
X57360490Y-56761859D01*
X57253918Y-56721290D01*
X57193879Y-56717023D01*
X57191607Y-56720018D01*
X57189719Y-56780234D01*
X57062277Y-56780234D01*
X57035518Y-56706365D01*
X57024363Y-56674347D01*
X57417520Y-56674347D01*
X57477606Y-56706391D01*
X57598441Y-56742198D01*
X57734662Y-56717119D01*
X57839704Y-56697136D01*
X57983120Y-56723614D01*
X58096165Y-56797687D01*
X58153515Y-56900403D01*
X58150901Y-56912813D01*
X58129843Y-57012814D01*
X58119657Y-57030026D01*
X58115465Y-57103170D01*
X58194804Y-57183321D01*
X58302376Y-57247438D01*
X58420000Y-57288317D01*
X58492635Y-57318414D01*
X58511161Y-57369432D01*
X58526947Y-57412905D01*
X58518333Y-57475618D01*
X58466156Y-57514541D01*
X58338795Y-57526176D01*
X58313947Y-57527210D01*
X58138870Y-57554358D01*
X58069480Y-57576796D01*
X57974556Y-57607491D01*
X57852713Y-57673862D01*
X57805052Y-57740725D01*
X57823101Y-57776369D01*
X57913162Y-57836132D01*
X58042387Y-57885133D01*
X58169445Y-57909211D01*
X58253004Y-57894205D01*
X58320612Y-57865534D01*
X58446736Y-57849483D01*
X58549944Y-57861548D01*
X58649936Y-57901945D01*
X58660456Y-57908767D01*
X58686315Y-57898086D01*
X58702815Y-57830981D01*
X58706926Y-57767980D01*
X58928000Y-57767980D01*
X58928211Y-57777403D01*
X58956335Y-57829925D01*
X59050403Y-57826033D01*
X59153684Y-57818977D01*
X59304403Y-57840334D01*
X59382421Y-57853800D01*
X59525488Y-57839890D01*
X59606993Y-57816695D01*
X59998278Y-57816695D01*
X60000759Y-57824751D01*
X60027137Y-57891583D01*
X60072874Y-58000965D01*
X60117995Y-58094988D01*
X60155893Y-58140320D01*
X60184316Y-58174319D01*
X60253851Y-58172809D01*
X60336822Y-58094065D01*
X60343709Y-58085416D01*
X60532210Y-58085416D01*
X60536017Y-58091846D01*
X60596090Y-58137826D01*
X60706000Y-58205470D01*
X60778327Y-58245197D01*
X60827816Y-58263237D01*
X60828959Y-58263654D01*
X60803976Y-58227919D01*
X60741532Y-58176093D01*
X60647807Y-58117756D01*
X60566750Y-58081614D01*
X60532210Y-58085416D01*
X60343709Y-58085416D01*
X60347897Y-58080157D01*
X60391201Y-58010067D01*
X60368852Y-57960003D01*
X60302540Y-57917240D01*
X60651917Y-57917240D01*
X60693196Y-58003052D01*
X60701365Y-58010067D01*
X60733206Y-58037412D01*
X60819307Y-58069484D01*
X60868511Y-58025794D01*
X60865900Y-57914033D01*
X60860424Y-57895277D01*
X60802013Y-57821510D01*
X60723025Y-57811366D01*
X60658234Y-57871899D01*
X60651917Y-57917240D01*
X60302540Y-57917240D01*
X60269169Y-57895720D01*
X60251392Y-57885621D01*
X60129321Y-57828556D01*
X60034766Y-57802609D01*
X59998278Y-57816695D01*
X59606993Y-57816695D01*
X59728437Y-57782134D01*
X59730116Y-57781573D01*
X59796125Y-57755044D01*
X60157894Y-57755044D01*
X60158225Y-57757160D01*
X60209329Y-57793859D01*
X60321050Y-57836945D01*
X60484206Y-57887294D01*
X60451611Y-57682588D01*
X60439999Y-57606098D01*
X60434594Y-57529148D01*
X60453590Y-57518920D01*
X60502350Y-57562745D01*
X60554407Y-57628377D01*
X60585684Y-57704827D01*
X60585913Y-57720032D01*
X60598763Y-57754674D01*
X60652589Y-57753093D01*
X60776557Y-57717175D01*
X60778443Y-57716589D01*
X60858284Y-57686422D01*
X60896574Y-57643953D01*
X60902456Y-57564391D01*
X60885072Y-57422949D01*
X60869121Y-57331975D01*
X60801476Y-57132641D01*
X60699119Y-57014235D01*
X60560870Y-56975129D01*
X60433125Y-56997334D01*
X60394814Y-57052921D01*
X60391278Y-57058052D01*
X60446878Y-57145373D01*
X60489152Y-57196664D01*
X60493362Y-57201772D01*
X60496678Y-57251912D01*
X60487730Y-57262517D01*
X60519694Y-57281153D01*
X60560621Y-57264457D01*
X60612421Y-57193718D01*
X60642751Y-57135465D01*
X60690507Y-57108576D01*
X60726279Y-57156104D01*
X60737297Y-57270224D01*
X60736976Y-57280893D01*
X60745787Y-57423876D01*
X60772539Y-57543459D01*
X60787415Y-57589681D01*
X60776476Y-57608630D01*
X60717871Y-57574906D01*
X60597791Y-57483793D01*
X60593820Y-57480699D01*
X60441214Y-57378039D01*
X60339372Y-57350198D01*
X60282510Y-57397833D01*
X60264842Y-57521601D01*
X60264694Y-57532680D01*
X60247788Y-57638233D01*
X60211368Y-57696471D01*
X60196172Y-57705455D01*
X60157894Y-57755044D01*
X59796125Y-57755044D01*
X59959504Y-57689382D01*
X60092970Y-57592520D01*
X60141068Y-57478780D01*
X60114355Y-57335961D01*
X60103966Y-57305258D01*
X60085761Y-57213361D01*
X60088651Y-57149117D01*
X60108940Y-57132327D01*
X60142934Y-57182788D01*
X60146312Y-57189313D01*
X60206236Y-57229746D01*
X60281387Y-57233606D01*
X60318315Y-57196664D01*
X60314817Y-57182402D01*
X60247076Y-57139218D01*
X60121846Y-57119538D01*
X59977200Y-57130721D01*
X59885182Y-57165088D01*
X59804156Y-57260046D01*
X59814824Y-57384289D01*
X59817375Y-57437276D01*
X59768356Y-57455269D01*
X59704045Y-57413201D01*
X59702269Y-57410958D01*
X59638865Y-57391092D01*
X59559412Y-57429030D01*
X59491504Y-57503971D01*
X59462736Y-57595113D01*
X59456020Y-57664524D01*
X59422933Y-57729353D01*
X59378836Y-57724060D01*
X59342604Y-57641378D01*
X59316731Y-57546327D01*
X59273858Y-57437505D01*
X59267886Y-57425638D01*
X59257994Y-57374333D01*
X59318056Y-57380948D01*
X59368328Y-57389130D01*
X59437443Y-57366679D01*
X59471243Y-57344023D01*
X59572840Y-57324871D01*
X59614014Y-57320711D01*
X59671104Y-57279603D01*
X59654544Y-57219331D01*
X59565757Y-57170840D01*
X59486554Y-57164231D01*
X59384386Y-57220890D01*
X59298495Y-57275637D01*
X59161050Y-57308739D01*
X59046406Y-57315828D01*
X58968105Y-57321319D01*
X58941841Y-57350511D01*
X58928000Y-57434165D01*
X58942370Y-57486256D01*
X58951083Y-57517844D01*
X59034947Y-57543459D01*
X59097156Y-57552440D01*
X59141894Y-57591270D01*
X59121736Y-57623433D01*
X59034947Y-57661945D01*
X58973394Y-57689980D01*
X58928000Y-57767980D01*
X58706926Y-57767980D01*
X58711548Y-57697141D01*
X58714105Y-57486256D01*
X58713966Y-57380692D01*
X58711526Y-57210674D01*
X58703409Y-57108219D01*
X58686266Y-57059753D01*
X58656746Y-57051703D01*
X58611500Y-57070493D01*
X58543496Y-57093506D01*
X58434534Y-57077707D01*
X58365887Y-57001029D01*
X58360237Y-56880612D01*
X58368890Y-56807338D01*
X58329311Y-56746307D01*
X58211501Y-56690127D01*
X57997980Y-56641880D01*
X57691812Y-56634080D01*
X57665068Y-56635124D01*
X57496733Y-56643615D01*
X57419056Y-56655056D01*
X57417520Y-56674347D01*
X57024363Y-56674347D01*
X57008862Y-56629854D01*
X57003349Y-56503506D01*
X57053636Y-56427576D01*
X57147583Y-56413920D01*
X57273047Y-56474396D01*
X57285511Y-56482856D01*
X57377333Y-56516447D01*
X57527048Y-56530948D01*
X57758521Y-56529044D01*
X58152631Y-56516093D01*
X57941983Y-56409048D01*
X57881673Y-56380755D01*
X57732170Y-56327650D01*
X57621141Y-56310552D01*
X57554200Y-56315064D01*
X57364331Y-56323472D01*
X57150170Y-56328691D01*
X56937944Y-56330600D01*
X56753881Y-56329082D01*
X56624210Y-56324017D01*
X56575157Y-56315288D01*
X56603730Y-56276551D01*
X56683694Y-56208893D01*
X56703156Y-56194383D01*
X56748315Y-56151255D01*
X56746167Y-56107691D01*
X56687569Y-56042990D01*
X56563378Y-55936448D01*
X56561618Y-55935030D01*
X57718486Y-55935030D01*
X57727824Y-56017284D01*
X57745956Y-56030420D01*
X57847084Y-56051899D01*
X57989541Y-56055119D01*
X58127712Y-56040794D01*
X58215980Y-56009638D01*
X58254056Y-55987089D01*
X58372428Y-55972373D01*
X58484700Y-56009358D01*
X58543560Y-56086887D01*
X58542988Y-56135269D01*
X58484804Y-56215718D01*
X58376624Y-56245515D01*
X58253597Y-56209765D01*
X58182392Y-56180613D01*
X58049732Y-56154942D01*
X57908901Y-56146394D01*
X57797111Y-56156633D01*
X57751578Y-56187321D01*
X57782705Y-56223896D01*
X57884810Y-56282075D01*
X58024600Y-56341659D01*
X58167176Y-56388087D01*
X58277637Y-56406798D01*
X58385290Y-56431353D01*
X58470669Y-56509595D01*
X58471203Y-56516093D01*
X58479112Y-56612360D01*
X58469250Y-56659735D01*
X58488062Y-56734681D01*
X58527170Y-56770489D01*
X58620526Y-56838399D01*
X58656758Y-56857075D01*
X58683261Y-56850809D01*
X58700050Y-56805980D01*
X58709323Y-56710370D01*
X58713275Y-56551763D01*
X58714105Y-56317940D01*
X58714102Y-56292263D01*
X58713259Y-56066190D01*
X58709317Y-55914401D01*
X58699963Y-55824884D01*
X58682886Y-55785625D01*
X58655774Y-55784613D01*
X58616315Y-55809833D01*
X58475091Y-55872669D01*
X58330690Y-55867969D01*
X58220432Y-55794750D01*
X58205913Y-55777576D01*
X58125615Y-55720720D01*
X58051507Y-55708989D01*
X58018947Y-55750200D01*
X57987450Y-55784589D01*
X57889132Y-55819722D01*
X57789843Y-55858301D01*
X57718486Y-55935030D01*
X56561618Y-55935030D01*
X56455705Y-55849697D01*
X56326985Y-55755192D01*
X56239225Y-55701660D01*
X56189992Y-55683057D01*
X56162614Y-55698848D01*
X55844225Y-55698848D01*
X55844441Y-55656628D01*
X55860294Y-55620947D01*
X55935854Y-55510021D01*
X56042504Y-55390361D01*
X56154169Y-55292776D01*
X56265654Y-55239951D01*
X56405261Y-55226830D01*
X56450033Y-55229275D01*
X56644849Y-55271275D01*
X56867204Y-55353062D01*
X57078277Y-55458578D01*
X57239249Y-55571769D01*
X57341866Y-55664954D01*
X57473636Y-55565911D01*
X57605406Y-55466867D01*
X57578113Y-55674527D01*
X57573749Y-55714915D01*
X57575844Y-55828339D01*
X57599554Y-55879564D01*
X57635628Y-55860226D01*
X57674815Y-55761962D01*
X57701219Y-55668993D01*
X57722870Y-55601853D01*
X58921291Y-55601853D01*
X58925285Y-55699226D01*
X58971445Y-55734077D01*
X59075052Y-55723841D01*
X59222105Y-55694984D01*
X59102033Y-55802119D01*
X59065908Y-55839319D01*
X58991230Y-55975861D01*
X58947687Y-56177352D01*
X58944243Y-56204456D01*
X58932279Y-56317940D01*
X58930032Y-56339254D01*
X58935205Y-56408153D01*
X58965726Y-56429351D01*
X59027559Y-56421045D01*
X59125909Y-56423320D01*
X59255062Y-56460930D01*
X59363646Y-56518627D01*
X59409263Y-56578880D01*
X59409123Y-56580508D01*
X59362264Y-56592406D01*
X59256727Y-56570721D01*
X59175654Y-56548521D01*
X59051638Y-56538588D01*
X58975987Y-56584892D01*
X58938256Y-56697461D01*
X58928000Y-56886321D01*
X58928000Y-57193718D01*
X59132982Y-57193718D01*
X59215754Y-57192356D01*
X59341198Y-57175642D01*
X59378469Y-57133482D01*
X59339779Y-57057851D01*
X59311610Y-56998292D01*
X59495634Y-56998292D01*
X59597552Y-57055031D01*
X59695942Y-57090295D01*
X59748620Y-57106282D01*
X59750347Y-57104632D01*
X59751159Y-57052921D01*
X59739968Y-56951269D01*
X59737768Y-56936082D01*
X59736954Y-56932397D01*
X59837052Y-56932397D01*
X59846872Y-56971643D01*
X59907775Y-56999986D01*
X60047518Y-57003550D01*
X60073206Y-57002222D01*
X60244472Y-56972189D01*
X60378348Y-56917792D01*
X60470556Y-56873212D01*
X60635776Y-56866483D01*
X60772842Y-56894370D01*
X60614209Y-56758534D01*
X60455577Y-56622698D01*
X60405538Y-56722408D01*
X60386159Y-56759043D01*
X60355331Y-56790174D01*
X60332986Y-56745611D01*
X60290018Y-56676872D01*
X60236735Y-56688978D01*
X60189409Y-56778399D01*
X60176254Y-56815958D01*
X60130069Y-56887198D01*
X60089492Y-56883784D01*
X60066954Y-56815208D01*
X60074889Y-56690964D01*
X60081286Y-56652522D01*
X60085877Y-56534623D01*
X60054223Y-56494234D01*
X60014548Y-56530301D01*
X59997473Y-56620034D01*
X59990338Y-56653726D01*
X59976592Y-56718638D01*
X59917263Y-56800258D01*
X59875671Y-56839819D01*
X59837052Y-56932397D01*
X59736954Y-56932397D01*
X59717629Y-56844964D01*
X59681230Y-56823685D01*
X59606584Y-56856645D01*
X59599499Y-56860525D01*
X59496152Y-56936325D01*
X59495634Y-56998292D01*
X59311610Y-56998292D01*
X59303787Y-56981752D01*
X59341419Y-56890259D01*
X59346719Y-56883247D01*
X59373394Y-56830486D01*
X59333637Y-56804508D01*
X59207230Y-56790246D01*
X59008210Y-56775103D01*
X59154748Y-56723346D01*
X59286889Y-56695977D01*
X59541725Y-56708312D01*
X59633878Y-56718711D01*
X59795221Y-56708506D01*
X59877044Y-56653726D01*
X59870523Y-56558393D01*
X59801123Y-56496351D01*
X59662154Y-56431950D01*
X59494395Y-56382708D01*
X59337317Y-56363081D01*
X59245331Y-56349541D01*
X59160821Y-56307072D01*
X59747225Y-56307072D01*
X59858981Y-56366087D01*
X59944747Y-56400445D01*
X60041546Y-56413289D01*
X60088105Y-56414500D01*
X60188598Y-56453208D01*
X60231465Y-56478715D01*
X60262903Y-56479409D01*
X60236896Y-56432668D01*
X60157894Y-56353009D01*
X60106289Y-56287693D01*
X60065633Y-56192939D01*
X60048840Y-56101862D01*
X60060304Y-56040576D01*
X60104421Y-56035198D01*
X60118908Y-56044470D01*
X60157960Y-56114284D01*
X60160280Y-56125942D01*
X60207486Y-56201021D01*
X60296354Y-56297504D01*
X60434684Y-56428657D01*
X60397248Y-56253786D01*
X60376166Y-56191182D01*
X60320493Y-56089366D01*
X60249674Y-55992699D01*
X60179517Y-55919419D01*
X60125829Y-55887763D01*
X60104421Y-55915968D01*
X60099602Y-55935944D01*
X60037578Y-55969982D01*
X60016028Y-55976034D01*
X59941254Y-56035791D01*
X59858981Y-56138707D01*
X59747225Y-56307072D01*
X59160821Y-56307072D01*
X59142012Y-56297620D01*
X59128538Y-56283605D01*
X59117726Y-56253112D01*
X59175331Y-56246396D01*
X59319726Y-56259520D01*
X59563891Y-56286881D01*
X59504342Y-56128251D01*
X59493021Y-56099860D01*
X59481792Y-56078508D01*
X59623157Y-56078508D01*
X59626867Y-56117437D01*
X59661153Y-56158959D01*
X59717150Y-56129040D01*
X59777327Y-56032870D01*
X59781984Y-56022586D01*
X59858640Y-55914238D01*
X59960829Y-55878734D01*
X60020739Y-55871124D01*
X60010842Y-55853232D01*
X59947030Y-55811140D01*
X59963755Y-55772751D01*
X60050947Y-55772891D01*
X60056583Y-55774330D01*
X60144010Y-55784940D01*
X60142859Y-55758811D01*
X60052784Y-55708119D01*
X59987546Y-55688648D01*
X59926464Y-55713161D01*
X59858382Y-55804946D01*
X59848763Y-55819894D01*
X59768304Y-55922120D01*
X59696123Y-55982723D01*
X59664154Y-56004228D01*
X59623157Y-56078508D01*
X59481792Y-56078508D01*
X59444218Y-56007057D01*
X59403772Y-55969621D01*
X59332562Y-55956358D01*
X59212218Y-55922829D01*
X59138345Y-55897525D01*
X59102569Y-55867900D01*
X59151027Y-55835159D01*
X59221157Y-55817769D01*
X59378290Y-55837151D01*
X59424912Y-55849724D01*
X59506434Y-55852250D01*
X59514409Y-55816494D01*
X59453670Y-55757051D01*
X59329052Y-55688513D01*
X59193211Y-55606768D01*
X59141894Y-55516816D01*
X59154933Y-55458578D01*
X59201884Y-55476566D01*
X59236761Y-55496128D01*
X59335568Y-55502491D01*
X59375996Y-55499775D01*
X59409263Y-55549625D01*
X59415935Y-55584137D01*
X59460653Y-55619879D01*
X59519671Y-55641748D01*
X59610383Y-55706176D01*
X59674038Y-55757867D01*
X59727442Y-55765462D01*
X59795542Y-55709574D01*
X59802977Y-55702431D01*
X59846803Y-55647197D01*
X59820708Y-55608076D01*
X59710411Y-55559965D01*
X59662210Y-55542493D01*
X59480486Y-55486908D01*
X59287015Y-55438274D01*
X59181909Y-55418035D01*
X59037628Y-55411804D01*
X58958973Y-55455137D01*
X58926465Y-55554303D01*
X58921291Y-55601853D01*
X57722870Y-55601853D01*
X57727630Y-55587091D01*
X57729085Y-55583618D01*
X57796495Y-55539726D01*
X57905411Y-55539583D01*
X58006864Y-55583770D01*
X58033120Y-55599631D01*
X58101584Y-55592169D01*
X58202163Y-55518194D01*
X58242667Y-55484403D01*
X58374885Y-55413138D01*
X58498796Y-55424014D01*
X58636448Y-55516969D01*
X58637393Y-55517802D01*
X58723042Y-55588165D01*
X58759775Y-55596392D01*
X58767579Y-55547071D01*
X58782605Y-55490605D01*
X58854762Y-55389932D01*
X58956529Y-55305539D01*
X59054061Y-55270138D01*
X59151831Y-55280710D01*
X59336037Y-55320287D01*
X59551666Y-55379584D01*
X59762118Y-55448326D01*
X59930792Y-55516241D01*
X60081870Y-55608892D01*
X60246797Y-55750000D01*
X60278378Y-55784940D01*
X60391095Y-55909646D01*
X60493365Y-56063899D01*
X60532210Y-56188828D01*
X60547657Y-56273333D01*
X60609383Y-56389987D01*
X60630036Y-56418702D01*
X60635699Y-56428657D01*
X60693086Y-56529553D01*
X60771765Y-56687931D01*
X60853765Y-56869680D01*
X60864303Y-56894370D01*
X60871397Y-56910992D01*
X60933210Y-57064653D01*
X60975844Y-57197967D01*
X61002601Y-57332486D01*
X61016784Y-57489760D01*
X61018602Y-57564391D01*
X61021693Y-57691340D01*
X61020631Y-57958778D01*
X61020934Y-58021318D01*
X61021504Y-58025794D01*
X61033367Y-58119047D01*
X61074984Y-58200641D01*
X61135190Y-58263654D01*
X61161870Y-58291578D01*
X61310110Y-58417339D01*
X61601684Y-58657311D01*
X61601684Y-53477711D01*
X39944842Y-53477711D01*
X39784421Y-53477711D01*
X39784421Y-53346558D01*
X61815578Y-53346558D01*
X61815578Y-60953442D01*
X39784421Y-60953442D01*
G37*
X39784421Y-60953442D02*
X39784421Y-53477711D01*
X39944842Y-53477711D01*
X39944842Y-60822289D01*
X61601684Y-60822289D01*
X61601684Y-59397161D01*
X61415911Y-59414892D01*
X61329540Y-59416283D01*
X61132368Y-59382182D01*
X60873735Y-59296270D01*
X60517330Y-59159916D01*
X60324244Y-59278249D01*
X60242056Y-59332163D01*
X60073536Y-59455286D01*
X59913526Y-59584822D01*
X59851540Y-59637116D01*
X59728653Y-59723567D01*
X59617258Y-59763421D01*
X59479579Y-59773064D01*
X59394900Y-59769054D01*
X59185322Y-59712930D01*
X59006400Y-59584687D01*
X58846017Y-59376744D01*
X58794419Y-59286886D01*
X58752491Y-59184638D01*
X58728147Y-59066167D01*
X58717774Y-58920568D01*
X58954736Y-58920568D01*
X58957769Y-59123951D01*
X58958289Y-59143808D01*
X58994878Y-59323290D01*
X59102279Y-59478980D01*
X59170705Y-59543204D01*
X59275868Y-59617115D01*
X59368231Y-59659916D01*
X59425724Y-59662337D01*
X59426278Y-59615103D01*
X59427863Y-59574963D01*
X59511308Y-59554475D01*
X59590271Y-59532980D01*
X59726424Y-59473200D01*
X59893063Y-59388745D01*
X60065553Y-59293274D01*
X60219261Y-59200446D01*
X60329551Y-59123921D01*
X60371789Y-59077359D01*
X60365567Y-59046528D01*
X60299247Y-59012456D01*
X60153869Y-59030806D01*
X60076729Y-59046304D01*
X60012225Y-59038973D01*
X59997473Y-58983093D01*
X59988764Y-58935222D01*
X59948456Y-58898709D01*
X59890707Y-58925539D01*
X59878863Y-59001948D01*
X59926018Y-59099255D01*
X59955093Y-59140271D01*
X59960993Y-59186230D01*
X59963632Y-59206793D01*
X59897392Y-59285697D01*
X59815700Y-59342469D01*
X59703165Y-59351632D01*
X59643568Y-59344514D01*
X59560407Y-59394709D01*
X59492701Y-59441861D01*
X59366500Y-59465710D01*
X59301587Y-59463911D01*
X59263384Y-59451672D01*
X59315684Y-59419820D01*
X59392875Y-59365536D01*
X59396712Y-59313905D01*
X59312536Y-59292169D01*
X59233284Y-59279158D01*
X59112009Y-59227982D01*
X59060935Y-59195164D01*
X59486681Y-59195164D01*
X59552956Y-59212808D01*
X59676333Y-59222702D01*
X59790311Y-59215712D01*
X59836772Y-59186230D01*
X59786038Y-59140399D01*
X59772809Y-59135728D01*
X59688791Y-59132097D01*
X59584983Y-59145936D01*
X59503557Y-59169530D01*
X59486681Y-59195164D01*
X59060935Y-59195164D01*
X59055351Y-59191576D01*
X59044010Y-59167225D01*
X59125370Y-59162406D01*
X59200969Y-59153093D01*
X59275578Y-59117298D01*
X59306689Y-59094783D01*
X59406636Y-59073580D01*
X59406904Y-59073580D01*
X59514220Y-59044913D01*
X59652596Y-58973407D01*
X59790748Y-58880167D01*
X59897390Y-58786299D01*
X59941240Y-58712909D01*
X59934516Y-58672353D01*
X59920168Y-58660627D01*
X60806478Y-58660627D01*
X60832497Y-58717864D01*
X60933263Y-58794930D01*
X60996726Y-58834594D01*
X61168797Y-58927518D01*
X61352969Y-59013396D01*
X61504078Y-59077359D01*
X61612255Y-59123150D01*
X61470721Y-58912565D01*
X61411268Y-58830775D01*
X61267992Y-58659190D01*
X61119452Y-58505249D01*
X61026773Y-58420340D01*
X60951586Y-58362400D01*
X60917043Y-58360429D01*
X60908122Y-58407478D01*
X60902793Y-58437107D01*
X60894875Y-58481142D01*
X60839684Y-58596327D01*
X60806478Y-58660627D01*
X59920168Y-58660627D01*
X59890526Y-58636403D01*
X59877782Y-58637636D01*
X59837052Y-58679112D01*
X59836541Y-58685404D01*
X59778791Y-58751990D01*
X59644113Y-58816439D01*
X59459329Y-58868697D01*
X59251261Y-58898709D01*
X58954736Y-58920568D01*
X58717774Y-58920568D01*
X58716861Y-58907755D01*
X58714610Y-58726418D01*
X58928000Y-58726418D01*
X58940346Y-58774269D01*
X58994842Y-58805118D01*
X59209963Y-58784445D01*
X59440245Y-58757464D01*
X59591264Y-58729624D01*
X59679155Y-58696308D01*
X59720057Y-58652899D01*
X59730105Y-58594782D01*
X59741985Y-58549194D01*
X59810315Y-58489440D01*
X59847264Y-58470273D01*
X59865587Y-58439378D01*
X60553698Y-58439378D01*
X60557499Y-58503334D01*
X60570254Y-58517025D01*
X60643992Y-58548967D01*
X60645642Y-58548947D01*
X60709079Y-58512375D01*
X60735414Y-58437107D01*
X60708160Y-58369305D01*
X60674003Y-58356312D01*
X60604044Y-58380130D01*
X60553698Y-58439378D01*
X59865587Y-58439378D01*
X59890526Y-58397327D01*
X59896832Y-58365882D01*
X59944000Y-58330378D01*
X59992703Y-58313310D01*
X59991592Y-58308520D01*
X60157894Y-58308520D01*
X60163754Y-58313310D01*
X60184631Y-58330378D01*
X60196973Y-58320288D01*
X60326560Y-58320288D01*
X60373699Y-58329709D01*
X60396473Y-58328835D01*
X60501078Y-58305229D01*
X60555580Y-58263237D01*
X60532788Y-58221376D01*
X60474293Y-58216509D01*
X60381936Y-58259629D01*
X60359501Y-58278454D01*
X60335826Y-58308520D01*
X60326560Y-58320288D01*
X60196973Y-58320288D01*
X60211368Y-58308520D01*
X60184631Y-58286661D01*
X60157894Y-58308520D01*
X59991592Y-58308520D01*
X59982142Y-58267776D01*
X59908556Y-58224402D01*
X59835986Y-58224114D01*
X59727698Y-58269018D01*
X59629437Y-58343738D01*
X59569756Y-58425319D01*
X59577209Y-58490804D01*
X59579627Y-58493209D01*
X59601121Y-58537276D01*
X59529305Y-58548967D01*
X59462994Y-58558848D01*
X59355789Y-58614544D01*
X59262533Y-58666312D01*
X59145507Y-58676550D01*
X59061145Y-58635689D01*
X59007431Y-58608200D01*
X58952564Y-58643354D01*
X58928000Y-58726418D01*
X58714610Y-58726418D01*
X58714105Y-58685687D01*
X58714105Y-58207452D01*
X58580838Y-58257986D01*
X58542997Y-58273770D01*
X58481325Y-58320227D01*
X58453698Y-58399443D01*
X58450891Y-58459132D01*
X58447154Y-58538631D01*
X58450869Y-58622410D01*
X58473649Y-58761216D01*
X58510361Y-58852034D01*
X58546488Y-58929031D01*
X58503814Y-59004453D01*
X58458553Y-59042236D01*
X58356367Y-59069010D01*
X58237052Y-59013875D01*
X58220751Y-59003480D01*
X58120037Y-58959528D01*
X58000424Y-58925209D01*
X57900418Y-58909808D01*
X57858526Y-58922609D01*
X57870080Y-58955678D01*
X57915256Y-59034837D01*
X57971341Y-59088826D01*
X58078296Y-59093914D01*
X58145322Y-59086870D01*
X58286130Y-59122487D01*
X58399924Y-59205383D01*
X58446736Y-59311913D01*
X58416477Y-59417542D01*
X58316154Y-59515577D01*
X58175548Y-59554475D01*
X58098182Y-59541393D01*
X57979822Y-59477496D01*
X57897761Y-59385795D01*
X57884181Y-59294956D01*
X57886066Y-59289781D01*
X57880547Y-59167006D01*
X57804511Y-59045003D01*
X57681558Y-58962494D01*
X57661425Y-58954369D01*
X57567729Y-58877553D01*
X57547114Y-58782846D01*
X57608534Y-58702169D01*
X57617243Y-58693863D01*
X57830013Y-58693863D01*
X57913833Y-58777561D01*
X57994879Y-58821834D01*
X58148114Y-58851788D01*
X58275621Y-58802530D01*
X58281066Y-58797077D01*
X58312357Y-58720058D01*
X58333058Y-58596352D01*
X58341003Y-58459132D01*
X58334024Y-58341571D01*
X58309956Y-58276843D01*
X58296977Y-58268926D01*
X58207865Y-58266959D01*
X58107602Y-58309677D01*
X58043851Y-58378816D01*
X58013453Y-58425331D01*
X57940930Y-58461532D01*
X57882318Y-58494226D01*
X57833496Y-58580831D01*
X57831250Y-58588383D01*
X57830013Y-58693863D01*
X57617243Y-58693863D01*
X57669480Y-58644046D01*
X57725991Y-58538930D01*
X57728226Y-58531413D01*
X57729701Y-58436955D01*
X57652947Y-58377735D01*
X57593730Y-58359176D01*
X57494476Y-58367810D01*
X57354676Y-58428790D01*
X57249230Y-58490121D01*
X57191558Y-58556100D01*
X57194799Y-58636403D01*
X57229750Y-58717430D01*
X57306706Y-58819673D01*
X57350932Y-58876209D01*
X57363239Y-58950826D01*
X57363153Y-59037886D01*
X57428564Y-59123826D01*
X57533018Y-59161015D01*
X57636028Y-59184063D01*
X57716234Y-59258208D01*
X57718933Y-59354569D01*
X57674532Y-59399101D01*
X57547311Y-59414757D01*
X57516539Y-59410647D01*
X57421298Y-59365500D01*
X57364908Y-59257653D01*
X57311673Y-59156526D01*
X57186658Y-59072509D01*
X57072101Y-59015934D01*
X57014494Y-58929123D01*
X57050632Y-58838834D01*
X57077912Y-58784377D01*
X57078744Y-58662151D01*
X57038749Y-58519144D01*
X56964292Y-58388542D01*
X56920911Y-58311017D01*
X56906036Y-58213671D01*
X56907127Y-58207788D01*
X56884026Y-58146945D01*
X56775684Y-58119815D01*
X56718559Y-58112051D01*
X56645907Y-58072390D01*
X56635726Y-58016609D01*
X56955628Y-58016609D01*
X56994810Y-58043559D01*
X57128309Y-58038849D01*
X57191973Y-58032377D01*
X57311768Y-58047298D01*
X57409046Y-58120427D01*
X57521162Y-58213953D01*
X57650978Y-58256415D01*
X57765009Y-58213227D01*
X57834569Y-58174953D01*
X57945866Y-58189050D01*
X58039430Y-58214417D01*
X58140415Y-58195117D01*
X58179368Y-58116244D01*
X58175488Y-58094953D01*
X58156422Y-58075103D01*
X58904384Y-58075103D01*
X58920898Y-58116244D01*
X58927855Y-58133576D01*
X58953954Y-58138682D01*
X58981473Y-58097188D01*
X58993093Y-58061889D01*
X59068128Y-58006523D01*
X59085834Y-58001465D01*
X59132727Y-58008128D01*
X59122332Y-58078352D01*
X59104267Y-58149382D01*
X59089151Y-58274359D01*
X59072401Y-58339708D01*
X59008210Y-58346188D01*
X58948303Y-58349992D01*
X58929295Y-58405012D01*
X58968924Y-58486579D01*
X58996653Y-58513573D01*
X59096403Y-58558163D01*
X59197130Y-58555837D01*
X59264875Y-58512572D01*
X59265679Y-58434346D01*
X59261146Y-58404893D01*
X59309963Y-58372913D01*
X59316760Y-58372362D01*
X59404666Y-58336270D01*
X59525356Y-58259962D01*
X59648776Y-58166078D01*
X59744869Y-58077259D01*
X59783578Y-58016145D01*
X59785143Y-58009604D01*
X59829940Y-58013405D01*
X59917263Y-58068072D01*
X59977509Y-58111476D01*
X60040338Y-58140320D01*
X60036573Y-58102712D01*
X59964586Y-58000957D01*
X59954279Y-57988808D01*
X59847147Y-57913230D01*
X59732746Y-57895438D01*
X59646111Y-57941924D01*
X59629668Y-57954374D01*
X59513847Y-57972248D01*
X59298490Y-57961900D01*
X59172932Y-57951604D01*
X59046107Y-57950512D01*
X58975445Y-57971675D01*
X58930969Y-58019818D01*
X58904384Y-58075103D01*
X58156422Y-58075103D01*
X58103783Y-58020299D01*
X57966181Y-57959290D01*
X57794924Y-57923111D01*
X57622253Y-57922950D01*
X57602073Y-57925346D01*
X57459025Y-57927412D01*
X57364347Y-57904950D01*
X57284108Y-57886524D01*
X57123263Y-57921274D01*
X57011200Y-57968227D01*
X56955628Y-58016609D01*
X56635726Y-58016609D01*
X56628631Y-57977733D01*
X56644236Y-57887405D01*
X56682105Y-57849483D01*
X56704925Y-57842472D01*
X56732818Y-57786160D01*
X56727591Y-57732878D01*
X56856140Y-57732878D01*
X56860479Y-57824675D01*
X56862901Y-57829732D01*
X56906033Y-57881339D01*
X56978636Y-57881151D01*
X57109576Y-57829757D01*
X57205164Y-57764605D01*
X57274113Y-57667364D01*
X57283949Y-57576796D01*
X57258495Y-57457769D01*
X57216361Y-57386237D01*
X57351393Y-57386237D01*
X57356299Y-57430701D01*
X57411398Y-57476055D01*
X57532710Y-57499742D01*
X57639539Y-57508874D01*
X57727515Y-57536869D01*
X57772993Y-57550049D01*
X57889627Y-57536046D01*
X58023414Y-57491204D01*
X58133585Y-57430630D01*
X58179368Y-57369432D01*
X58178968Y-57361338D01*
X58126854Y-57265382D01*
X58016731Y-57184209D01*
X57890905Y-57150000D01*
X57830603Y-57144230D01*
X57703235Y-57108527D01*
X57661681Y-57094100D01*
X57529987Y-57086327D01*
X57422023Y-57124877D01*
X57377263Y-57198816D01*
X57384649Y-57244693D01*
X57420516Y-57281153D01*
X57471827Y-57296674D01*
X57567569Y-57348790D01*
X57570417Y-57350647D01*
X57629832Y-57393840D01*
X57609746Y-57404235D01*
X57497631Y-57389043D01*
X57412237Y-57378022D01*
X57351393Y-57386237D01*
X57216361Y-57386237D01*
X57202867Y-57363328D01*
X57130254Y-57324871D01*
X57060470Y-57359032D01*
X56995142Y-57445095D01*
X56944055Y-57545753D01*
X56882236Y-57660734D01*
X56856140Y-57732878D01*
X56727591Y-57732878D01*
X56725212Y-57708627D01*
X56682105Y-57652754D01*
X56656989Y-57632681D01*
X56629498Y-57548602D01*
X56650267Y-57454044D01*
X56713667Y-57394983D01*
X56760117Y-57385241D01*
X56847124Y-57392771D01*
X56895950Y-57380923D01*
X56954620Y-57311235D01*
X56973291Y-57269927D01*
X56972495Y-57216378D01*
X56930282Y-57151573D01*
X56834780Y-57059049D01*
X56674111Y-56922343D01*
X56445011Y-56713553D01*
X56222822Y-56470846D01*
X56042265Y-56229451D01*
X55912745Y-56003717D01*
X55843668Y-55807993D01*
X55844225Y-55698848D01*
X56162614Y-55698848D01*
X56180116Y-55781529D01*
X56229764Y-55903921D01*
X56336976Y-56099556D01*
X56479952Y-56321208D01*
X56642859Y-56544639D01*
X56809865Y-56745611D01*
X56837871Y-56776486D01*
X56953505Y-56899714D01*
X57040937Y-56986209D01*
X57083047Y-57018847D01*
X57093997Y-57015392D01*
X57107443Y-56958349D01*
X57086840Y-56848041D01*
X57062277Y-56780234D01*
X57189719Y-56780234D01*
X57208941Y-56884721D01*
X57213263Y-56900855D01*
X57253874Y-56999156D01*
X57298427Y-57045237D01*
X57339446Y-57046311D01*
X57447224Y-57017785D01*
X57547158Y-56966034D01*
X57591157Y-56912813D01*
X57565067Y-56878885D01*
X57476554Y-56820476D01*
X57360490Y-56761859D01*
X57253918Y-56721290D01*
X57193879Y-56717023D01*
X57191607Y-56720018D01*
X57189719Y-56780234D01*
X57062277Y-56780234D01*
X57035518Y-56706365D01*
X57024363Y-56674347D01*
X57417520Y-56674347D01*
X57477606Y-56706391D01*
X57598441Y-56742198D01*
X57734662Y-56717119D01*
X57839704Y-56697136D01*
X57983120Y-56723614D01*
X58096165Y-56797687D01*
X58153515Y-56900403D01*
X58150901Y-56912813D01*
X58129843Y-57012814D01*
X58119657Y-57030026D01*
X58115465Y-57103170D01*
X58194804Y-57183321D01*
X58302376Y-57247438D01*
X58420000Y-57288317D01*
X58492635Y-57318414D01*
X58511161Y-57369432D01*
X58526947Y-57412905D01*
X58518333Y-57475618D01*
X58466156Y-57514541D01*
X58338795Y-57526176D01*
X58313947Y-57527210D01*
X58138870Y-57554358D01*
X58069480Y-57576796D01*
X57974556Y-57607491D01*
X57852713Y-57673862D01*
X57805052Y-57740725D01*
X57823101Y-57776369D01*
X57913162Y-57836132D01*
X58042387Y-57885133D01*
X58169445Y-57909211D01*
X58253004Y-57894205D01*
X58320612Y-57865534D01*
X58446736Y-57849483D01*
X58549944Y-57861548D01*
X58649936Y-57901945D01*
X58660456Y-57908767D01*
X58686315Y-57898086D01*
X58702815Y-57830981D01*
X58706926Y-57767980D01*
X58928000Y-57767980D01*
X58928211Y-57777403D01*
X58956335Y-57829925D01*
X59050403Y-57826033D01*
X59153684Y-57818977D01*
X59304403Y-57840334D01*
X59382421Y-57853800D01*
X59525488Y-57839890D01*
X59606993Y-57816695D01*
X59998278Y-57816695D01*
X60000759Y-57824751D01*
X60027137Y-57891583D01*
X60072874Y-58000965D01*
X60117995Y-58094988D01*
X60155893Y-58140320D01*
X60184316Y-58174319D01*
X60253851Y-58172809D01*
X60336822Y-58094065D01*
X60343709Y-58085416D01*
X60532210Y-58085416D01*
X60536017Y-58091846D01*
X60596090Y-58137826D01*
X60706000Y-58205470D01*
X60778327Y-58245197D01*
X60827816Y-58263237D01*
X60828959Y-58263654D01*
X60803976Y-58227919D01*
X60741532Y-58176093D01*
X60647807Y-58117756D01*
X60566750Y-58081614D01*
X60532210Y-58085416D01*
X60343709Y-58085416D01*
X60347897Y-58080157D01*
X60391201Y-58010067D01*
X60368852Y-57960003D01*
X60302540Y-57917240D01*
X60651917Y-57917240D01*
X60693196Y-58003052D01*
X60701365Y-58010067D01*
X60733206Y-58037412D01*
X60819307Y-58069484D01*
X60868511Y-58025794D01*
X60865900Y-57914033D01*
X60860424Y-57895277D01*
X60802013Y-57821510D01*
X60723025Y-57811366D01*
X60658234Y-57871899D01*
X60651917Y-57917240D01*
X60302540Y-57917240D01*
X60269169Y-57895720D01*
X60251392Y-57885621D01*
X60129321Y-57828556D01*
X60034766Y-57802609D01*
X59998278Y-57816695D01*
X59606993Y-57816695D01*
X59728437Y-57782134D01*
X59730116Y-57781573D01*
X59796125Y-57755044D01*
X60157894Y-57755044D01*
X60158225Y-57757160D01*
X60209329Y-57793859D01*
X60321050Y-57836945D01*
X60484206Y-57887294D01*
X60451611Y-57682588D01*
X60439999Y-57606098D01*
X60434594Y-57529148D01*
X60453590Y-57518920D01*
X60502350Y-57562745D01*
X60554407Y-57628377D01*
X60585684Y-57704827D01*
X60585913Y-57720032D01*
X60598763Y-57754674D01*
X60652589Y-57753093D01*
X60776557Y-57717175D01*
X60778443Y-57716589D01*
X60858284Y-57686422D01*
X60896574Y-57643953D01*
X60902456Y-57564391D01*
X60885072Y-57422949D01*
X60869121Y-57331975D01*
X60801476Y-57132641D01*
X60699119Y-57014235D01*
X60560870Y-56975129D01*
X60433125Y-56997334D01*
X60394814Y-57052921D01*
X60391278Y-57058052D01*
X60446878Y-57145373D01*
X60489152Y-57196664D01*
X60493362Y-57201772D01*
X60496678Y-57251912D01*
X60487730Y-57262517D01*
X60519694Y-57281153D01*
X60560621Y-57264457D01*
X60612421Y-57193718D01*
X60642751Y-57135465D01*
X60690507Y-57108576D01*
X60726279Y-57156104D01*
X60737297Y-57270224D01*
X60736976Y-57280893D01*
X60745787Y-57423876D01*
X60772539Y-57543459D01*
X60787415Y-57589681D01*
X60776476Y-57608630D01*
X60717871Y-57574906D01*
X60597791Y-57483793D01*
X60593820Y-57480699D01*
X60441214Y-57378039D01*
X60339372Y-57350198D01*
X60282510Y-57397833D01*
X60264842Y-57521601D01*
X60264694Y-57532680D01*
X60247788Y-57638233D01*
X60211368Y-57696471D01*
X60196172Y-57705455D01*
X60157894Y-57755044D01*
X59796125Y-57755044D01*
X59959504Y-57689382D01*
X60092970Y-57592520D01*
X60141068Y-57478780D01*
X60114355Y-57335961D01*
X60103966Y-57305258D01*
X60085761Y-57213361D01*
X60088651Y-57149117D01*
X60108940Y-57132327D01*
X60142934Y-57182788D01*
X60146312Y-57189313D01*
X60206236Y-57229746D01*
X60281387Y-57233606D01*
X60318315Y-57196664D01*
X60314817Y-57182402D01*
X60247076Y-57139218D01*
X60121846Y-57119538D01*
X59977200Y-57130721D01*
X59885182Y-57165088D01*
X59804156Y-57260046D01*
X59814824Y-57384289D01*
X59817375Y-57437276D01*
X59768356Y-57455269D01*
X59704045Y-57413201D01*
X59702269Y-57410958D01*
X59638865Y-57391092D01*
X59559412Y-57429030D01*
X59491504Y-57503971D01*
X59462736Y-57595113D01*
X59456020Y-57664524D01*
X59422933Y-57729353D01*
X59378836Y-57724060D01*
X59342604Y-57641378D01*
X59316731Y-57546327D01*
X59273858Y-57437505D01*
X59267886Y-57425638D01*
X59257994Y-57374333D01*
X59318056Y-57380948D01*
X59368328Y-57389130D01*
X59437443Y-57366679D01*
X59471243Y-57344023D01*
X59572840Y-57324871D01*
X59614014Y-57320711D01*
X59671104Y-57279603D01*
X59654544Y-57219331D01*
X59565757Y-57170840D01*
X59486554Y-57164231D01*
X59384386Y-57220890D01*
X59298495Y-57275637D01*
X59161050Y-57308739D01*
X59046406Y-57315828D01*
X58968105Y-57321319D01*
X58941841Y-57350511D01*
X58928000Y-57434165D01*
X58942370Y-57486256D01*
X58951083Y-57517844D01*
X59034947Y-57543459D01*
X59097156Y-57552440D01*
X59141894Y-57591270D01*
X59121736Y-57623433D01*
X59034947Y-57661945D01*
X58973394Y-57689980D01*
X58928000Y-57767980D01*
X58706926Y-57767980D01*
X58711548Y-57697141D01*
X58714105Y-57486256D01*
X58713966Y-57380692D01*
X58711526Y-57210674D01*
X58703409Y-57108219D01*
X58686266Y-57059753D01*
X58656746Y-57051703D01*
X58611500Y-57070493D01*
X58543496Y-57093506D01*
X58434534Y-57077707D01*
X58365887Y-57001029D01*
X58360237Y-56880612D01*
X58368890Y-56807338D01*
X58329311Y-56746307D01*
X58211501Y-56690127D01*
X57997980Y-56641880D01*
X57691812Y-56634080D01*
X57665068Y-56635124D01*
X57496733Y-56643615D01*
X57419056Y-56655056D01*
X57417520Y-56674347D01*
X57024363Y-56674347D01*
X57008862Y-56629854D01*
X57003349Y-56503506D01*
X57053636Y-56427576D01*
X57147583Y-56413920D01*
X57273047Y-56474396D01*
X57285511Y-56482856D01*
X57377333Y-56516447D01*
X57527048Y-56530948D01*
X57758521Y-56529044D01*
X58152631Y-56516093D01*
X57941983Y-56409048D01*
X57881673Y-56380755D01*
X57732170Y-56327650D01*
X57621141Y-56310552D01*
X57554200Y-56315064D01*
X57364331Y-56323472D01*
X57150170Y-56328691D01*
X56937944Y-56330600D01*
X56753881Y-56329082D01*
X56624210Y-56324017D01*
X56575157Y-56315288D01*
X56603730Y-56276551D01*
X56683694Y-56208893D01*
X56703156Y-56194383D01*
X56748315Y-56151255D01*
X56746167Y-56107691D01*
X56687569Y-56042990D01*
X56563378Y-55936448D01*
X56561618Y-55935030D01*
X57718486Y-55935030D01*
X57727824Y-56017284D01*
X57745956Y-56030420D01*
X57847084Y-56051899D01*
X57989541Y-56055119D01*
X58127712Y-56040794D01*
X58215980Y-56009638D01*
X58254056Y-55987089D01*
X58372428Y-55972373D01*
X58484700Y-56009358D01*
X58543560Y-56086887D01*
X58542988Y-56135269D01*
X58484804Y-56215718D01*
X58376624Y-56245515D01*
X58253597Y-56209765D01*
X58182392Y-56180613D01*
X58049732Y-56154942D01*
X57908901Y-56146394D01*
X57797111Y-56156633D01*
X57751578Y-56187321D01*
X57782705Y-56223896D01*
X57884810Y-56282075D01*
X58024600Y-56341659D01*
X58167176Y-56388087D01*
X58277637Y-56406798D01*
X58385290Y-56431353D01*
X58470669Y-56509595D01*
X58471203Y-56516093D01*
X58479112Y-56612360D01*
X58469250Y-56659735D01*
X58488062Y-56734681D01*
X58527170Y-56770489D01*
X58620526Y-56838399D01*
X58656758Y-56857075D01*
X58683261Y-56850809D01*
X58700050Y-56805980D01*
X58709323Y-56710370D01*
X58713275Y-56551763D01*
X58714105Y-56317940D01*
X58714102Y-56292263D01*
X58713259Y-56066190D01*
X58709317Y-55914401D01*
X58699963Y-55824884D01*
X58682886Y-55785625D01*
X58655774Y-55784613D01*
X58616315Y-55809833D01*
X58475091Y-55872669D01*
X58330690Y-55867969D01*
X58220432Y-55794750D01*
X58205913Y-55777576D01*
X58125615Y-55720720D01*
X58051507Y-55708989D01*
X58018947Y-55750200D01*
X57987450Y-55784589D01*
X57889132Y-55819722D01*
X57789843Y-55858301D01*
X57718486Y-55935030D01*
X56561618Y-55935030D01*
X56455705Y-55849697D01*
X56326985Y-55755192D01*
X56239225Y-55701660D01*
X56189992Y-55683057D01*
X56162614Y-55698848D01*
X55844225Y-55698848D01*
X55844441Y-55656628D01*
X55860294Y-55620947D01*
X55935854Y-55510021D01*
X56042504Y-55390361D01*
X56154169Y-55292776D01*
X56265654Y-55239951D01*
X56405261Y-55226830D01*
X56450033Y-55229275D01*
X56644849Y-55271275D01*
X56867204Y-55353062D01*
X57078277Y-55458578D01*
X57239249Y-55571769D01*
X57341866Y-55664954D01*
X57473636Y-55565911D01*
X57605406Y-55466867D01*
X57578113Y-55674527D01*
X57573749Y-55714915D01*
X57575844Y-55828339D01*
X57599554Y-55879564D01*
X57635628Y-55860226D01*
X57674815Y-55761962D01*
X57701219Y-55668993D01*
X57722870Y-55601853D01*
X58921291Y-55601853D01*
X58925285Y-55699226D01*
X58971445Y-55734077D01*
X59075052Y-55723841D01*
X59222105Y-55694984D01*
X59102033Y-55802119D01*
X59065908Y-55839319D01*
X58991230Y-55975861D01*
X58947687Y-56177352D01*
X58944243Y-56204456D01*
X58932279Y-56317940D01*
X58930032Y-56339254D01*
X58935205Y-56408153D01*
X58965726Y-56429351D01*
X59027559Y-56421045D01*
X59125909Y-56423320D01*
X59255062Y-56460930D01*
X59363646Y-56518627D01*
X59409263Y-56578880D01*
X59409123Y-56580508D01*
X59362264Y-56592406D01*
X59256727Y-56570721D01*
X59175654Y-56548521D01*
X59051638Y-56538588D01*
X58975987Y-56584892D01*
X58938256Y-56697461D01*
X58928000Y-56886321D01*
X58928000Y-57193718D01*
X59132982Y-57193718D01*
X59215754Y-57192356D01*
X59341198Y-57175642D01*
X59378469Y-57133482D01*
X59339779Y-57057851D01*
X59311610Y-56998292D01*
X59495634Y-56998292D01*
X59597552Y-57055031D01*
X59695942Y-57090295D01*
X59748620Y-57106282D01*
X59750347Y-57104632D01*
X59751159Y-57052921D01*
X59739968Y-56951269D01*
X59737768Y-56936082D01*
X59736954Y-56932397D01*
X59837052Y-56932397D01*
X59846872Y-56971643D01*
X59907775Y-56999986D01*
X60047518Y-57003550D01*
X60073206Y-57002222D01*
X60244472Y-56972189D01*
X60378348Y-56917792D01*
X60470556Y-56873212D01*
X60635776Y-56866483D01*
X60772842Y-56894370D01*
X60614209Y-56758534D01*
X60455577Y-56622698D01*
X60405538Y-56722408D01*
X60386159Y-56759043D01*
X60355331Y-56790174D01*
X60332986Y-56745611D01*
X60290018Y-56676872D01*
X60236735Y-56688978D01*
X60189409Y-56778399D01*
X60176254Y-56815958D01*
X60130069Y-56887198D01*
X60089492Y-56883784D01*
X60066954Y-56815208D01*
X60074889Y-56690964D01*
X60081286Y-56652522D01*
X60085877Y-56534623D01*
X60054223Y-56494234D01*
X60014548Y-56530301D01*
X59997473Y-56620034D01*
X59990338Y-56653726D01*
X59976592Y-56718638D01*
X59917263Y-56800258D01*
X59875671Y-56839819D01*
X59837052Y-56932397D01*
X59736954Y-56932397D01*
X59717629Y-56844964D01*
X59681230Y-56823685D01*
X59606584Y-56856645D01*
X59599499Y-56860525D01*
X59496152Y-56936325D01*
X59495634Y-56998292D01*
X59311610Y-56998292D01*
X59303787Y-56981752D01*
X59341419Y-56890259D01*
X59346719Y-56883247D01*
X59373394Y-56830486D01*
X59333637Y-56804508D01*
X59207230Y-56790246D01*
X59008210Y-56775103D01*
X59154748Y-56723346D01*
X59286889Y-56695977D01*
X59541725Y-56708312D01*
X59633878Y-56718711D01*
X59795221Y-56708506D01*
X59877044Y-56653726D01*
X59870523Y-56558393D01*
X59801123Y-56496351D01*
X59662154Y-56431950D01*
X59494395Y-56382708D01*
X59337317Y-56363081D01*
X59245331Y-56349541D01*
X59160821Y-56307072D01*
X59747225Y-56307072D01*
X59858981Y-56366087D01*
X59944747Y-56400445D01*
X60041546Y-56413289D01*
X60088105Y-56414500D01*
X60188598Y-56453208D01*
X60231465Y-56478715D01*
X60262903Y-56479409D01*
X60236896Y-56432668D01*
X60157894Y-56353009D01*
X60106289Y-56287693D01*
X60065633Y-56192939D01*
X60048840Y-56101862D01*
X60060304Y-56040576D01*
X60104421Y-56035198D01*
X60118908Y-56044470D01*
X60157960Y-56114284D01*
X60160280Y-56125942D01*
X60207486Y-56201021D01*
X60296354Y-56297504D01*
X60434684Y-56428657D01*
X60397248Y-56253786D01*
X60376166Y-56191182D01*
X60320493Y-56089366D01*
X60249674Y-55992699D01*
X60179517Y-55919419D01*
X60125829Y-55887763D01*
X60104421Y-55915968D01*
X60099602Y-55935944D01*
X60037578Y-55969982D01*
X60016028Y-55976034D01*
X59941254Y-56035791D01*
X59858981Y-56138707D01*
X59747225Y-56307072D01*
X59160821Y-56307072D01*
X59142012Y-56297620D01*
X59128538Y-56283605D01*
X59117726Y-56253112D01*
X59175331Y-56246396D01*
X59319726Y-56259520D01*
X59563891Y-56286881D01*
X59504342Y-56128251D01*
X59493021Y-56099860D01*
X59481792Y-56078508D01*
X59623157Y-56078508D01*
X59626867Y-56117437D01*
X59661153Y-56158959D01*
X59717150Y-56129040D01*
X59777327Y-56032870D01*
X59781984Y-56022586D01*
X59858640Y-55914238D01*
X59960829Y-55878734D01*
X60020739Y-55871124D01*
X60010842Y-55853232D01*
X59947030Y-55811140D01*
X59963755Y-55772751D01*
X60050947Y-55772891D01*
X60056583Y-55774330D01*
X60144010Y-55784940D01*
X60142859Y-55758811D01*
X60052784Y-55708119D01*
X59987546Y-55688648D01*
X59926464Y-55713161D01*
X59858382Y-55804946D01*
X59848763Y-55819894D01*
X59768304Y-55922120D01*
X59696123Y-55982723D01*
X59664154Y-56004228D01*
X59623157Y-56078508D01*
X59481792Y-56078508D01*
X59444218Y-56007057D01*
X59403772Y-55969621D01*
X59332562Y-55956358D01*
X59212218Y-55922829D01*
X59138345Y-55897525D01*
X59102569Y-55867900D01*
X59151027Y-55835159D01*
X59221157Y-55817769D01*
X59378290Y-55837151D01*
X59424912Y-55849724D01*
X59506434Y-55852250D01*
X59514409Y-55816494D01*
X59453670Y-55757051D01*
X59329052Y-55688513D01*
X59193211Y-55606768D01*
X59141894Y-55516816D01*
X59154933Y-55458578D01*
X59201884Y-55476566D01*
X59236761Y-55496128D01*
X59335568Y-55502491D01*
X59375996Y-55499775D01*
X59409263Y-55549625D01*
X59415935Y-55584137D01*
X59460653Y-55619879D01*
X59519671Y-55641748D01*
X59610383Y-55706176D01*
X59674038Y-55757867D01*
X59727442Y-55765462D01*
X59795542Y-55709574D01*
X59802977Y-55702431D01*
X59846803Y-55647197D01*
X59820708Y-55608076D01*
X59710411Y-55559965D01*
X59662210Y-55542493D01*
X59480486Y-55486908D01*
X59287015Y-55438274D01*
X59181909Y-55418035D01*
X59037628Y-55411804D01*
X58958973Y-55455137D01*
X58926465Y-55554303D01*
X58921291Y-55601853D01*
X57722870Y-55601853D01*
X57727630Y-55587091D01*
X57729085Y-55583618D01*
X57796495Y-55539726D01*
X57905411Y-55539583D01*
X58006864Y-55583770D01*
X58033120Y-55599631D01*
X58101584Y-55592169D01*
X58202163Y-55518194D01*
X58242667Y-55484403D01*
X58374885Y-55413138D01*
X58498796Y-55424014D01*
X58636448Y-55516969D01*
X58637393Y-55517802D01*
X58723042Y-55588165D01*
X58759775Y-55596392D01*
X58767579Y-55547071D01*
X58782605Y-55490605D01*
X58854762Y-55389932D01*
X58956529Y-55305539D01*
X59054061Y-55270138D01*
X59151831Y-55280710D01*
X59336037Y-55320287D01*
X59551666Y-55379584D01*
X59762118Y-55448326D01*
X59930792Y-55516241D01*
X60081870Y-55608892D01*
X60246797Y-55750000D01*
X60278378Y-55784940D01*
X60391095Y-55909646D01*
X60493365Y-56063899D01*
X60532210Y-56188828D01*
X60547657Y-56273333D01*
X60609383Y-56389987D01*
X60630036Y-56418702D01*
X60635699Y-56428657D01*
X60693086Y-56529553D01*
X60771765Y-56687931D01*
X60853765Y-56869680D01*
X60864303Y-56894370D01*
X60871397Y-56910992D01*
X60933210Y-57064653D01*
X60975844Y-57197967D01*
X61002601Y-57332486D01*
X61016784Y-57489760D01*
X61018602Y-57564391D01*
X61021693Y-57691340D01*
X61020631Y-57958778D01*
X61020934Y-58021318D01*
X61021504Y-58025794D01*
X61033367Y-58119047D01*
X61074984Y-58200641D01*
X61135190Y-58263654D01*
X61161870Y-58291578D01*
X61310110Y-58417339D01*
X61601684Y-58657311D01*
X61601684Y-53477711D01*
X39944842Y-53477711D01*
X39784421Y-53477711D01*
X39784421Y-53346558D01*
X61815578Y-53346558D01*
X61815578Y-60953442D01*
X39784421Y-60953442D01*
X45430458Y-56358693D02*
X45180245Y-56478515D01*
X45180245Y-56478515D02*
X45090664Y-56548432D01*
X45090664Y-56548432D02*
X45042022Y-56610614D01*
X45042022Y-56610614D02*
X44957686Y-56738681D01*
X44957686Y-56738681D02*
X44845722Y-56918739D01*
X44845722Y-56918739D02*
X44714195Y-57136891D01*
X44714195Y-57136891D02*
X44571170Y-57379243D01*
X44571170Y-57379243D02*
X44424712Y-57631897D01*
X44424712Y-57631897D02*
X44282887Y-57880958D01*
X44282887Y-57880958D02*
X44153759Y-58112532D01*
X44153759Y-58112532D02*
X44045394Y-58312721D01*
X44045394Y-58312721D02*
X43965857Y-58467631D01*
X43965857Y-58467631D02*
X43926789Y-58553712D01*
X43926789Y-58553712D02*
X43919175Y-58594618D01*
X43919175Y-58594618D02*
X43948586Y-58619255D01*
X43948586Y-58619255D02*
X44034707Y-58631697D01*
X44034707Y-58631697D02*
X44197225Y-58636015D01*
X44197225Y-58636015D02*
X44326513Y-58636403D01*
X44326513Y-58636403D02*
X44758339Y-58636403D01*
X44758339Y-58636403D02*
X44929507Y-58286661D01*
X44929507Y-58286661D02*
X46517812Y-58286661D01*
X46517812Y-58286661D02*
X46581896Y-58461532D01*
X46581896Y-58461532D02*
X46645981Y-58636403D01*
X46645981Y-58636403D02*
X47092043Y-58636403D01*
X47092043Y-58636403D02*
X47295336Y-58633033D01*
X47295336Y-58633033D02*
X47450086Y-58624052D01*
X47450086Y-58624052D02*
X47531512Y-58611152D01*
X47531512Y-58611152D02*
X47538105Y-58605934D01*
X47538105Y-58605934D02*
X47516842Y-58556415D01*
X47516842Y-58556415D02*
X47457959Y-58440887D01*
X47457959Y-58440887D02*
X47368816Y-58272666D01*
X47368816Y-58272666D02*
X47256772Y-58065069D01*
X47256772Y-58065069D02*
X47129185Y-57831412D01*
X47129185Y-57831412D02*
X47090965Y-57762048D01*
X47090965Y-57762048D02*
X46199702Y-57762048D01*
X46199702Y-57762048D02*
X45719219Y-57762048D01*
X45719219Y-57762048D02*
X45507974Y-57758676D01*
X45507974Y-57758676D02*
X45344865Y-57749645D01*
X45344865Y-57749645D02*
X45253541Y-57736579D01*
X45253541Y-57736579D02*
X45242156Y-57729260D01*
X45242156Y-57729260D02*
X45268057Y-57656381D01*
X45268057Y-57656381D02*
X45328685Y-57534444D01*
X45328685Y-57534444D02*
X45411312Y-57384973D01*
X45411312Y-57384973D02*
X45503210Y-57229488D01*
X45503210Y-57229488D02*
X45591653Y-57089513D01*
X45591653Y-57089513D02*
X45663911Y-56986570D01*
X45663911Y-56986570D02*
X45707257Y-56942181D01*
X45707257Y-56942181D02*
X45707688Y-56942053D01*
X45707688Y-56942053D02*
X45749428Y-56952254D01*
X45749428Y-56952254D02*
X45803475Y-57009233D01*
X45803475Y-57009233D02*
X45875516Y-57121907D01*
X45875516Y-57121907D02*
X45971244Y-57299190D01*
X45971244Y-57299190D02*
X46096349Y-57550001D01*
X46096349Y-57550001D02*
X46098488Y-57554389D01*
X46098488Y-57554389D02*
X46199702Y-57762048D01*
X46199702Y-57762048D02*
X47090965Y-57762048D01*
X47090965Y-57762048D02*
X46993415Y-57585012D01*
X46993415Y-57585012D02*
X46856821Y-57339187D01*
X46856821Y-57339187D02*
X46726763Y-57107253D01*
X46726763Y-57107253D02*
X46610598Y-56902526D01*
X46610598Y-56902526D02*
X46515688Y-56738325D01*
X46515688Y-56738325D02*
X46449389Y-56627964D01*
X46449389Y-56627964D02*
X46424104Y-56590080D01*
X46424104Y-56590080D02*
X46284112Y-56476112D01*
X46284112Y-56476112D02*
X46077733Y-56383720D01*
X46077733Y-56383720D02*
X45845269Y-56328389D01*
X45845269Y-56328389D02*
X45719474Y-56319363D01*
X45719474Y-56319363D02*
X45430458Y-56358693D01*
G36*
X47256772Y-58065069D02*
G01*
X47368816Y-58272666D01*
X47457959Y-58440887D01*
X47516842Y-58556415D01*
X47538105Y-58605934D01*
X47531512Y-58611152D01*
X47450086Y-58624052D01*
X47295336Y-58633033D01*
X47092043Y-58636403D01*
X46645981Y-58636403D01*
X46581896Y-58461532D01*
X46517812Y-58286661D01*
X44929507Y-58286661D01*
X44758339Y-58636403D01*
X44326513Y-58636403D01*
X44197225Y-58636015D01*
X44034707Y-58631697D01*
X43948586Y-58619255D01*
X43919175Y-58594618D01*
X43926789Y-58553712D01*
X43965857Y-58467631D01*
X44045394Y-58312721D01*
X44153759Y-58112532D01*
X44282887Y-57880958D01*
X44369270Y-57729260D01*
X45242156Y-57729260D01*
X45253541Y-57736579D01*
X45344865Y-57749645D01*
X45507974Y-57758676D01*
X45719219Y-57762048D01*
X46199702Y-57762048D01*
X46098488Y-57554389D01*
X46096349Y-57550001D01*
X45971244Y-57299190D01*
X45875516Y-57121907D01*
X45803475Y-57009233D01*
X45749428Y-56952254D01*
X45707688Y-56942053D01*
X45707257Y-56942181D01*
X45663911Y-56986570D01*
X45591653Y-57089513D01*
X45503210Y-57229488D01*
X45411312Y-57384973D01*
X45328685Y-57534444D01*
X45268057Y-57656381D01*
X45242156Y-57729260D01*
X44369270Y-57729260D01*
X44424712Y-57631897D01*
X44571170Y-57379243D01*
X44714195Y-57136891D01*
X44845722Y-56918739D01*
X44957686Y-56738681D01*
X45042022Y-56610614D01*
X45090664Y-56548432D01*
X45180245Y-56478515D01*
X45430458Y-56358693D01*
X45719474Y-56319363D01*
X45845269Y-56328389D01*
X46077733Y-56383720D01*
X46284112Y-56476112D01*
X46424104Y-56590080D01*
X46449389Y-56627964D01*
X46515688Y-56738325D01*
X46610598Y-56902526D01*
X46726763Y-57107253D01*
X46856821Y-57339187D01*
X46993415Y-57585012D01*
X47090965Y-57762048D01*
X47129185Y-57831412D01*
X47256772Y-58065069D01*
G37*
X47256772Y-58065069D02*
X47368816Y-58272666D01*
X47457959Y-58440887D01*
X47516842Y-58556415D01*
X47538105Y-58605934D01*
X47531512Y-58611152D01*
X47450086Y-58624052D01*
X47295336Y-58633033D01*
X47092043Y-58636403D01*
X46645981Y-58636403D01*
X46581896Y-58461532D01*
X46517812Y-58286661D01*
X44929507Y-58286661D01*
X44758339Y-58636403D01*
X44326513Y-58636403D01*
X44197225Y-58636015D01*
X44034707Y-58631697D01*
X43948586Y-58619255D01*
X43919175Y-58594618D01*
X43926789Y-58553712D01*
X43965857Y-58467631D01*
X44045394Y-58312721D01*
X44153759Y-58112532D01*
X44282887Y-57880958D01*
X44369270Y-57729260D01*
X45242156Y-57729260D01*
X45253541Y-57736579D01*
X45344865Y-57749645D01*
X45507974Y-57758676D01*
X45719219Y-57762048D01*
X46199702Y-57762048D01*
X46098488Y-57554389D01*
X46096349Y-57550001D01*
X45971244Y-57299190D01*
X45875516Y-57121907D01*
X45803475Y-57009233D01*
X45749428Y-56952254D01*
X45707688Y-56942053D01*
X45707257Y-56942181D01*
X45663911Y-56986570D01*
X45591653Y-57089513D01*
X45503210Y-57229488D01*
X45411312Y-57384973D01*
X45328685Y-57534444D01*
X45268057Y-57656381D01*
X45242156Y-57729260D01*
X44369270Y-57729260D01*
X44424712Y-57631897D01*
X44571170Y-57379243D01*
X44714195Y-57136891D01*
X44845722Y-56918739D01*
X44957686Y-56738681D01*
X45042022Y-56610614D01*
X45090664Y-56548432D01*
X45180245Y-56478515D01*
X45430458Y-56358693D01*
X45719474Y-56319363D01*
X45845269Y-56328389D01*
X46077733Y-56383720D01*
X46284112Y-56476112D01*
X46424104Y-56590080D01*
X46449389Y-56627964D01*
X46515688Y-56738325D01*
X46610598Y-56902526D01*
X46726763Y-57107253D01*
X46856821Y-57339187D01*
X46993415Y-57585012D01*
X47090965Y-57762048D01*
X47129185Y-57831412D01*
X47256772Y-58065069D01*
X42876611Y-56330293D02*
X42680589Y-56381308D01*
X42680589Y-56381308D02*
X42603054Y-56432904D01*
X42603054Y-56432904D02*
X42470843Y-56541342D01*
X42470843Y-56541342D02*
X42296501Y-56695458D01*
X42296501Y-56695458D02*
X42092572Y-56884087D01*
X42092572Y-56884087D02*
X41871600Y-57096067D01*
X41871600Y-57096067D02*
X41814298Y-57152255D01*
X41814298Y-57152255D02*
X41094526Y-57861257D01*
X41094526Y-57861257D02*
X41067789Y-57123098D01*
X41067789Y-57123098D02*
X41041052Y-56384940D01*
X41041052Y-56384940D02*
X40649791Y-56372036D01*
X40649791Y-56372036D02*
X40258529Y-56359132D01*
X40258529Y-56359132D02*
X40275475Y-57387562D01*
X40275475Y-57387562D02*
X40292421Y-58415993D01*
X40292421Y-58415993D02*
X40431314Y-58529463D01*
X40431314Y-58529463D02*
X40623344Y-58629379D01*
X40623344Y-58629379D02*
X40855363Y-58666846D01*
X40855363Y-58666846D02*
X41086909Y-58637026D01*
X41086909Y-58637026D02*
X41148000Y-58615182D01*
X41148000Y-58615182D02*
X41229174Y-58562681D01*
X41229174Y-58562681D02*
X41366246Y-58453750D01*
X41366246Y-58453750D02*
X41546733Y-58299185D01*
X41546733Y-58299185D02*
X41758156Y-58109787D01*
X41758156Y-58109787D02*
X41988032Y-57896352D01*
X41988032Y-57896352D02*
X42081096Y-57807872D01*
X42081096Y-57807872D02*
X42306340Y-57594930D01*
X42306340Y-57594930D02*
X42509557Y-57407909D01*
X42509557Y-57407909D02*
X42680322Y-57255989D01*
X42680322Y-57255989D02*
X42808212Y-57148347D01*
X42808212Y-57148347D02*
X42882801Y-57094163D01*
X42882801Y-57094163D02*
X42896570Y-57089817D01*
X42896570Y-57089817D02*
X42910488Y-57138484D01*
X42910488Y-57138484D02*
X42922514Y-57260034D01*
X42922514Y-57260034D02*
X42931854Y-57439917D01*
X42931854Y-57439917D02*
X42937715Y-57663585D01*
X42937715Y-57663585D02*
X42939368Y-57873922D01*
X42939368Y-57873922D02*
X42939368Y-58636403D01*
X42939368Y-58636403D02*
X43688000Y-58636403D01*
X43688000Y-58636403D02*
X43688000Y-57677459D01*
X43688000Y-57677459D02*
X43685677Y-57389994D01*
X43685677Y-57389994D02*
X43679181Y-57126502D01*
X43679181Y-57126502D02*
X43669217Y-56901500D01*
X43669217Y-56901500D02*
X43656493Y-56729508D01*
X43656493Y-56729508D02*
X43641716Y-56625046D01*
X43641716Y-56625046D02*
X43635859Y-56606394D01*
X43635859Y-56606394D02*
X43521601Y-56474158D01*
X43521601Y-56474158D02*
X43337009Y-56379358D01*
X43337009Y-56379358D02*
X43112029Y-56329051D01*
X43112029Y-56329051D02*
X42876611Y-56330293D01*
G36*
X43337009Y-56379358D02*
G01*
X43521601Y-56474158D01*
X43635859Y-56606394D01*
X43641716Y-56625046D01*
X43656493Y-56729508D01*
X43669217Y-56901500D01*
X43679181Y-57126502D01*
X43685677Y-57389994D01*
X43688000Y-57677459D01*
X43688000Y-58636403D01*
X42939368Y-58636403D01*
X42939368Y-57873922D01*
X42937715Y-57663585D01*
X42931854Y-57439917D01*
X42922514Y-57260034D01*
X42910488Y-57138484D01*
X42896570Y-57089817D01*
X42882801Y-57094163D01*
X42808212Y-57148347D01*
X42680322Y-57255989D01*
X42509557Y-57407909D01*
X42306340Y-57594930D01*
X42081096Y-57807872D01*
X41988032Y-57896352D01*
X41758156Y-58109787D01*
X41546733Y-58299185D01*
X41366246Y-58453750D01*
X41229174Y-58562681D01*
X41148000Y-58615182D01*
X41086909Y-58637026D01*
X40855363Y-58666846D01*
X40623344Y-58629379D01*
X40431314Y-58529463D01*
X40292421Y-58415993D01*
X40275475Y-57387562D01*
X40258529Y-56359132D01*
X40649791Y-56372036D01*
X41041052Y-56384940D01*
X41067789Y-57123098D01*
X41094526Y-57861257D01*
X41814298Y-57152255D01*
X41871600Y-57096067D01*
X42092572Y-56884087D01*
X42296501Y-56695458D01*
X42470843Y-56541342D01*
X42603054Y-56432904D01*
X42680589Y-56381308D01*
X42876611Y-56330293D01*
X43112029Y-56329051D01*
X43337009Y-56379358D01*
G37*
X43337009Y-56379358D02*
X43521601Y-56474158D01*
X43635859Y-56606394D01*
X43641716Y-56625046D01*
X43656493Y-56729508D01*
X43669217Y-56901500D01*
X43679181Y-57126502D01*
X43685677Y-57389994D01*
X43688000Y-57677459D01*
X43688000Y-58636403D01*
X42939368Y-58636403D01*
X42939368Y-57873922D01*
X42937715Y-57663585D01*
X42931854Y-57439917D01*
X42922514Y-57260034D01*
X42910488Y-57138484D01*
X42896570Y-57089817D01*
X42882801Y-57094163D01*
X42808212Y-57148347D01*
X42680322Y-57255989D01*
X42509557Y-57407909D01*
X42306340Y-57594930D01*
X42081096Y-57807872D01*
X41988032Y-57896352D01*
X41758156Y-58109787D01*
X41546733Y-58299185D01*
X41366246Y-58453750D01*
X41229174Y-58562681D01*
X41148000Y-58615182D01*
X41086909Y-58637026D01*
X40855363Y-58666846D01*
X40623344Y-58629379D01*
X40431314Y-58529463D01*
X40292421Y-58415993D01*
X40275475Y-57387562D01*
X40258529Y-56359132D01*
X40649791Y-56372036D01*
X41041052Y-56384940D01*
X41067789Y-57123098D01*
X41094526Y-57861257D01*
X41814298Y-57152255D01*
X41871600Y-57096067D01*
X42092572Y-56884087D01*
X42296501Y-56695458D01*
X42470843Y-56541342D01*
X42603054Y-56432904D01*
X42680589Y-56381308D01*
X42876611Y-56330293D01*
X43112029Y-56329051D01*
X43337009Y-56379358D01*
X59351994Y-58101924D02*
X59286972Y-58176527D01*
X59286972Y-58176527D02*
X59249926Y-58251451D01*
X59249926Y-58251451D02*
X59248842Y-58261928D01*
X59248842Y-58261928D02*
X59289426Y-58284511D01*
X59289426Y-58284511D02*
X59371143Y-58280267D01*
X59371143Y-58280267D02*
X59427087Y-58257516D01*
X59427087Y-58257516D02*
X59459291Y-58193927D01*
X59459291Y-58193927D02*
X59456259Y-58116458D01*
X59456259Y-58116458D02*
X59421751Y-58069782D01*
X59421751Y-58069782D02*
X59411144Y-58068072D01*
X59411144Y-58068072D02*
X59351994Y-58101924D01*
G36*
X59421751Y-58069782D02*
G01*
X59456259Y-58116458D01*
X59459291Y-58193927D01*
X59427087Y-58257516D01*
X59371143Y-58280267D01*
X59289426Y-58284511D01*
X59248842Y-58261928D01*
X59249926Y-58251451D01*
X59286972Y-58176527D01*
X59351994Y-58101924D01*
X59411144Y-58068072D01*
X59421751Y-58069782D01*
G37*
X59421751Y-58069782D02*
X59456259Y-58116458D01*
X59459291Y-58193927D01*
X59427087Y-58257516D01*
X59371143Y-58280267D01*
X59289426Y-58284511D01*
X59248842Y-58261928D01*
X59249926Y-58251451D01*
X59286972Y-58176527D01*
X59351994Y-58101924D01*
X59411144Y-58068072D01*
X59421751Y-58069782D01*
X47698526Y-57018847D02*
X48530023Y-57018847D01*
X48530023Y-57018847D02*
X48899862Y-57021434D01*
X48899862Y-57021434D02*
X49178605Y-57031806D01*
X49178605Y-57031806D02*
X49381999Y-57053875D01*
X49381999Y-57053875D02*
X49525793Y-57091554D01*
X49525793Y-57091554D02*
X49625733Y-57148756D01*
X49625733Y-57148756D02*
X49697566Y-57229394D01*
X49697566Y-57229394D02*
X49749566Y-57321892D01*
X49749566Y-57321892D02*
X49801391Y-57455517D01*
X49801391Y-57455517D02*
X49800840Y-57568694D01*
X49800840Y-57568694D02*
X49744645Y-57701416D01*
X49744645Y-57701416D02*
X49714200Y-57754848D01*
X49714200Y-57754848D02*
X49653656Y-57834260D01*
X49653656Y-57834260D02*
X49568593Y-57893037D01*
X49568593Y-57893037D02*
X49443673Y-57934104D01*
X49443673Y-57934104D02*
X49263557Y-57960385D01*
X49263557Y-57960385D02*
X49012909Y-57974804D01*
X49012909Y-57974804D02*
X48676389Y-57980287D01*
X48676389Y-57980287D02*
X48530023Y-57980637D01*
X48530023Y-57980637D02*
X47698526Y-57980637D01*
X47698526Y-57980637D02*
X47698526Y-58636403D01*
X47698526Y-58636403D02*
X48514000Y-58633452D01*
X48514000Y-58633452D02*
X48855226Y-58628338D01*
X48855226Y-58628338D02*
X49160781Y-58616383D01*
X49160781Y-58616383D02*
X49407497Y-58598850D01*
X49407497Y-58598850D02*
X49572207Y-58577004D01*
X49572207Y-58577004D02*
X49580489Y-58575253D01*
X49580489Y-58575253D02*
X49745475Y-58533794D01*
X49745475Y-58533794D02*
X49876835Y-58483067D01*
X49876835Y-58483067D02*
X50011525Y-58405370D01*
X50011525Y-58405370D02*
X50178447Y-58288847D01*
X50178447Y-58288847D02*
X50391447Y-58079431D01*
X50391447Y-58079431D02*
X50523728Y-57829866D01*
X50523728Y-57829866D02*
X50575575Y-57557097D01*
X50575575Y-57557097D02*
X50547271Y-57278065D01*
X50547271Y-57278065D02*
X50439101Y-57009713D01*
X50439101Y-57009713D02*
X50251350Y-56768983D01*
X50251350Y-56768983D02*
X50151495Y-56682250D01*
X50151495Y-56682250D02*
X50014280Y-56584198D01*
X50014280Y-56584198D02*
X49877454Y-56510178D01*
X49877454Y-56510178D02*
X49722716Y-56456475D01*
X49722716Y-56456475D02*
X49531762Y-56419377D01*
X49531762Y-56419377D02*
X49286289Y-56395168D01*
X49286289Y-56395168D02*
X48967994Y-56380136D01*
X48967994Y-56380136D02*
X48620947Y-56371695D01*
X48620947Y-56371695D02*
X47698526Y-56354429D01*
X47698526Y-56354429D02*
X47698526Y-57018847D01*
G36*
X48620947Y-56371695D02*
G01*
X48967994Y-56380136D01*
X49286289Y-56395168D01*
X49531762Y-56419377D01*
X49722716Y-56456475D01*
X49877454Y-56510178D01*
X50014280Y-56584198D01*
X50151495Y-56682250D01*
X50251350Y-56768983D01*
X50439101Y-57009713D01*
X50547271Y-57278065D01*
X50575575Y-57557097D01*
X50523728Y-57829866D01*
X50391447Y-58079431D01*
X50178447Y-58288847D01*
X50011525Y-58405370D01*
X49876835Y-58483067D01*
X49745475Y-58533794D01*
X49580489Y-58575253D01*
X49572207Y-58577004D01*
X49407497Y-58598850D01*
X49160781Y-58616383D01*
X48855226Y-58628338D01*
X48514000Y-58633452D01*
X47698526Y-58636403D01*
X47698526Y-57980637D01*
X48530023Y-57980637D01*
X48676389Y-57980287D01*
X49012909Y-57974804D01*
X49263557Y-57960385D01*
X49443673Y-57934104D01*
X49568593Y-57893037D01*
X49653656Y-57834260D01*
X49714200Y-57754848D01*
X49744645Y-57701416D01*
X49800840Y-57568694D01*
X49801391Y-57455517D01*
X49749566Y-57321892D01*
X49697566Y-57229394D01*
X49625733Y-57148756D01*
X49525793Y-57091554D01*
X49381999Y-57053875D01*
X49178605Y-57031806D01*
X48899862Y-57021434D01*
X48530023Y-57018847D01*
X47698526Y-57018847D01*
X47698526Y-56354429D01*
X48620947Y-56371695D01*
G37*
X48620947Y-56371695D02*
X48967994Y-56380136D01*
X49286289Y-56395168D01*
X49531762Y-56419377D01*
X49722716Y-56456475D01*
X49877454Y-56510178D01*
X50014280Y-56584198D01*
X50151495Y-56682250D01*
X50251350Y-56768983D01*
X50439101Y-57009713D01*
X50547271Y-57278065D01*
X50575575Y-57557097D01*
X50523728Y-57829866D01*
X50391447Y-58079431D01*
X50178447Y-58288847D01*
X50011525Y-58405370D01*
X49876835Y-58483067D01*
X49745475Y-58533794D01*
X49580489Y-58575253D01*
X49572207Y-58577004D01*
X49407497Y-58598850D01*
X49160781Y-58616383D01*
X48855226Y-58628338D01*
X48514000Y-58633452D01*
X47698526Y-58636403D01*
X47698526Y-57980637D01*
X48530023Y-57980637D01*
X48676389Y-57980287D01*
X49012909Y-57974804D01*
X49263557Y-57960385D01*
X49443673Y-57934104D01*
X49568593Y-57893037D01*
X49653656Y-57834260D01*
X49714200Y-57754848D01*
X49744645Y-57701416D01*
X49800840Y-57568694D01*
X49801391Y-57455517D01*
X49749566Y-57321892D01*
X49697566Y-57229394D01*
X49625733Y-57148756D01*
X49525793Y-57091554D01*
X49381999Y-57053875D01*
X49178605Y-57031806D01*
X48899862Y-57021434D01*
X48530023Y-57018847D01*
X47698526Y-57018847D01*
X47698526Y-56354429D01*
X48620947Y-56371695D01*
%TD*%
M02*
