%TF.GenerationSoftware,KiCad,Pcbnew,(5.99.0-11760-g13083c80c2)*%
%TF.CreationDate,2021-08-25T14:33:33-04:00*%
%TF.ProjectId,DigitimerPulseExtender_v3,44696769-7469-46d6-9572-50756c736545,rev?*%
%TF.SameCoordinates,Original*%
%TF.FileFunction,Copper,L2,Bot*%
%TF.FilePolarity,Positive*%
%FSLAX46Y46*%
G04 Gerber Fmt 4.6, Leading zero omitted, Abs format (unit mm)*
G04 Created by KiCad (PCBNEW (5.99.0-11760-g13083c80c2)) date 2021-08-25 14:33:33*
%MOMM*%
%LPD*%
G01*
G04 APERTURE LIST*
G04 Aperture macros list*
%AMRoundRect*
0 Rectangle with rounded corners*
0 $1 Rounding radius*
0 $2 $3 $4 $5 $6 $7 $8 $9 X,Y pos of 4 corners*
0 Add a 4 corners polygon primitive as box body*
4,1,4,$2,$3,$4,$5,$6,$7,$8,$9,$2,$3,0*
0 Add four circle primitives for the rounded corners*
1,1,$1+$1,$2,$3*
1,1,$1+$1,$4,$5*
1,1,$1+$1,$6,$7*
1,1,$1+$1,$8,$9*
0 Add four rect primitives between the rounded corners*
20,1,$1+$1,$2,$3,$4,$5,0*
20,1,$1+$1,$4,$5,$6,$7,0*
20,1,$1+$1,$6,$7,$8,$9,0*
20,1,$1+$1,$8,$9,$2,$3,0*%
G04 Aperture macros list end*
%TA.AperFunction,ComponentPad*%
%ADD10RoundRect,0.250000X-0.620000X-0.845000X0.620000X-0.845000X0.620000X0.845000X-0.620000X0.845000X0*%
%TD*%
%TA.AperFunction,ComponentPad*%
%ADD11O,1.740000X2.190000*%
%TD*%
%TA.AperFunction,ComponentPad*%
%ADD12C,1.446000*%
%TD*%
%TA.AperFunction,ComponentPad*%
%ADD13C,3.015000*%
%TD*%
%TA.AperFunction,ComponentPad*%
%ADD14C,1.879600*%
%TD*%
%TA.AperFunction,ViaPad*%
%ADD15C,0.800000*%
%TD*%
%TA.AperFunction,Conductor*%
%ADD16C,0.250000*%
%TD*%
G04 APERTURE END LIST*
D10*
%TO.P,D1,1,K*%
%TO.N,GND*%
X38912800Y-63291400D03*
D11*
%TO.P,D1,2,A*%
%TO.N,Net-(D1-Pad2)*%
X41452800Y-63291400D03*
%TD*%
D12*
%TO.P,J2,1,In*%
%TO.N,Pin_2_on_Inverter*%
X42341800Y-50838332D03*
%TO.P,J2,2,Ext*%
%TO.N,GND*%
X44881800Y-50838332D03*
D13*
%TO.P,J2,3*%
%TO.N,N/C*%
X49961800Y-45758332D03*
%TO.P,J2,4*%
X39801800Y-45758332D03*
%TD*%
D14*
%TO.P,J1,1,1*%
%TO.N,+5V*%
X44704000Y-65024000D03*
%TO.P,J1,2,2*%
%TO.N,GND*%
X47599600Y-65024000D03*
%TD*%
D12*
%TO.P,J3,1,In*%
%TO.N,Output_Pin_3_R7_R8*%
X58724800Y-50863732D03*
%TO.P,J3,2,Ext*%
%TO.N,GND*%
X61264800Y-50863732D03*
D13*
%TO.P,J3,3*%
%TO.N,N/C*%
X66344800Y-45783732D03*
%TO.P,J3,4*%
X56184800Y-45783732D03*
%TD*%
D15*
%TO.N,GND*%
X37871400Y-56311800D03*
X67614800Y-54914800D03*
%TO.N,Net-(C2-Pad1)*%
X61569600Y-59055000D03*
X58699400Y-57302400D03*
%TO.N,Net-(R7-Pad1)*%
X48209200Y-59359800D03*
X48437800Y-60985400D03*
%TD*%
D16*
%TO.N,Net-(C2-Pad1)*%
X59817000Y-57302400D02*
X61569600Y-59055000D01*
X58699400Y-57302400D02*
X59817000Y-57302400D01*
%TO.N,Net-(R7-Pad1)*%
X48209200Y-60756800D02*
X48437800Y-60985400D01*
X48209200Y-59359800D02*
X48209200Y-60756800D01*
%TD*%
%TA.AperFunction,Conductor*%
%TO.N,GND*%
G36*
X69431879Y-39033089D02*
G01*
X69478374Y-39086743D01*
X69489762Y-39139089D01*
X69489762Y-67738314D01*
X69469760Y-67806435D01*
X69416104Y-67852928D01*
X69363762Y-67864314D01*
X35559064Y-67864314D01*
X35490943Y-67844312D01*
X35444450Y-67790656D01*
X35433064Y-67738314D01*
X35433064Y-64988494D01*
X43251170Y-64988494D01*
X43251467Y-64993646D01*
X43251467Y-64993650D01*
X43263053Y-65194592D01*
X43264879Y-65226255D01*
X43266016Y-65231301D01*
X43266017Y-65231307D01*
X43288509Y-65331111D01*
X43317237Y-65458585D01*
X43406837Y-65679244D01*
X43531274Y-65882306D01*
X43687204Y-66062317D01*
X43870442Y-66214444D01*
X43874894Y-66217046D01*
X43874899Y-66217049D01*
X43973333Y-66274569D01*
X44076065Y-66334601D01*
X44298552Y-66419560D01*
X44303618Y-66420591D01*
X44303619Y-66420591D01*
X44357956Y-66431646D01*
X44531928Y-66467041D01*
X44666121Y-66471962D01*
X44764760Y-66475579D01*
X44764764Y-66475579D01*
X44769924Y-66475768D01*
X44775044Y-66475112D01*
X44775046Y-66475112D01*
X45001023Y-66446164D01*
X45001024Y-66446164D01*
X45006151Y-66445507D01*
X45090803Y-66420110D01*
X45229316Y-66378554D01*
X45229317Y-66378553D01*
X45234262Y-66377070D01*
X45448133Y-66272295D01*
X45452336Y-66269297D01*
X45452341Y-66269294D01*
X45529155Y-66214503D01*
X46773926Y-66214503D01*
X46779207Y-66221558D01*
X46967421Y-66331541D01*
X46976708Y-66335991D01*
X47189461Y-66417233D01*
X47199363Y-66420110D01*
X47422511Y-66465510D01*
X47432763Y-66466733D01*
X47660338Y-66475077D01*
X47670624Y-66474610D01*
X47896515Y-66445673D01*
X47906601Y-66443530D01*
X48124728Y-66378088D01*
X48134323Y-66374328D01*
X48338837Y-66274137D01*
X48347683Y-66268863D01*
X48413231Y-66222108D01*
X48421632Y-66211408D01*
X48414645Y-66198256D01*
X47612411Y-65396021D01*
X47598468Y-65388408D01*
X47596634Y-65388539D01*
X47590020Y-65392790D01*
X46780683Y-66202128D01*
X46773926Y-66214503D01*
X45529155Y-66214503D01*
X45637816Y-66136996D01*
X45637818Y-66136994D01*
X45642020Y-66133997D01*
X45810716Y-65965889D01*
X45949690Y-65772486D01*
X46040198Y-65589358D01*
X46088312Y-65537151D01*
X46157013Y-65519244D01*
X46224489Y-65541323D01*
X46269898Y-65597781D01*
X46300938Y-65674223D01*
X46305591Y-65683434D01*
X46400753Y-65838723D01*
X46411211Y-65848185D01*
X46419987Y-65844402D01*
X47227579Y-65036811D01*
X47233956Y-65025132D01*
X47964008Y-65025132D01*
X47964139Y-65026966D01*
X47968390Y-65033580D01*
X48774426Y-65839615D01*
X48786432Y-65846171D01*
X48798171Y-65837202D01*
X48841841Y-65776429D01*
X48847151Y-65767592D01*
X48948050Y-65563438D01*
X48951849Y-65553843D01*
X49018049Y-65335957D01*
X49020228Y-65325876D01*
X49050191Y-65098288D01*
X49050710Y-65091615D01*
X49052280Y-65027365D01*
X49052086Y-65020646D01*
X49033279Y-64791887D01*
X49031594Y-64781707D01*
X48976115Y-64560837D01*
X48972795Y-64551086D01*
X48881984Y-64342233D01*
X48877118Y-64333158D01*
X48797608Y-64210256D01*
X48786922Y-64201052D01*
X48777355Y-64205456D01*
X47971621Y-65011189D01*
X47964008Y-65025132D01*
X47233956Y-65025132D01*
X47235192Y-65022868D01*
X47235061Y-65021034D01*
X47230810Y-65014420D01*
X46424820Y-64208431D01*
X46413288Y-64202134D01*
X46401006Y-64211757D01*
X46339347Y-64302146D01*
X46334248Y-64311120D01*
X46265972Y-64458208D01*
X46219148Y-64511575D01*
X46150905Y-64531155D01*
X46082909Y-64510731D01*
X46036135Y-64455399D01*
X46004784Y-64383296D01*
X45984767Y-64337259D01*
X45967694Y-64310867D01*
X45901424Y-64208431D01*
X45855406Y-64137298D01*
X45813902Y-64091685D01*
X45804358Y-64081197D01*
X45695124Y-63961150D01*
X45691073Y-63957951D01*
X45691069Y-63957947D01*
X45537018Y-63836285D01*
X46776681Y-63836285D01*
X46783425Y-63848614D01*
X47586789Y-64651979D01*
X47600732Y-64659592D01*
X47602566Y-64659461D01*
X47609180Y-64655210D01*
X48416931Y-63847458D01*
X48423948Y-63834607D01*
X48416174Y-63823937D01*
X48407604Y-63817169D01*
X48399017Y-63811464D01*
X48199655Y-63701410D01*
X48190243Y-63697180D01*
X47975571Y-63621160D01*
X47965614Y-63618530D01*
X47741405Y-63578591D01*
X47731154Y-63577622D01*
X47503430Y-63574840D01*
X47493146Y-63575560D01*
X47268037Y-63610006D01*
X47258010Y-63612395D01*
X47041551Y-63683144D01*
X47032042Y-63687141D01*
X46830051Y-63792292D01*
X46821316Y-63797793D01*
X46785135Y-63824958D01*
X46776681Y-63836285D01*
X45537018Y-63836285D01*
X45512278Y-63816747D01*
X45512273Y-63816744D01*
X45508224Y-63813546D01*
X45503708Y-63811053D01*
X45503705Y-63811051D01*
X45304250Y-63700946D01*
X45304246Y-63700944D01*
X45299726Y-63698449D01*
X45294857Y-63696725D01*
X45294853Y-63696723D01*
X45080105Y-63620676D01*
X45080101Y-63620675D01*
X45075230Y-63618950D01*
X45070140Y-63618043D01*
X45070135Y-63618042D01*
X44942814Y-63595364D01*
X44840764Y-63577186D01*
X44751637Y-63576097D01*
X44607795Y-63574339D01*
X44607793Y-63574339D01*
X44602625Y-63574276D01*
X44367209Y-63610300D01*
X44140838Y-63684289D01*
X43929590Y-63794258D01*
X43925457Y-63797361D01*
X43925454Y-63797363D01*
X43743275Y-63934147D01*
X43739140Y-63937252D01*
X43574602Y-64109431D01*
X43440394Y-64306172D01*
X43398579Y-64396256D01*
X43345050Y-64511575D01*
X43340122Y-64522191D01*
X43276477Y-64751685D01*
X43275928Y-64756819D01*
X43275928Y-64756821D01*
X43273269Y-64781707D01*
X43251170Y-64988494D01*
X35433064Y-64988494D01*
X35433064Y-63558948D01*
X37534801Y-63558948D01*
X37534801Y-64183495D01*
X37535138Y-64190014D01*
X37545057Y-64285606D01*
X37547949Y-64299000D01*
X37599388Y-64453184D01*
X37605561Y-64466362D01*
X37690863Y-64604207D01*
X37699899Y-64615608D01*
X37814629Y-64730139D01*
X37826040Y-64739151D01*
X37964043Y-64824216D01*
X37977224Y-64830363D01*
X38131510Y-64881538D01*
X38144886Y-64884405D01*
X38239238Y-64894072D01*
X38245654Y-64894400D01*
X38640685Y-64894400D01*
X38655924Y-64889925D01*
X38657129Y-64888535D01*
X38658800Y-64880852D01*
X38658800Y-63563515D01*
X38654325Y-63548276D01*
X38652935Y-63547071D01*
X38645252Y-63545400D01*
X37552916Y-63545400D01*
X37537677Y-63549875D01*
X37536472Y-63551265D01*
X37534801Y-63558948D01*
X35433064Y-63558948D01*
X35433064Y-62399255D01*
X37534800Y-62399255D01*
X37534800Y-63019285D01*
X37539275Y-63034524D01*
X37540665Y-63035729D01*
X37548348Y-63037400D01*
X38640685Y-63037400D01*
X38655924Y-63032925D01*
X38657129Y-63031535D01*
X38658800Y-63023852D01*
X38658800Y-61706516D01*
X38657459Y-61701948D01*
X39166800Y-61701948D01*
X39166800Y-64876284D01*
X39171275Y-64891523D01*
X39172665Y-64892728D01*
X39180348Y-64894399D01*
X39579895Y-64894399D01*
X39586414Y-64894062D01*
X39682006Y-64884143D01*
X39695400Y-64881251D01*
X39849584Y-64829812D01*
X39862762Y-64823639D01*
X40000607Y-64738337D01*
X40012008Y-64729301D01*
X40126539Y-64614571D01*
X40135551Y-64603160D01*
X40224458Y-64458925D01*
X40226555Y-64460217D01*
X40265756Y-64415708D01*
X40334036Y-64396256D01*
X40401993Y-64416807D01*
X40424186Y-64435278D01*
X40536076Y-64552568D01*
X40723765Y-64692213D01*
X40728516Y-64694629D01*
X40728520Y-64694631D01*
X40927544Y-64795820D01*
X40932300Y-64798238D01*
X41155717Y-64867610D01*
X41161004Y-64868311D01*
X41161005Y-64868311D01*
X41382345Y-64897648D01*
X41382349Y-64897648D01*
X41387629Y-64898348D01*
X41392958Y-64898148D01*
X41392960Y-64898148D01*
X41504517Y-64893960D01*
X41621404Y-64889572D01*
X41733613Y-64866028D01*
X41845132Y-64842629D01*
X41845135Y-64842628D01*
X41850359Y-64841532D01*
X42067946Y-64755603D01*
X42226383Y-64659461D01*
X42263383Y-64637009D01*
X42263386Y-64637007D01*
X42267944Y-64634241D01*
X42444634Y-64480917D01*
X42592965Y-64300014D01*
X42685589Y-64137298D01*
X42706055Y-64101345D01*
X42706056Y-64101343D01*
X42708696Y-64096705D01*
X42788516Y-63876804D01*
X42796147Y-63834607D01*
X42820316Y-63700946D01*
X42830144Y-63646597D01*
X42831300Y-63622084D01*
X42831300Y-63007662D01*
X42816505Y-62833298D01*
X42757733Y-62606860D01*
X42703333Y-62486095D01*
X42663845Y-62398436D01*
X42661650Y-62393563D01*
X42531002Y-62199504D01*
X42369524Y-62030232D01*
X42181835Y-61890587D01*
X42177084Y-61888171D01*
X42177080Y-61888169D01*
X41978056Y-61786980D01*
X41978055Y-61786980D01*
X41973300Y-61784562D01*
X41749883Y-61715190D01*
X41744596Y-61714489D01*
X41744595Y-61714489D01*
X41523255Y-61685152D01*
X41523251Y-61685152D01*
X41517971Y-61684452D01*
X41512642Y-61684652D01*
X41512640Y-61684652D01*
X41401084Y-61688840D01*
X41284196Y-61693228D01*
X41200211Y-61710850D01*
X41060468Y-61740171D01*
X41060465Y-61740172D01*
X41055241Y-61741268D01*
X40837654Y-61827197D01*
X40833090Y-61829966D01*
X40833091Y-61829966D01*
X40642217Y-61945791D01*
X40642214Y-61945793D01*
X40637656Y-61948559D01*
X40460966Y-62101883D01*
X40457578Y-62106015D01*
X40430039Y-62139601D01*
X40371379Y-62179596D01*
X40300409Y-62181527D01*
X40239661Y-62144783D01*
X40224580Y-62122243D01*
X40223894Y-62122668D01*
X40134737Y-61978593D01*
X40125701Y-61967192D01*
X40010971Y-61852661D01*
X39999560Y-61843649D01*
X39861557Y-61758584D01*
X39848376Y-61752437D01*
X39694090Y-61701262D01*
X39680714Y-61698395D01*
X39586362Y-61688728D01*
X39579945Y-61688400D01*
X39184915Y-61688400D01*
X39169676Y-61692875D01*
X39168471Y-61694265D01*
X39166800Y-61701948D01*
X38657459Y-61701948D01*
X38654325Y-61691277D01*
X38652935Y-61690072D01*
X38645252Y-61688401D01*
X38245705Y-61688401D01*
X38239186Y-61688738D01*
X38143594Y-61698657D01*
X38130200Y-61701549D01*
X37976016Y-61752988D01*
X37962838Y-61759161D01*
X37824993Y-61844463D01*
X37813592Y-61853499D01*
X37699061Y-61968229D01*
X37690049Y-61979640D01*
X37604984Y-62117643D01*
X37598837Y-62130824D01*
X37547662Y-62285110D01*
X37544795Y-62298486D01*
X37535128Y-62392838D01*
X37534800Y-62399255D01*
X35433064Y-62399255D01*
X35433064Y-59359800D01*
X47295696Y-59359800D01*
X47315658Y-59549728D01*
X47374673Y-59731356D01*
X47470160Y-59896744D01*
X47543337Y-59978015D01*
X47574053Y-60042021D01*
X47575700Y-60062324D01*
X47575700Y-60678031D01*
X47575175Y-60689205D01*
X47573498Y-60696709D01*
X47573543Y-60698133D01*
X47569440Y-60717970D01*
X47544258Y-60795472D01*
X47524296Y-60985400D01*
X47544258Y-61175328D01*
X47603273Y-61356956D01*
X47698760Y-61522344D01*
X47826547Y-61664266D01*
X47981048Y-61776518D01*
X47987076Y-61779202D01*
X47987078Y-61779203D01*
X48149481Y-61851509D01*
X48155512Y-61854194D01*
X48248912Y-61874047D01*
X48335856Y-61892528D01*
X48335861Y-61892528D01*
X48342313Y-61893900D01*
X48533287Y-61893900D01*
X48539739Y-61892528D01*
X48539744Y-61892528D01*
X48626688Y-61874047D01*
X48720088Y-61854194D01*
X48726119Y-61851509D01*
X48888522Y-61779203D01*
X48888524Y-61779202D01*
X48894552Y-61776518D01*
X49049053Y-61664266D01*
X49176840Y-61522344D01*
X49272327Y-61356956D01*
X49331342Y-61175328D01*
X49351304Y-60985400D01*
X49331342Y-60795472D01*
X49272327Y-60613844D01*
X49176840Y-60448456D01*
X49049053Y-60306534D01*
X48894639Y-60194345D01*
X48851285Y-60138122D01*
X48842700Y-60092409D01*
X48842700Y-60062324D01*
X48862702Y-59994203D01*
X48875058Y-59978021D01*
X48948240Y-59896744D01*
X49043727Y-59731356D01*
X49102742Y-59549728D01*
X49122704Y-59359800D01*
X49122014Y-59353235D01*
X49103432Y-59176435D01*
X49103432Y-59176433D01*
X49102742Y-59169872D01*
X49043727Y-58988244D01*
X48948240Y-58822856D01*
X48820453Y-58680934D01*
X48665952Y-58568682D01*
X48659924Y-58565998D01*
X48659922Y-58565997D01*
X48497519Y-58493691D01*
X48497518Y-58493691D01*
X48491488Y-58491006D01*
X48398088Y-58471153D01*
X48311144Y-58452672D01*
X48311139Y-58452672D01*
X48304687Y-58451300D01*
X48113713Y-58451300D01*
X48107261Y-58452672D01*
X48107256Y-58452672D01*
X48020312Y-58471153D01*
X47926912Y-58491006D01*
X47920882Y-58493691D01*
X47920881Y-58493691D01*
X47758478Y-58565997D01*
X47758476Y-58565998D01*
X47752448Y-58568682D01*
X47597947Y-58680934D01*
X47470160Y-58822856D01*
X47374673Y-58988244D01*
X47315658Y-59169872D01*
X47314968Y-59176433D01*
X47314968Y-59176435D01*
X47296386Y-59353235D01*
X47295696Y-59359800D01*
X35433064Y-59359800D01*
X35433064Y-57302400D01*
X57785896Y-57302400D01*
X57805858Y-57492328D01*
X57864873Y-57673956D01*
X57960360Y-57839344D01*
X58088147Y-57981266D01*
X58242648Y-58093518D01*
X58248676Y-58096202D01*
X58248678Y-58096203D01*
X58411081Y-58168509D01*
X58417112Y-58171194D01*
X58510512Y-58191047D01*
X58597456Y-58209528D01*
X58597461Y-58209528D01*
X58603913Y-58210900D01*
X58794887Y-58210900D01*
X58801339Y-58209528D01*
X58801344Y-58209528D01*
X58888288Y-58191047D01*
X58981688Y-58171194D01*
X58987719Y-58168509D01*
X59150122Y-58096203D01*
X59150124Y-58096202D01*
X59156152Y-58093518D01*
X59310653Y-57981266D01*
X59315068Y-57976363D01*
X59319980Y-57971940D01*
X59321105Y-57973189D01*
X59374414Y-57940349D01*
X59407600Y-57935900D01*
X59502406Y-57935900D01*
X59570527Y-57955902D01*
X59591501Y-57972805D01*
X60622478Y-59003782D01*
X60656504Y-59066094D01*
X60658692Y-59079703D01*
X60676058Y-59244928D01*
X60735073Y-59426556D01*
X60830560Y-59591944D01*
X60958347Y-59733866D01*
X61112848Y-59846118D01*
X61118876Y-59848802D01*
X61118878Y-59848803D01*
X61281281Y-59921109D01*
X61287312Y-59923794D01*
X61380712Y-59943647D01*
X61467656Y-59962128D01*
X61467661Y-59962128D01*
X61474113Y-59963500D01*
X61665087Y-59963500D01*
X61671539Y-59962128D01*
X61671544Y-59962128D01*
X61758488Y-59943647D01*
X61851888Y-59923794D01*
X61857919Y-59921109D01*
X62020322Y-59848803D01*
X62020324Y-59848802D01*
X62026352Y-59846118D01*
X62180853Y-59733866D01*
X62308640Y-59591944D01*
X62404127Y-59426556D01*
X62463142Y-59244928D01*
X62471691Y-59163594D01*
X62482414Y-59061565D01*
X62483104Y-59055000D01*
X62463142Y-58865072D01*
X62404127Y-58683444D01*
X62308640Y-58518056D01*
X62180853Y-58376134D01*
X62026352Y-58263882D01*
X62020324Y-58261198D01*
X62020322Y-58261197D01*
X61857919Y-58188891D01*
X61857918Y-58188891D01*
X61851888Y-58186206D01*
X61758487Y-58166353D01*
X61671544Y-58147872D01*
X61671539Y-58147872D01*
X61665087Y-58146500D01*
X61609194Y-58146500D01*
X61541073Y-58126498D01*
X61520099Y-58109595D01*
X60320652Y-56910147D01*
X60313112Y-56901861D01*
X60309000Y-56895382D01*
X60259348Y-56848756D01*
X60256507Y-56846002D01*
X60236770Y-56826265D01*
X60233573Y-56823785D01*
X60224551Y-56816080D01*
X60198100Y-56791241D01*
X60192321Y-56785814D01*
X60185375Y-56781995D01*
X60185372Y-56781993D01*
X60174566Y-56776052D01*
X60158047Y-56765201D01*
X60152048Y-56760548D01*
X60142041Y-56752786D01*
X60134772Y-56749641D01*
X60134768Y-56749638D01*
X60101463Y-56735226D01*
X60090813Y-56730009D01*
X60052060Y-56708705D01*
X60032437Y-56703667D01*
X60013734Y-56697263D01*
X60002420Y-56692367D01*
X60002419Y-56692367D01*
X59995145Y-56689219D01*
X59987322Y-56687980D01*
X59987312Y-56687977D01*
X59951476Y-56682301D01*
X59939856Y-56679895D01*
X59904711Y-56670872D01*
X59904710Y-56670872D01*
X59897030Y-56668900D01*
X59876776Y-56668900D01*
X59857065Y-56667349D01*
X59844886Y-56665420D01*
X59837057Y-56664180D01*
X59829165Y-56664926D01*
X59793039Y-56668341D01*
X59781181Y-56668900D01*
X59407600Y-56668900D01*
X59339479Y-56648898D01*
X59320253Y-56632557D01*
X59319980Y-56632860D01*
X59315068Y-56628437D01*
X59310653Y-56623534D01*
X59156152Y-56511282D01*
X59150124Y-56508598D01*
X59150122Y-56508597D01*
X58987719Y-56436291D01*
X58987718Y-56436291D01*
X58981688Y-56433606D01*
X58888287Y-56413753D01*
X58801344Y-56395272D01*
X58801339Y-56395272D01*
X58794887Y-56393900D01*
X58603913Y-56393900D01*
X58597461Y-56395272D01*
X58597456Y-56395272D01*
X58510513Y-56413753D01*
X58417112Y-56433606D01*
X58411082Y-56436291D01*
X58411081Y-56436291D01*
X58248678Y-56508597D01*
X58248676Y-56508598D01*
X58242648Y-56511282D01*
X58088147Y-56623534D01*
X58083726Y-56628444D01*
X58083725Y-56628445D01*
X57974603Y-56749638D01*
X57960360Y-56765456D01*
X57864873Y-56930844D01*
X57805858Y-57112472D01*
X57785896Y-57302400D01*
X35433064Y-57302400D01*
X35433064Y-50838332D01*
X41105596Y-50838332D01*
X41124377Y-51052997D01*
X41125801Y-51058310D01*
X41125801Y-51058312D01*
X41169072Y-51219801D01*
X41180148Y-51261139D01*
X41182470Y-51266119D01*
X41182471Y-51266121D01*
X41268890Y-51451447D01*
X41268893Y-51451452D01*
X41271216Y-51456434D01*
X41274372Y-51460941D01*
X41274373Y-51460943D01*
X41322636Y-51529869D01*
X41394813Y-51632949D01*
X41547183Y-51785319D01*
X41551691Y-51788476D01*
X41551694Y-51788478D01*
X41704478Y-51895458D01*
X41723698Y-51908916D01*
X41728680Y-51911239D01*
X41728685Y-51911242D01*
X41912999Y-51997189D01*
X41918993Y-51999984D01*
X41924301Y-52001406D01*
X41924303Y-52001407D01*
X42121820Y-52054331D01*
X42121822Y-52054331D01*
X42127135Y-52055755D01*
X42341800Y-52074536D01*
X42556465Y-52055755D01*
X42561778Y-52054331D01*
X42561780Y-52054331D01*
X42759297Y-52001407D01*
X42759299Y-52001406D01*
X42764607Y-51999984D01*
X42770601Y-51997189D01*
X42954915Y-51911242D01*
X42954920Y-51911239D01*
X42959902Y-51908916D01*
X42979122Y-51895458D01*
X43016755Y-51869107D01*
X44215580Y-51869107D01*
X44224876Y-51881121D01*
X44259440Y-51905324D01*
X44268936Y-51910807D01*
X44454183Y-51997189D01*
X44464475Y-52000935D01*
X44661908Y-52053837D01*
X44672703Y-52055740D01*
X44876325Y-52073555D01*
X44887275Y-52073555D01*
X45090897Y-52055740D01*
X45101692Y-52053837D01*
X45299125Y-52000935D01*
X45309417Y-51997189D01*
X45494664Y-51910807D01*
X45504160Y-51905324D01*
X45539562Y-51880535D01*
X45547937Y-51870058D01*
X45540868Y-51856610D01*
X44894612Y-51210354D01*
X44880668Y-51202740D01*
X44878835Y-51202871D01*
X44872220Y-51207122D01*
X44222010Y-51857332D01*
X44215580Y-51869107D01*
X43016755Y-51869107D01*
X43131906Y-51788478D01*
X43131909Y-51788476D01*
X43136417Y-51785319D01*
X43288787Y-51632949D01*
X43360965Y-51529869D01*
X43409227Y-51460943D01*
X43409228Y-51460941D01*
X43412384Y-51456434D01*
X43414707Y-51451452D01*
X43414710Y-51451447D01*
X43497881Y-51273086D01*
X43544799Y-51219801D01*
X43613076Y-51200340D01*
X43681036Y-51220882D01*
X43726271Y-51273086D01*
X43809325Y-51451196D01*
X43814808Y-51460692D01*
X43839597Y-51496094D01*
X43850074Y-51504469D01*
X43863522Y-51497400D01*
X44509778Y-50851144D01*
X44516156Y-50839464D01*
X45246208Y-50839464D01*
X45246339Y-50841297D01*
X45250590Y-50847912D01*
X45900800Y-51498122D01*
X45912575Y-51504552D01*
X45924589Y-51495256D01*
X45948792Y-51460692D01*
X45954275Y-51451196D01*
X46040657Y-51265949D01*
X46044403Y-51255657D01*
X46097305Y-51058224D01*
X46099208Y-51047429D01*
X46115280Y-50863732D01*
X57488596Y-50863732D01*
X57507377Y-51078397D01*
X57508801Y-51083710D01*
X57508801Y-51083712D01*
X57552072Y-51245201D01*
X57563148Y-51286539D01*
X57565470Y-51291519D01*
X57565471Y-51291521D01*
X57651890Y-51476847D01*
X57651893Y-51476852D01*
X57654216Y-51481834D01*
X57657372Y-51486341D01*
X57657373Y-51486343D01*
X57760028Y-51632949D01*
X57777813Y-51658349D01*
X57930183Y-51810719D01*
X57934691Y-51813876D01*
X57934694Y-51813878D01*
X58073745Y-51911242D01*
X58106698Y-51934316D01*
X58111680Y-51936639D01*
X58111685Y-51936642D01*
X58249562Y-52000935D01*
X58301993Y-52025384D01*
X58307301Y-52026806D01*
X58307303Y-52026807D01*
X58504820Y-52079731D01*
X58504822Y-52079731D01*
X58510135Y-52081155D01*
X58724800Y-52099936D01*
X58939465Y-52081155D01*
X58944778Y-52079731D01*
X58944780Y-52079731D01*
X59142297Y-52026807D01*
X59142299Y-52026806D01*
X59147607Y-52025384D01*
X59200038Y-52000935D01*
X59337915Y-51936642D01*
X59337920Y-51936639D01*
X59342902Y-51934316D01*
X59375855Y-51911242D01*
X59399755Y-51894507D01*
X60598580Y-51894507D01*
X60607876Y-51906521D01*
X60642440Y-51930724D01*
X60651936Y-51936207D01*
X60837183Y-52022589D01*
X60847475Y-52026335D01*
X61044908Y-52079237D01*
X61055703Y-52081140D01*
X61259325Y-52098955D01*
X61270275Y-52098955D01*
X61473897Y-52081140D01*
X61484692Y-52079237D01*
X61682125Y-52026335D01*
X61692417Y-52022589D01*
X61877664Y-51936207D01*
X61887160Y-51930724D01*
X61922562Y-51905935D01*
X61930937Y-51895458D01*
X61923868Y-51882010D01*
X61277612Y-51235754D01*
X61263668Y-51228140D01*
X61261835Y-51228271D01*
X61255220Y-51232522D01*
X60605010Y-51882732D01*
X60598580Y-51894507D01*
X59399755Y-51894507D01*
X59514906Y-51813878D01*
X59514909Y-51813876D01*
X59519417Y-51810719D01*
X59671787Y-51658349D01*
X59689573Y-51632949D01*
X59792227Y-51486343D01*
X59792228Y-51486341D01*
X59795384Y-51481834D01*
X59797707Y-51476852D01*
X59797710Y-51476847D01*
X59880881Y-51298486D01*
X59927799Y-51245201D01*
X59996076Y-51225740D01*
X60064036Y-51246282D01*
X60109271Y-51298486D01*
X60192325Y-51476596D01*
X60197808Y-51486092D01*
X60222597Y-51521494D01*
X60233074Y-51529869D01*
X60246522Y-51522800D01*
X60892778Y-50876544D01*
X60899156Y-50864864D01*
X61629208Y-50864864D01*
X61629339Y-50866697D01*
X61633590Y-50873312D01*
X62283800Y-51523522D01*
X62295575Y-51529952D01*
X62307589Y-51520656D01*
X62331792Y-51486092D01*
X62337275Y-51476596D01*
X62423657Y-51291349D01*
X62427403Y-51281057D01*
X62480305Y-51083624D01*
X62482208Y-51072829D01*
X62500023Y-50869207D01*
X62500023Y-50858257D01*
X62482208Y-50654635D01*
X62480305Y-50643840D01*
X62427403Y-50446407D01*
X62423657Y-50436115D01*
X62337275Y-50250868D01*
X62331792Y-50241372D01*
X62307003Y-50205970D01*
X62296526Y-50197595D01*
X62283078Y-50204664D01*
X61636822Y-50850920D01*
X61629208Y-50864864D01*
X60899156Y-50864864D01*
X60900392Y-50862600D01*
X60900261Y-50860767D01*
X60896010Y-50854152D01*
X60245800Y-50203942D01*
X60234025Y-50197512D01*
X60222011Y-50206808D01*
X60197808Y-50241372D01*
X60192325Y-50250868D01*
X60109271Y-50428978D01*
X60062353Y-50482263D01*
X59994076Y-50501724D01*
X59926116Y-50481182D01*
X59880881Y-50428978D01*
X59797710Y-50250617D01*
X59797707Y-50250612D01*
X59795384Y-50245630D01*
X59792227Y-50241121D01*
X59674946Y-50073626D01*
X59674944Y-50073623D01*
X59671787Y-50069115D01*
X59519417Y-49916745D01*
X59514909Y-49913588D01*
X59514906Y-49913586D01*
X59398397Y-49832006D01*
X60598663Y-49832006D01*
X60605732Y-49845454D01*
X61251988Y-50491710D01*
X61265932Y-50499324D01*
X61267765Y-50499193D01*
X61274380Y-50494942D01*
X61924590Y-49844732D01*
X61931020Y-49832957D01*
X61921724Y-49820943D01*
X61887160Y-49796740D01*
X61877664Y-49791257D01*
X61692417Y-49704875D01*
X61682125Y-49701129D01*
X61484692Y-49648227D01*
X61473897Y-49646324D01*
X61270275Y-49628509D01*
X61259325Y-49628509D01*
X61055703Y-49646324D01*
X61044908Y-49648227D01*
X60847475Y-49701129D01*
X60837183Y-49704875D01*
X60651936Y-49791257D01*
X60642440Y-49796740D01*
X60607038Y-49821529D01*
X60598663Y-49832006D01*
X59398397Y-49832006D01*
X59347411Y-49796305D01*
X59347409Y-49796304D01*
X59342902Y-49793148D01*
X59337920Y-49790825D01*
X59337915Y-49790822D01*
X59152589Y-49704403D01*
X59152587Y-49704402D01*
X59147607Y-49702080D01*
X59142299Y-49700658D01*
X59142297Y-49700657D01*
X58944780Y-49647733D01*
X58944778Y-49647733D01*
X58939465Y-49646309D01*
X58724800Y-49627528D01*
X58510135Y-49646309D01*
X58504822Y-49647733D01*
X58504820Y-49647733D01*
X58307303Y-49700657D01*
X58307301Y-49700658D01*
X58301993Y-49702080D01*
X58297013Y-49704402D01*
X58297011Y-49704403D01*
X58111685Y-49790822D01*
X58111680Y-49790825D01*
X58106698Y-49793148D01*
X58102191Y-49796304D01*
X58102189Y-49796305D01*
X57934694Y-49913586D01*
X57934691Y-49913588D01*
X57930183Y-49916745D01*
X57777813Y-50069115D01*
X57774656Y-50073623D01*
X57774654Y-50073626D01*
X57657373Y-50241121D01*
X57654216Y-50245630D01*
X57651893Y-50250612D01*
X57651890Y-50250617D01*
X57651773Y-50250868D01*
X57563148Y-50440925D01*
X57561726Y-50446233D01*
X57561725Y-50446235D01*
X57512691Y-50629235D01*
X57507377Y-50649067D01*
X57488596Y-50863732D01*
X46115280Y-50863732D01*
X46117023Y-50843807D01*
X46117023Y-50832857D01*
X46099208Y-50629235D01*
X46097305Y-50618440D01*
X46044403Y-50421007D01*
X46040657Y-50410715D01*
X45954275Y-50225468D01*
X45948792Y-50215972D01*
X45924003Y-50180570D01*
X45913526Y-50172195D01*
X45900078Y-50179264D01*
X45253822Y-50825520D01*
X45246208Y-50839464D01*
X44516156Y-50839464D01*
X44517392Y-50837200D01*
X44517261Y-50835367D01*
X44513010Y-50828752D01*
X43862800Y-50178542D01*
X43851025Y-50172112D01*
X43839011Y-50181408D01*
X43814808Y-50215972D01*
X43809325Y-50225468D01*
X43726271Y-50403578D01*
X43679353Y-50456863D01*
X43611076Y-50476324D01*
X43543116Y-50455782D01*
X43497881Y-50403578D01*
X43414710Y-50225217D01*
X43414707Y-50225212D01*
X43412384Y-50220230D01*
X43384614Y-50180570D01*
X43291946Y-50048226D01*
X43291944Y-50048223D01*
X43288787Y-50043715D01*
X43136417Y-49891345D01*
X43131909Y-49888188D01*
X43131906Y-49888186D01*
X43015397Y-49806606D01*
X44215663Y-49806606D01*
X44222732Y-49820054D01*
X44868988Y-50466310D01*
X44882932Y-50473924D01*
X44884765Y-50473793D01*
X44891380Y-50469542D01*
X45541590Y-49819332D01*
X45548020Y-49807557D01*
X45538724Y-49795543D01*
X45504160Y-49771340D01*
X45494664Y-49765857D01*
X45309417Y-49679475D01*
X45299125Y-49675729D01*
X45101692Y-49622827D01*
X45090897Y-49620924D01*
X44887275Y-49603109D01*
X44876325Y-49603109D01*
X44672703Y-49620924D01*
X44661908Y-49622827D01*
X44464475Y-49675729D01*
X44454183Y-49679475D01*
X44268936Y-49765857D01*
X44259440Y-49771340D01*
X44224038Y-49796129D01*
X44215663Y-49806606D01*
X43015397Y-49806606D01*
X42964411Y-49770905D01*
X42964409Y-49770904D01*
X42959902Y-49767748D01*
X42954920Y-49765425D01*
X42954915Y-49765422D01*
X42769589Y-49679003D01*
X42769587Y-49679002D01*
X42764607Y-49676680D01*
X42759299Y-49675258D01*
X42759297Y-49675257D01*
X42561780Y-49622333D01*
X42561778Y-49622333D01*
X42556465Y-49620909D01*
X42341800Y-49602128D01*
X42127135Y-49620909D01*
X42121822Y-49622333D01*
X42121820Y-49622333D01*
X41924303Y-49675257D01*
X41924301Y-49675258D01*
X41918993Y-49676680D01*
X41914013Y-49679002D01*
X41914011Y-49679003D01*
X41728685Y-49765422D01*
X41728680Y-49765425D01*
X41723698Y-49767748D01*
X41719191Y-49770904D01*
X41719189Y-49770905D01*
X41551694Y-49888186D01*
X41551691Y-49888188D01*
X41547183Y-49891345D01*
X41394813Y-50043715D01*
X41391656Y-50048223D01*
X41391654Y-50048226D01*
X41298986Y-50180570D01*
X41271216Y-50220230D01*
X41268893Y-50225212D01*
X41268890Y-50225217D01*
X41257046Y-50250617D01*
X41180148Y-50415525D01*
X41178726Y-50420833D01*
X41178725Y-50420835D01*
X41166540Y-50466310D01*
X41124377Y-50623667D01*
X41105596Y-50838332D01*
X35433064Y-50838332D01*
X35433064Y-45737172D01*
X37781200Y-45737172D01*
X37797023Y-46011594D01*
X37797848Y-46015799D01*
X37797849Y-46015807D01*
X37809353Y-46074441D01*
X37849943Y-46281330D01*
X37851330Y-46285381D01*
X37851331Y-46285385D01*
X37937592Y-46537333D01*
X37938981Y-46541389D01*
X38062489Y-46786958D01*
X38064915Y-46790487D01*
X38064918Y-46790493D01*
X38117145Y-46866483D01*
X38218182Y-47013492D01*
X38403179Y-47216801D01*
X38406467Y-47219550D01*
X38610764Y-47390370D01*
X38610769Y-47390374D01*
X38614056Y-47393122D01*
X38846911Y-47539192D01*
X39097437Y-47652308D01*
X39101548Y-47653526D01*
X39101554Y-47653528D01*
X39356883Y-47729160D01*
X39356888Y-47729161D01*
X39360996Y-47730378D01*
X39365230Y-47731026D01*
X39365235Y-47731027D01*
X39628469Y-47771307D01*
X39628471Y-47771307D01*
X39632711Y-47771956D01*
X39772610Y-47774154D01*
X39903265Y-47776207D01*
X39903271Y-47776207D01*
X39907556Y-47776274D01*
X40180443Y-47743251D01*
X40349506Y-47698898D01*
X40442182Y-47674585D01*
X40442183Y-47674585D01*
X40446325Y-47673498D01*
X40700279Y-47568307D01*
X40894141Y-47455023D01*
X40933905Y-47431787D01*
X40933906Y-47431786D01*
X40937608Y-47429623D01*
X41153920Y-47260013D01*
X41345211Y-47062615D01*
X41507943Y-46841083D01*
X41523539Y-46812358D01*
X41637053Y-46603291D01*
X41637054Y-46603289D01*
X41639103Y-46599515D01*
X41736266Y-46342382D01*
X41766949Y-46208412D01*
X41796676Y-46078621D01*
X41796677Y-46078616D01*
X41797633Y-46074441D01*
X41822068Y-45800651D01*
X41822511Y-45758332D01*
X41821360Y-45741452D01*
X41821068Y-45737172D01*
X47941200Y-45737172D01*
X47957023Y-46011594D01*
X47957848Y-46015799D01*
X47957849Y-46015807D01*
X47969353Y-46074441D01*
X48009943Y-46281330D01*
X48011330Y-46285381D01*
X48011331Y-46285385D01*
X48097592Y-46537333D01*
X48098981Y-46541389D01*
X48222489Y-46786958D01*
X48224915Y-46790487D01*
X48224918Y-46790493D01*
X48277145Y-46866483D01*
X48378182Y-47013492D01*
X48563179Y-47216801D01*
X48566467Y-47219550D01*
X48770764Y-47390370D01*
X48770769Y-47390374D01*
X48774056Y-47393122D01*
X49006911Y-47539192D01*
X49257437Y-47652308D01*
X49261548Y-47653526D01*
X49261554Y-47653528D01*
X49516883Y-47729160D01*
X49516888Y-47729161D01*
X49520996Y-47730378D01*
X49525230Y-47731026D01*
X49525235Y-47731027D01*
X49788469Y-47771307D01*
X49788471Y-47771307D01*
X49792711Y-47771956D01*
X49932610Y-47774154D01*
X50063265Y-47776207D01*
X50063271Y-47776207D01*
X50067556Y-47776274D01*
X50340443Y-47743251D01*
X50509506Y-47698898D01*
X50602182Y-47674585D01*
X50602183Y-47674585D01*
X50606325Y-47673498D01*
X50860279Y-47568307D01*
X51054141Y-47455023D01*
X51093905Y-47431787D01*
X51093906Y-47431786D01*
X51097608Y-47429623D01*
X51313920Y-47260013D01*
X51505211Y-47062615D01*
X51667943Y-46841083D01*
X51683539Y-46812358D01*
X51797053Y-46603291D01*
X51797054Y-46603289D01*
X51799103Y-46599515D01*
X51896266Y-46342382D01*
X51926949Y-46208412D01*
X51956676Y-46078621D01*
X51956677Y-46078616D01*
X51957633Y-46074441D01*
X51982068Y-45800651D01*
X51982467Y-45762572D01*
X54164200Y-45762572D01*
X54180023Y-46036994D01*
X54180848Y-46041199D01*
X54180849Y-46041207D01*
X54192353Y-46099841D01*
X54232943Y-46306730D01*
X54234330Y-46310781D01*
X54234331Y-46310785D01*
X54314596Y-46545220D01*
X54321981Y-46566789D01*
X54445489Y-46812358D01*
X54447915Y-46815887D01*
X54447918Y-46815893D01*
X54527865Y-46932216D01*
X54601182Y-47038892D01*
X54604063Y-47042058D01*
X54763067Y-47216801D01*
X54786179Y-47242201D01*
X54834171Y-47282329D01*
X54993764Y-47415770D01*
X54993769Y-47415774D01*
X54997056Y-47418522D01*
X55229911Y-47564592D01*
X55480437Y-47677708D01*
X55484548Y-47678926D01*
X55484554Y-47678928D01*
X55739883Y-47754560D01*
X55739888Y-47754561D01*
X55743996Y-47755778D01*
X55748230Y-47756426D01*
X55748235Y-47756427D01*
X56011469Y-47796707D01*
X56011471Y-47796707D01*
X56015711Y-47797356D01*
X56155610Y-47799554D01*
X56286265Y-47801607D01*
X56286271Y-47801607D01*
X56290556Y-47801674D01*
X56563443Y-47768651D01*
X56829325Y-47698898D01*
X57083279Y-47593707D01*
X57320608Y-47455023D01*
X57536920Y-47285413D01*
X57558966Y-47262664D01*
X57725228Y-47091093D01*
X57728211Y-47088015D01*
X57890943Y-46866483D01*
X57920330Y-46812358D01*
X58020053Y-46628691D01*
X58020054Y-46628689D01*
X58022103Y-46624915D01*
X58119266Y-46367782D01*
X58180633Y-46099841D01*
X58205068Y-45826051D01*
X58205511Y-45783732D01*
X58204360Y-45766852D01*
X58204068Y-45762572D01*
X64324200Y-45762572D01*
X64340023Y-46036994D01*
X64340848Y-46041199D01*
X64340849Y-46041207D01*
X64352353Y-46099841D01*
X64392943Y-46306730D01*
X64394330Y-46310781D01*
X64394331Y-46310785D01*
X64474596Y-46545220D01*
X64481981Y-46566789D01*
X64605489Y-46812358D01*
X64607915Y-46815887D01*
X64607918Y-46815893D01*
X64687865Y-46932216D01*
X64761182Y-47038892D01*
X64764063Y-47042058D01*
X64923067Y-47216801D01*
X64946179Y-47242201D01*
X64994171Y-47282329D01*
X65153764Y-47415770D01*
X65153769Y-47415774D01*
X65157056Y-47418522D01*
X65389911Y-47564592D01*
X65640437Y-47677708D01*
X65644548Y-47678926D01*
X65644554Y-47678928D01*
X65899883Y-47754560D01*
X65899888Y-47754561D01*
X65903996Y-47755778D01*
X65908230Y-47756426D01*
X65908235Y-47756427D01*
X66171469Y-47796707D01*
X66171471Y-47796707D01*
X66175711Y-47797356D01*
X66315610Y-47799554D01*
X66446265Y-47801607D01*
X66446271Y-47801607D01*
X66450556Y-47801674D01*
X66723443Y-47768651D01*
X66989325Y-47698898D01*
X67243279Y-47593707D01*
X67480608Y-47455023D01*
X67696920Y-47285413D01*
X67718966Y-47262664D01*
X67885228Y-47091093D01*
X67888211Y-47088015D01*
X68050943Y-46866483D01*
X68080330Y-46812358D01*
X68180053Y-46628691D01*
X68180054Y-46628689D01*
X68182103Y-46624915D01*
X68279266Y-46367782D01*
X68340633Y-46099841D01*
X68365068Y-45826051D01*
X68365511Y-45783732D01*
X68364360Y-45766852D01*
X68347107Y-45513767D01*
X68347106Y-45513761D01*
X68346815Y-45509490D01*
X68342477Y-45488540D01*
X68291942Y-45244520D01*
X68291073Y-45240323D01*
X68199317Y-44981211D01*
X68073244Y-44736949D01*
X68042713Y-44693507D01*
X67917650Y-44515562D01*
X67915187Y-44512057D01*
X67728072Y-44310697D01*
X67515360Y-44136594D01*
X67511706Y-44134355D01*
X67511702Y-44134352D01*
X67284655Y-43995218D01*
X67284647Y-43995214D01*
X67280987Y-43992971D01*
X67277052Y-43991244D01*
X67277045Y-43991240D01*
X67033223Y-43884210D01*
X67029291Y-43882484D01*
X66764929Y-43807178D01*
X66561615Y-43778243D01*
X66497045Y-43769053D01*
X66497043Y-43769053D01*
X66492793Y-43768448D01*
X66488504Y-43768426D01*
X66488497Y-43768425D01*
X66222205Y-43767030D01*
X66222198Y-43767030D01*
X66217919Y-43767008D01*
X66213675Y-43767567D01*
X66213671Y-43767567D01*
X66138323Y-43777487D01*
X65945392Y-43802887D01*
X65941252Y-43804020D01*
X65941250Y-43804020D01*
X65766943Y-43851705D01*
X65680256Y-43875420D01*
X65427416Y-43983265D01*
X65191553Y-44124427D01*
X64977029Y-44296293D01*
X64974085Y-44299395D01*
X64974081Y-44299399D01*
X64808616Y-44473762D01*
X64787815Y-44495682D01*
X64627412Y-44718907D01*
X64625408Y-44722692D01*
X64501979Y-44955811D01*
X64498789Y-44961835D01*
X64497317Y-44965858D01*
X64497315Y-44965862D01*
X64415094Y-45190541D01*
X64404324Y-45219972D01*
X64345767Y-45488540D01*
X64324200Y-45762572D01*
X58204068Y-45762572D01*
X58187107Y-45513767D01*
X58187106Y-45513761D01*
X58186815Y-45509490D01*
X58182477Y-45488540D01*
X58131942Y-45244520D01*
X58131073Y-45240323D01*
X58039317Y-44981211D01*
X57913244Y-44736949D01*
X57882713Y-44693507D01*
X57757650Y-44515562D01*
X57755187Y-44512057D01*
X57568072Y-44310697D01*
X57355360Y-44136594D01*
X57351706Y-44134355D01*
X57351702Y-44134352D01*
X57124655Y-43995218D01*
X57124647Y-43995214D01*
X57120987Y-43992971D01*
X57117052Y-43991244D01*
X57117045Y-43991240D01*
X56873223Y-43884210D01*
X56869291Y-43882484D01*
X56604929Y-43807178D01*
X56401615Y-43778243D01*
X56337045Y-43769053D01*
X56337043Y-43769053D01*
X56332793Y-43768448D01*
X56328504Y-43768426D01*
X56328497Y-43768425D01*
X56062205Y-43767030D01*
X56062198Y-43767030D01*
X56057919Y-43767008D01*
X56053675Y-43767567D01*
X56053671Y-43767567D01*
X55978323Y-43777487D01*
X55785392Y-43802887D01*
X55781252Y-43804020D01*
X55781250Y-43804020D01*
X55606943Y-43851705D01*
X55520256Y-43875420D01*
X55267416Y-43983265D01*
X55031553Y-44124427D01*
X54817029Y-44296293D01*
X54814085Y-44299395D01*
X54814081Y-44299399D01*
X54648616Y-44473762D01*
X54627815Y-44495682D01*
X54467412Y-44718907D01*
X54465408Y-44722692D01*
X54341979Y-44955811D01*
X54338789Y-44961835D01*
X54337317Y-44965858D01*
X54337315Y-44965862D01*
X54255094Y-45190541D01*
X54244324Y-45219972D01*
X54185767Y-45488540D01*
X54164200Y-45762572D01*
X51982467Y-45762572D01*
X51982511Y-45758332D01*
X51981360Y-45741452D01*
X51964107Y-45488367D01*
X51964106Y-45488361D01*
X51963815Y-45484090D01*
X51959477Y-45463140D01*
X51909987Y-45224164D01*
X51908073Y-45214923D01*
X51816317Y-44955811D01*
X51690244Y-44711549D01*
X51532187Y-44486657D01*
X51368675Y-44310697D01*
X51347993Y-44288440D01*
X51347990Y-44288437D01*
X51345072Y-44285297D01*
X51132360Y-44111194D01*
X51128706Y-44108955D01*
X51128702Y-44108952D01*
X50901655Y-43969818D01*
X50901647Y-43969814D01*
X50897987Y-43967571D01*
X50894052Y-43965844D01*
X50894045Y-43965840D01*
X50650223Y-43858810D01*
X50646291Y-43857084D01*
X50381929Y-43781778D01*
X50178615Y-43752843D01*
X50114045Y-43743653D01*
X50114043Y-43743653D01*
X50109793Y-43743048D01*
X50105504Y-43743026D01*
X50105497Y-43743025D01*
X49839205Y-43741630D01*
X49839198Y-43741630D01*
X49834919Y-43741608D01*
X49830675Y-43742167D01*
X49830671Y-43742167D01*
X49710832Y-43757944D01*
X49562392Y-43777487D01*
X49558252Y-43778620D01*
X49558250Y-43778620D01*
X49453860Y-43807178D01*
X49297256Y-43850020D01*
X49044416Y-43957865D01*
X48808553Y-44099027D01*
X48594029Y-44270893D01*
X48591085Y-44273995D01*
X48591081Y-44273999D01*
X48407765Y-44467173D01*
X48404815Y-44470282D01*
X48244412Y-44693507D01*
X48115789Y-44936435D01*
X48114317Y-44940458D01*
X48114315Y-44940462D01*
X48106494Y-44961835D01*
X48021324Y-45194572D01*
X47962767Y-45463140D01*
X47941200Y-45737172D01*
X41821068Y-45737172D01*
X41804107Y-45488367D01*
X41804106Y-45488361D01*
X41803815Y-45484090D01*
X41799477Y-45463140D01*
X41749987Y-45224164D01*
X41748073Y-45214923D01*
X41656317Y-44955811D01*
X41530244Y-44711549D01*
X41372187Y-44486657D01*
X41208675Y-44310697D01*
X41187993Y-44288440D01*
X41187990Y-44288437D01*
X41185072Y-44285297D01*
X40972360Y-44111194D01*
X40968706Y-44108955D01*
X40968702Y-44108952D01*
X40741655Y-43969818D01*
X40741647Y-43969814D01*
X40737987Y-43967571D01*
X40734052Y-43965844D01*
X40734045Y-43965840D01*
X40490223Y-43858810D01*
X40486291Y-43857084D01*
X40221929Y-43781778D01*
X40018615Y-43752843D01*
X39954045Y-43743653D01*
X39954043Y-43743653D01*
X39949793Y-43743048D01*
X39945504Y-43743026D01*
X39945497Y-43743025D01*
X39679205Y-43741630D01*
X39679198Y-43741630D01*
X39674919Y-43741608D01*
X39670675Y-43742167D01*
X39670671Y-43742167D01*
X39550832Y-43757944D01*
X39402392Y-43777487D01*
X39398252Y-43778620D01*
X39398250Y-43778620D01*
X39293860Y-43807178D01*
X39137256Y-43850020D01*
X38884416Y-43957865D01*
X38648553Y-44099027D01*
X38434029Y-44270893D01*
X38431085Y-44273995D01*
X38431081Y-44273999D01*
X38247765Y-44467173D01*
X38244815Y-44470282D01*
X38084412Y-44693507D01*
X37955789Y-44936435D01*
X37954317Y-44940458D01*
X37954315Y-44940462D01*
X37946494Y-44961835D01*
X37861324Y-45194572D01*
X37802767Y-45463140D01*
X37781200Y-45737172D01*
X35433064Y-45737172D01*
X35433064Y-39140297D01*
X35453066Y-39072176D01*
X35506722Y-39025683D01*
X35559057Y-39014297D01*
X52792397Y-39013681D01*
X69363757Y-39013089D01*
X69431879Y-39033089D01*
G37*
%TD.AperFunction*%
%TD*%
M02*
