%TF.GenerationSoftware,KiCad,Pcbnew,(5.99.0-11014-g82f3df4086)*%
%TF.CreationDate,2021-07-07T15:05:38-04:00*%
%TF.ProjectId,DigitimerPulseExtender,44696769-7469-46d6-9572-50756c736545,rev?*%
%TF.SameCoordinates,Original*%
%TF.FileFunction,Copper,L2,Bot*%
%TF.FilePolarity,Positive*%
%FSLAX46Y46*%
G04 Gerber Fmt 4.6, Leading zero omitted, Abs format (unit mm)*
G04 Created by KiCad (PCBNEW (5.99.0-11014-g82f3df4086)) date 2021-07-07 15:05:38*
%MOMM*%
%LPD*%
G01*
G04 APERTURE LIST*
G04 Aperture macros list*
%AMRoundRect*
0 Rectangle with rounded corners*
0 $1 Rounding radius*
0 $2 $3 $4 $5 $6 $7 $8 $9 X,Y pos of 4 corners*
0 Add a 4 corners polygon primitive as box body*
4,1,4,$2,$3,$4,$5,$6,$7,$8,$9,$2,$3,0*
0 Add four circle primitives for the rounded corners*
1,1,$1+$1,$2,$3*
1,1,$1+$1,$4,$5*
1,1,$1+$1,$6,$7*
1,1,$1+$1,$8,$9*
0 Add four rect primitives between the rounded corners*
20,1,$1+$1,$2,$3,$4,$5,0*
20,1,$1+$1,$4,$5,$6,$7,0*
20,1,$1+$1,$6,$7,$8,$9,0*
20,1,$1+$1,$8,$9,$2,$3,0*%
G04 Aperture macros list end*
%TA.AperFunction,ComponentPad*%
%ADD10RoundRect,0.250000X-0.620000X-0.845000X0.620000X-0.845000X0.620000X0.845000X-0.620000X0.845000X0*%
%TD*%
%TA.AperFunction,ComponentPad*%
%ADD11O,1.740000X2.190000*%
%TD*%
%TA.AperFunction,ComponentPad*%
%ADD12C,1.446000*%
%TD*%
%TA.AperFunction,ComponentPad*%
%ADD13C,3.015000*%
%TD*%
%TA.AperFunction,ViaPad*%
%ADD14C,0.800000*%
%TD*%
%TA.AperFunction,Conductor*%
%ADD15C,0.250000*%
%TD*%
G04 APERTURE END LIST*
D10*
%TO.P,J3,1,Pin_1*%
%TO.N,Power*%
X37846000Y-62738000D03*
D11*
%TO.P,J3,2,Pin_2*%
%TO.N,LED_PWR*%
X40386000Y-62738000D03*
%TO.P,J3,3,Pin_3*%
%TO.N,GND*%
X42926000Y-62738000D03*
%TD*%
D12*
%TO.P,J2,1,In*%
%TO.N,GND*%
X41087000Y-51046464D03*
%TO.P,J2,2,Ext*%
%TO.N,Output*%
X43627000Y-51046464D03*
D13*
%TO.P,J2,3*%
%TO.N,N/C*%
X48707000Y-45966464D03*
%TO.P,J2,4*%
X38547000Y-45966464D03*
%TD*%
D12*
%TO.P,J1,1,In*%
%TO.N,GND*%
X58587000Y-51046464D03*
%TO.P,J1,2,Ext*%
%TO.N,Input*%
X61127000Y-51046464D03*
D13*
%TO.P,J1,3*%
%TO.N,N/C*%
X66207000Y-45966464D03*
%TO.P,J1,4*%
X56047000Y-45966464D03*
%TD*%
D10*
%TO.P,D1,1,K*%
%TO.N,GND*%
X62738000Y-63266000D03*
D11*
%TO.P,D1,2,A*%
%TO.N,Net-(D1-Pad2)*%
X65278000Y-63266000D03*
%TD*%
D14*
%TO.N,Input*%
X62929000Y-54165000D03*
%TO.N,Net-(D1-Pad2)*%
X52578000Y-64516000D03*
%TO.N,Net-(C2-Pad1)*%
X46736000Y-55626000D03*
X46736000Y-62738000D03*
%TO.N,Input*%
X57404000Y-54864000D03*
%TO.N,Output*%
X63754000Y-57404000D03*
X58420000Y-57404000D03*
%TO.N,GND*%
X57658000Y-61214000D03*
%TO.N,Net-(C1-Pad1)*%
X47498000Y-61468000D03*
X47498000Y-58420000D03*
%TD*%
D15*
%TO.N,Input*%
X57404000Y-54864000D02*
X57912000Y-54864000D01*
X57912000Y-54864000D02*
X58611000Y-54165000D01*
X58611000Y-54165000D02*
X62929000Y-54165000D01*
%TO.N,Net-(D1-Pad2)*%
X56896000Y-64516000D02*
X59944000Y-64516000D01*
X56388000Y-64008000D02*
X56896000Y-64516000D01*
X59944000Y-64516000D02*
X60113520Y-64685520D01*
X52578000Y-64516000D02*
X53086000Y-64008000D01*
X53086000Y-64008000D02*
X56388000Y-64008000D01*
X60113520Y-64685520D02*
X63858480Y-64685520D01*
X63858480Y-64685520D02*
X65278000Y-63266000D01*
%TO.N,Net-(C2-Pad1)*%
X46228000Y-56134000D02*
X46736000Y-55626000D01*
X46228000Y-61468000D02*
X46228000Y-56134000D01*
X46736000Y-62738000D02*
X46736000Y-61976000D01*
X46736000Y-61976000D02*
X46228000Y-61468000D01*
%TO.N,Output*%
X63754000Y-57404000D02*
X64008000Y-57658000D01*
X64008000Y-57658000D02*
X66802000Y-57658000D01*
X67564000Y-56896000D02*
X67564000Y-54102000D01*
X67564000Y-54102000D02*
X66548000Y-53086000D01*
X66802000Y-57658000D02*
X67564000Y-56896000D01*
X66548000Y-53086000D02*
X45666536Y-53086000D01*
X45666536Y-53086000D02*
X43627000Y-51046464D01*
X58420000Y-57404000D02*
X63754000Y-57404000D01*
%TO.N,GND*%
X57912000Y-63754000D02*
X59182000Y-63754000D01*
X57658000Y-63500000D02*
X57912000Y-63754000D01*
X57658000Y-61214000D02*
X57658000Y-63500000D01*
X59182000Y-63754000D02*
X59670000Y-63266000D01*
X59670000Y-63266000D02*
X62738000Y-63266000D01*
%TO.N,Net-(C1-Pad1)*%
X47498000Y-58420000D02*
X47498000Y-61468000D01*
%TD*%
M02*
